<svg width="120" height="120" viewBox="0 0 120 120" fill="none" xmlns="http://www.w3.org/2000/svg">
<rect x="0.5" y="0.5" width="119" height="119" rx="59.5" stroke="#ECECEC"/>
<path fill-rule="evenodd" clip-rule="evenodd" d="M53.722 51.2992C53.722 51.7189 53.2393 51.955 52.908 51.6973L49.6947 49.1981C49.4351 48.9962 49.4351 48.6038 49.6947 48.4019L52.908 45.9026C53.2393 45.645 53.722 45.8811 53.722 46.3008V47.9067H65.8264V46.3008C65.8264 45.8811 66.3091 45.645 66.6404 45.9026L69.8537 48.4019C70.1133 48.6038 70.1133 48.9962 69.8537 49.1981L66.6404 51.6973C66.3091 51.955 65.8264 51.7189 65.8264 51.2992V49.6949H53.722V51.2992ZM66.8351 55.6308H52.7133C52.0296 55.6308 51.4754 56.185 51.4754 56.8687V70.9905C51.4754 71.6742 52.0296 72.2284 52.7133 72.2284H66.8351C67.5188 72.2284 68.073 71.6742 68.073 70.9905V56.8687C68.073 56.185 67.5188 55.6308 66.8351 55.6308ZM52.7133 53.8426C51.042 53.8426 49.6872 55.1975 49.6872 56.8687V70.9905C49.6872 72.6618 51.042 74.0166 52.7133 74.0166H66.8351C68.5063 74.0166 69.8612 72.6618 69.8612 70.9905V56.8687C69.8612 55.1975 68.5063 53.8426 66.8351 53.8426H52.7133ZM77.4038 57.878H75.7988V69.9826H77.4038C77.8235 69.9826 78.0596 70.4653 77.8019 70.7965L75.3027 74.0098C75.1007 74.2695 74.7084 74.2695 74.5065 74.0098L72.0072 70.7965C71.7496 70.4653 71.9856 69.9826 72.4053 69.9826H74.0107V57.878H72.4053C71.9856 57.878 71.7496 57.3953 72.0072 57.064L74.5065 53.8507C74.7084 53.5911 75.1007 53.5911 75.3027 53.8507L77.8019 57.064C78.0596 57.3953 77.8235 57.878 77.4038 57.878Z" fill="#ECECEC"/>
</svg>
