<svg width="278" height="121" viewBox="0 0 278 121" fill="none" xmlns="http://www.w3.org/2000/svg">
<path fill-rule="evenodd" clipRule="evenodd" d="M55.1335 0.212074C54.4671 0.328763 52.2862 0.664241 50.2871 0.957422C42.5934 2.08541 33.5257 5.75916 26.0588 10.7739C21.3912 13.9084 13.8124 21.5117 10.6879 26.1943C0.534132 41.4105 -2.50119 59.0567 2.08111 76.2333C7.35257 95.9946 21.9704 111.523 41.4705 118.077C47.4616 120.091 53.3549 121 60.4069 120.999C77.0403 120.994 91.2074 115.101 102.916 103.315C114.878 91.2745 120.56 77.4727 120.56 60.4575C120.56 53.4669 119.801 48.3885 117.805 42.028C111.332 21.4062 93.2318 5.25157 72.0059 1.15093C68.0347 0.38419 57.4957 -0.202657 55.1335 0.212074ZM210.256 0.462954C204.161 1.25449 197.477 3.31454 191.503 6.24294C174.209 14.7199 162.621 29.7577 158.521 49.0419C157.311 54.7349 157.332 66.6206 158.562 72.3797C161.146 84.4779 166.724 94.9089 175.071 103.254C186.731 114.911 201.362 121 217.709 121C233.659 121 247.681 115.466 259.149 104.642C270.925 93.5285 277.294 79.5347 277.927 63.3849C278.385 51.6971 276.739 43.7759 271.766 33.7265C268.38 26.8847 265.242 22.5137 259.981 17.3114C247.14 4.61416 228.064 -1.84943 210.256 0.462954ZM67.5782 2.88473C96.9368 6.89737 118.169 31.032 118.237 60.4677C118.275 76.9855 112.06 91.4812 100.071 102.835C93.0888 109.448 85.6243 113.773 76.7345 116.357C70.075 118.293 66.3205 118.711 58.0414 118.438C48.9567 118.137 43.4192 116.836 35.8723 113.227C18.7562 105.041 7.44417 90.5686 3.39885 71.68C2.23523 66.2448 2.27497 54.6853 3.47688 49.0419C4.62597 43.6461 6.26649 39.0996 8.97613 33.8034C19.9412 12.3691 44.0202 -0.33539 67.5782 2.88473ZM226.214 3.069C251.134 6.83756 270.705 25.9643 274.989 50.7359C276.134 57.3526 275.687 68.6627 274.032 74.9629C271.197 85.7522 266.771 93.409 258.669 101.537C250.593 109.639 243.061 114.031 232.18 116.982C227.822 118.164 226.633 118.274 217.973 118.299C209.557 118.323 208.046 118.201 204.161 117.182C176.599 109.954 158.611 85.6817 159.969 57.5505C160.971 36.7814 173.161 18.0674 191.793 8.6934C198.358 5.39111 203.197 3.96021 212.158 2.67275C215.171 2.24003 222.008 2.43256 226.214 3.069ZM28.2252 25.1553C20.752 28.5611 18.685 38.7062 24.2622 44.6039C27.4367 47.9616 32.6921 49.3857 36.766 47.9922C41.2228 46.4685 44.6255 42.3605 45.2565 37.7416C45.6447 34.8993 44.4525 30.8468 42.5502 28.5436C39.3128 24.6248 32.7803 23.0792 28.2252 25.1553ZM185.112 25.5048C181.95 27.0855 179.873 29.57 178.888 32.9496C177.929 36.2358 178.274 39.0991 180.017 42.3114C183.971 49.5986 194.036 50.6576 199.543 44.3656C200.417 43.3665 201.432 41.8291 201.799 40.9491C202.753 38.6576 202.628 33.6478 201.558 31.2848C198.736 25.0512 191.269 22.4272 185.112 25.5048Z" fill="#565163"/>
</svg>
