<svg width="20" height="20" viewBox="0 0 20 20" fill="none" xmlns="http://www.w3.org/2000/svg">
<path fill-rule="evenodd" clip-rule="evenodd" d="M2.01646 2.29981C2.01646 1.33331 2.79996 0.549805 3.76646 0.549805H7.43312C8.39962 0.549805 9.18312 1.33331 9.18312 2.2998V14.7665C9.18312 15.733 8.39962 16.5165 7.43312 16.5165H3.76645C2.79996 16.5165 2.01646 15.733 2.01646 14.7665V2.29981ZM3.76646 1.8498C3.51793 1.8498 3.31646 2.05128 3.31646 2.29981V14.7665C3.31646 15.015 3.51793 15.2165 3.76645 15.2165H7.43312C7.68165 15.2165 7.88312 15.015 7.88312 14.7665V2.2998C7.88312 2.05128 7.68165 1.8498 7.43312 1.8498H3.76646ZM0.549072 18.7994C0.549072 18.4404 0.840087 18.1494 1.19907 18.1494H18.7991C19.1581 18.1494 19.4491 18.4404 19.4491 18.7994C19.4491 19.1584 19.1581 19.4494 18.7991 19.4494L1.19907 19.4494C0.840087 19.4494 0.549072 19.1584 0.549072 18.7994ZM12.5663 6.33359C11.5538 6.33359 10.733 7.15441 10.733 8.16693V14.7669C10.733 15.7794 11.5538 16.6003 12.5663 16.6003H16.233C17.2455 16.6003 18.0663 15.7794 18.0663 14.7669V8.16693C18.0663 7.15441 17.2455 6.33359 16.233 6.33359H12.5663Z" fill="#ECECEC"/>
</svg>
