<svg width="30" height="32" viewBox="0 0 30 32" fill="none" xmlns="http://www.w3.org/2000/svg">
<path d="M0.510577 27.7153C0.510577 27.3959 0.769617 27.137 1.08916 27.137H28.7437C29.0633 27.137 29.3223 27.3959 29.3223 27.7153V31.185C29.3223 31.5044 29.0633 31.7633 28.7437 31.7633H1.08916C0.769617 31.7633 0.510577 31.5044 0.510577 31.185V27.7153Z" fill="#F1F1F1"/>
<path d="M0.510577 14.4155C0.510577 14.0962 0.769617 13.8373 1.08916 13.8373L28.7455 13.8372C29.065 13.8372 29.3241 14.0962 29.3241 14.4155V17.8853C29.3241 18.2047 29.065 18.4636 28.7455 18.4636L1.08916 18.4636C0.769617 18.4636 0.510577 18.2047 0.510577 17.8853V14.4155Z" fill="#F1F1F1"/>
<path d="M0.508789 1.01579C0.508789 0.696409 0.767829 0.437502 1.08737 0.437502L28.7437 0.4375C29.0633 0.4375 29.3223 0.696409 29.3223 1.01579V4.48552C29.3223 4.8049 29.0633 5.06381 28.7437 5.06381L1.08737 5.06381C0.767829 5.06381 0.508789 4.8049 0.508789 4.48552V1.01579Z" fill="#F1F1F1"/>
</svg>
