<svg width="22" height="10" viewBox="0 0 22 10" fill="none" xmlns="http://www.w3.org/2000/svg">
<path fill-rule="evenodd" clip-rule="evenodd" d="M14.6864 5.00004C14.6864 7.03596 13.0359 8.6864 11 8.6864C8.96408 8.6864 7.31364 7.03596 7.31364 5.00004C7.31364 2.96411 8.96408 1.31367 11 1.31367C13.0359 1.31367 14.6864 2.96411 14.6864 5.00004ZM15.9444 5.65C15.6259 8.0968 13.5336 9.9864 11 9.9864C8.46639 9.9864 6.37412 8.0968 6.05562 5.65H0.733496C0.374511 5.65 0.0834961 5.35898 0.0834961 5C0.0834961 4.64102 0.374511 4.35 0.733496 4.35H6.05562C6.37417 1.90324 8.46642 0.0136719 11 0.0136719C13.5336 0.0136719 15.6258 1.90324 15.9444 4.35H21.2668C21.6258 4.35 21.9168 4.64102 21.9168 5C21.9168 5.35898 21.6258 5.65 21.2668 5.65H15.9444Z" fill="#ECECEC"/>
</svg>
