<svg height="2500" viewBox="0 0 2500 2500" width="2500" xmlns="http://www.w3.org/2000/svg" xmlns:xlink="http://www.w3.org/1999/xlink"><linearGradient id="a" gradientTransform="matrix(1 0 0 -1 0 5824.04)" gradientUnits="userSpaceOnUse" x1="351.039" x2="2209.712" y1="4568.397" y2="4568.397"><stop offset="0" stop-color="#3417ef" stop-opacity=".4"/><stop offset="1" stop-color="#3417ef"/></linearGradient><linearGradient id="b" gradientTransform="matrix(1 0 0 -1 0 5824.04)" gradientUnits="userSpaceOnUse" x1="352.355" x2="2191.61" y1="4574.408" y2="4574.408"><stop offset="0" stop-color="#3d17ef" stop-opacity=".429"/><stop offset="1" stop-color="#3d17ef" stop-opacity=".971"/></linearGradient><linearGradient id="c" gradientTransform="matrix(1 0 0 -1 0 5824.04)" gradientUnits="userSpaceOnUse" x1="353.766" x2="2173.976" y1="4580.585" y2="4580.585"><stop offset="0" stop-color="#4518ef" stop-opacity=".457"/><stop offset="1" stop-color="#4518ef" stop-opacity=".943"/></linearGradient><linearGradient id="d" gradientTransform="matrix(1 0 0 -1 0 5824.04)" gradientUnits="userSpaceOnUse" x1="354.692" x2="2156.719" y1="4586.053" y2="4586.053"><stop offset="0" stop-color="#4e18ef" stop-opacity=".486"/><stop offset="1" stop-color="#4e18ef" stop-opacity=".914"/></linearGradient><linearGradient id="e" gradientTransform="matrix(1 0 0 -1 0 5824.04)" gradientUnits="userSpaceOnUse" x1="355.281" x2="2139.764" y1="4591.506" y2="4591.506"><stop offset="0" stop-color="#5618ef" stop-opacity=".514"/><stop offset="1" stop-color="#5618ef" stop-opacity=".886"/></linearGradient><linearGradient id="f" gradientTransform="matrix(1 0 0 -1 0 5824.04)" gradientUnits="userSpaceOnUse" x1="355.495" x2="2127.237" y1="4596.574" y2="4596.574"><stop offset="0" stop-color="#5f18ef" stop-opacity=".543"/><stop offset="1" stop-color="#5f18ef" stop-opacity=".857"/></linearGradient><linearGradient id="g" gradientTransform="matrix(1 0 0 -1 0 5824.04)" gradientUnits="userSpaceOnUse" x1="355.282" x2="2110.817" y1="4601.469" y2="4601.469"><stop offset="0" stop-color="#6719ef" stop-opacity=".571"/><stop offset="1" stop-color="#6719ef" stop-opacity=".829"/></linearGradient><linearGradient id="h" gradientTransform="matrix(1 0 0 -1 0 5824.04)" gradientUnits="userSpaceOnUse" x1="354.581" x2="2094.408" y1="4605.938" y2="4605.938"><stop offset="0" stop-color="#7019ef" stop-opacity=".6"/><stop offset="1" stop-color="#7019ef" stop-opacity=".8"/></linearGradient><linearGradient id="i" gradientTransform="matrix(1 0 0 -1 0 5824.04)" gradientUnits="userSpaceOnUse" x1="353.315" x2="2078.006" y1="4610.316" y2="4610.316"><stop offset="0" stop-color="#7919ef" stop-opacity=".629"/><stop offset="1" stop-color="#7919ef" stop-opacity=".771"/></linearGradient><linearGradient id="j" gradientTransform="matrix(1 0 0 -1 0 5824.04)" gradientUnits="userSpaceOnUse" x1="351.387" x2="2061.61" y1="4614.472" y2="4614.472"><stop offset="0" stop-color="#811aef" stop-opacity=".657"/><stop offset="1" stop-color="#811aef" stop-opacity=".743"/></linearGradient><linearGradient id="k" gradientTransform="matrix(1 0 0 -1 0 5824.04)" gradientUnits="userSpaceOnUse" x1="348.672" x2="2045.219" y1="4618.487" y2="4618.487"><stop offset="0" stop-color="#8a1aef" stop-opacity=".686"/><stop offset="1" stop-color="#8a1aef" stop-opacity=".714"/></linearGradient><linearGradient id="l" gradientTransform="matrix(1 0 0 -1 0 5824.04)" gradientUnits="userSpaceOnUse" x1="328.501" x2="2056.866" y1="4621.86" y2="4621.86"><stop offset="0" stop-color="#921aef" stop-opacity=".714"/><stop offset="1" stop-color="#921aef" stop-opacity=".686"/></linearGradient><linearGradient id="m" gradientTransform="matrix(1 0 0 -1 0 5824.04)" gradientUnits="userSpaceOnUse" x1="307.039" x2="2089.659" y1="4614.986" y2="4614.986"><stop offset="0" stop-color="#9b1aef" stop-opacity=".743"/><stop offset="1" stop-color="#9b1aef" stop-opacity=".657"/></linearGradient><linearGradient id="n" gradientTransform="matrix(1 0 0 -1 0 5824.04)" gradientUnits="userSpaceOnUse" x1="285.264" x2="2123.126" y1="4622.97" y2="4622.97"><stop offset="0" stop-color="#a31bef" stop-opacity=".771"/><stop offset="1" stop-color="#a31bef" stop-opacity=".629"/></linearGradient><linearGradient id="o" gradientTransform="matrix(1 0 0 -1 0 5824.04)" gradientUnits="userSpaceOnUse" x1="263.166" x2="2157.095" y1="4630.423" y2="4630.423"><stop offset="0" stop-color="#ac1bef" stop-opacity=".8"/><stop offset="1" stop-color="#ac1bef" stop-opacity=".6"/></linearGradient><linearGradient id="p" gradientTransform="matrix(1 0 0 -1 0 5824.04)" gradientUnits="userSpaceOnUse" x1="240.735" x2="2191.453" y1="4637.889" y2="4637.889"><stop offset="0" stop-color="#b51bef" stop-opacity=".829"/><stop offset="1" stop-color="#b51bef" stop-opacity=".571"/></linearGradient><linearGradient id="q" gradientTransform="matrix(1 0 0 -1 0 5824.04)" gradientUnits="userSpaceOnUse" x1="217.973" x2="2226.127" y1="4645.536" y2="4645.536"><stop offset="0" stop-color="#bd1cef" stop-opacity=".857"/><stop offset="1" stop-color="#bd1cef" stop-opacity=".543"/></linearGradient><linearGradient id="r" gradientTransform="matrix(1 0 0 -1 0 5824.04)" gradientUnits="userSpaceOnUse" x1="194.888" x2="2261.065" y1="4652.222" y2="4652.222"><stop offset="0" stop-color="#c61cef" stop-opacity=".886"/><stop offset="1" stop-color="#c61cef" stop-opacity=".514"/></linearGradient><linearGradient id="s" gradientTransform="matrix(1 0 0 -1 0 5824.04)" gradientUnits="userSpaceOnUse" x1="171.509" x2="2296.222" y1="4660.024" y2="4660.024"><stop offset="0" stop-color="#ce1cef" stop-opacity=".914"/><stop offset="1" stop-color="#ce1cef" stop-opacity=".486"/></linearGradient><linearGradient id="t" gradientTransform="matrix(1 0 0 -1 0 5824.04)" gradientUnits="userSpaceOnUse" x1="147.875" x2="2331.561" y1="4667.654" y2="4667.654"><stop offset="0" stop-color="#d71cef" stop-opacity=".943"/><stop offset="1" stop-color="#d71cef" stop-opacity=".457"/></linearGradient><linearGradient id="u" gradientTransform="matrix(1 0 0 -1 0 5824.04)" gradientUnits="userSpaceOnUse" x1="121.791" x2="2364.803" y1="4675.169" y2="4675.169"><stop offset="0" stop-color="#df1def" stop-opacity=".971"/><stop offset="1" stop-color="#df1def" stop-opacity=".429"/></linearGradient><linearGradient id="v" gradientTransform="matrix(1 0 0 -1 0 5824.04)" gradientUnits="userSpaceOnUse" x1="97.852" x2="2400.479" y1="4682.723" y2="4682.723"><stop offset="0" stop-color="#e81def"/><stop offset="1" stop-color="#e81def" stop-opacity=".4"/></linearGradient><path d="m608.359 369.452c95.485-68.497 217.976-64.98 326.523-33.865 131.833 37.788 252.911 112.119 359.228 197.378 54.622 43.803 106.091 91.638 153.463 143.204 23.329 25.395 45.678 51.715 66.707 79.049 15.306 19.894 28.476 41.703 48.328 57.521 34.64 27.602 79.842 35.776 123.045 37.179 53.664 1.744 107.31-5.743 160.469-12.057 55.089-6.542 110.755-13.151 166.322-10.143 51.14 2.768 103.24 14.917 144.136 47.273 13.099 10.363 25.939 22.237 33.81 37.181 5.657 10.74 9.167 22.535 11.573 34.393 6.358 31.344 5.194 64.172 1.398 95.759-10.066 83.788-40.829 166.056-84.003 238.279-46.88 78.421-112.286 148.258-195.51 188.158-43.982 21.086-92.076 32.868-140.81 34.656-27.042.992-54.165-.959-80.84-5.455-24.492-4.128-48.392-10.715-73.098-13.707-82.78-10.027-164.073 10.922-234.254 55.189-72.859 45.956-131.954 111.073-184.556 178.492-56.071 71.867-105.646 148.436-157.5 223.322-45.841 66.202-93.378 133.827-153.924 187.602-48.355 42.947-108.068 75.063-174.555 67.944-38.466-4.119-78.455-17.471-108.186-42.871-26.794-22.891-43.201-54.474-51.969-88.224-10.216-39.319-11.344-80.629-10.003-121.024 1.597-48.098 7.11-96.004 12.914-143.743 12.999-106.912 28.537-214.256 25.008-322.252-3.465-106.039-27.269-212.966-90.261-300.235-18.54-25.685-41.195-47.752-60.619-72.7-22.649-29.089-41.717-61.079-55.944-95.11-25.538-61.087-34.621-127.745-29.353-193.586 10.063-125.78 68.338-246.662 146.712-344.09 30.902-38.414 65.768-74.479 105.75-103.517 2.903-2.108.097-6.994-2.841-4.859-41.568 30.189-77.723 67.666-109.608 107.798-38.098 47.952-70.49 100.607-95.49 156.536-52.636 117.756-71.847 253.846-23.39 376.355 12.999 32.865 30.308 63.905 51.129 92.453 19.876 27.252 44.231 50.641 64.423 77.608 33.016 44.092 56.684 94.397 71.532 147.356 29.795 106.268 25.737 218.942 15.022 327.696-10.013 101.618-28.962 203.005-30.898 305.275-1.364 72.073 6.812 156.04 66.926 204.753 53.911 43.687 134.519 54.709 198.7 29.586 66.597-26.068 118.415-81.458 162.53-135.811 55.953-68.936 104.024-143.914 154.322-216.956 52.053-75.589 106.052-151.002 171.552-215.686 59.564-58.824 130.645-108.794 213.629-126.844 43.168-9.39 87.93-9.61 131.409-2.151 26.122 4.481 51.599 11.34 78.016 14.273 26.111 2.901 52.511 3.305 78.676.848 94.525-8.879 179.426-56.042 244.506-124.002 62.405-65.167 107.675-146.661 135.706-232.122 12.356-37.672 21.414-76.594 25.55-116.059 3.272-31.23 3.763-63.606-3.218-94.397-18.641-82.206-113.23-113.558-188.063-118.642-111.033-7.545-220.11 24.995-330.953 21.888-45.446-1.273-93.739-10.069-128.303-41.89-20.614-18.979-35.357-44.462-52.777-66.29-21.337-26.734-43.876-52.505-67.365-77.365-97.332-103.017-211.12-193.134-336.38-259.823-106.848-56.887-231.854-102.761-354.831-88.236-51.222 6.049-100.33 23.709-142.351 53.853-2.919 2.089-.112 6.972 2.839 4.856z" fill="url(#a)"/><path d="m614.724 384.794c76.419-51.58 170.464-61.122 259.835-47.14 103.217 16.149 201.336 59.41 290.858 112.065 96.12 56.536 184.994 126.015 263.839 204.834 18.932 18.926 37.28 38.44 54.924 58.573 16.117 18.39 30.814 37.842 46.462 56.596 22.143 26.537 53.458 42.275 86.837 49.565 38.07 8.315 77.734 7.398 116.371 4.576 44.818-3.275 89.345-9.596 134.016-14.329 84.116-8.91 179.286-16.187 255.283 28.451 16.225 9.53 33.749 21.454 44.692 37.084 9.246 13.206 14.164 29.027 17.041 44.745 8.087 44.176 1.593 90.999-8.189 134.336-25.094 111.171-79.978 212.974-151.68 300.873-29.471 36.128-62.519 70.338-102.588 94.744-40.227 24.503-85.913 36.819-132.869 38.243-29.469.893-58.35-2.655-87.409-7.115-29.771-4.569-60.037-5.826-90.071-3.457-59.775 4.715-118.27 23.701-168.638 56.394-26.111 16.948-49.458 37.851-72.513 58.658-25.042 22.601-49.328 46.035-73.075 69.989-48.607 49.03-94.982 100.224-140.569 152.056-44.289 50.356-87.628 101.543-132 151.825-41.96 47.548-85.327 94.848-135.311 134.157-43.168 33.95-93.859 63.17-149.817 66.794-39.998 2.591-82.225-8.489-116.821-28.705-53.082-31.021-78.026-86.395-85.979-145.391-9.777-72.531-.532-147.186 8.11-219.352 10.177-84.979 22.475-169.854 25.716-255.478 3.186-84.156-2.223-170.241-29.801-250.416-13.752-39.981-32.981-78.044-57.807-112.306-14.931-20.604-32.616-38.895-47.969-59.156-17.39-22.95-32.446-47.704-44.573-73.826-44.823-96.551-43.591-206.008-12.47-306.38 29.189-94.142 82.015-181.742 148.631-254.141 26.381-28.671 55.317-55.346 87.536-77.366 2.973-2.032.16-6.91-2.841-4.859-72.446 49.514-131.17 120.518-175.848 195.403-51.875 86.947-87.142 187.244-85.902 289.406.636 52.437 11.349 104.436 32.32 152.541 11.406 26.165 25.757 50.997 42.436 74.151 15.579 21.627 34.168 40.729 50.115 62.045 52.795 70.569 79.053 155.921 87.606 242.881 8.609 87.541 1.28 175.841-8.765 262.93-9.372 81.252-22.521 162.457-25.441 244.302-2.206 61.845.679 130.241 34.46 184.276 36.47 58.336 111.028 89.796 178.477 84.995 53.997-3.844 103.109-30.599 145.434-62.814 50.905-38.746 94.864-86.029 137.195-133.736 91.737-103.39 179.382-210.381 276.711-308.697 24.113-24.358 48.776-48.182 74.221-71.146 24.894-22.467 50.12-44.846 78.776-62.454 54.484-33.478 117.878-50.954 181.699-52.072 31.59-.553 61.926 4.643 93.119 8.543 27.307 3.413 55.002 4.478 82.424 1.796 45.103-4.41 88.096-19.548 125.673-44.935 39.164-26.461 71.48-61.711 100.626-98.6 35.714-45.204 67.288-93.096 92.358-145.045 24.168-50.083 43.256-103.016 54.594-157.512 8.745-42.033 14.043-86.979 5.826-129.54-3.009-15.584-8.144-31.303-17.297-44.425-10.081-14.453-25.381-25.641-40.072-35.033-35.064-22.416-75.965-33.177-117.041-37.331-91.052-9.209-182.127 10.197-272.582 17.656-74.799 6.167-162.847 7.174-213.307-57.996-66.428-85.793-145.91-161.541-232.019-227.35-87.922-67.195-184.486-125.195-288.381-164.016-88.676-33.135-186.924-53.496-281.274-35.573-41.479 7.88-81.115 23.71-116.138 47.349-2.989 2.017-.176 6.894 2.838 4.862z" fill="url(#b)"/><path d="m621.09 400.136c78.078-49.424 172.619-58.424 262.444-45.074 103.379 15.365 202.133 56.761 292.609 107.977 94.831 53.68 182.998 119.891 261.195 195.773 18.167 17.629 35.785 35.827 52.731 54.634 14.334 15.908 27.075 34.01 43.422 47.944 26.246 22.371 59.666 32.825 93.409 37.004 40.814 5.054 82.357 1.992 123.116-2.073 45.728-4.562 91.254-11.018 137.066-14.753 84.411-6.881 183.532-6.697 251.72 51.697 25.521 21.856 31.29 58.703 31.767 90.492.701 46.743-9.683 93.548-23.45 137.971-16.546 53.393-39.315 104.906-66.728 153.593-26.636 47.307-59.167 90.716-91.15 134.471-23.561 32.233-48.141 65.816-80.848 89.45-32.312 23.35-70.672 32.733-110.085 34.129-26.035.922-51.697-2.282-77.649-3.34-25.783-1.051-51.653.212-77.221 3.68-53.523 7.259-106.225 24.359-152.087 53.227-24.752 15.58-45.657 34.821-66.378 55.297-24.269 23.982-48.769 47.73-73.436 71.304-49.144 46.968-98.945 93.246-149.139 139.091-46.423 42.402-93.584 83.99-140.011 126.384-46.119 42.114-91.424 85.298-140.362 124.183-44.548 35.395-93.489 69.052-148.552 85.508-47.131 14.087-95.043 11.384-140.306-7.73-28.485-12.029-54.339-30.057-73.535-54.482-18.466-23.496-29.92-51.614-36.615-80.561-15.983-69.104-9.031-142.649-1.502-212.396 9.017-83.516 22.045-166.598 27.696-250.461 5.623-83.452 4.452-168.874-17.479-250.115-10.806-40.027-26.81-78.72-48.554-114.068-11.252-18.291-24.159-35.223-37.819-51.757-18.634-22.554-34.958-47.045-48.251-73.117-48.527-95.177-49.483-204.746-18.165-305.421 29.23-93.958 83.284-180.893 151.128-251.853 27.43-28.69 57.549-55.152 91.017-76.609 3.04-1.949.221-6.823-2.841-4.859-74.543 47.791-135.353 118.485-181.263 193.512-52.631 86.01-88.27 186.221-85.305 288.069 1.517 52.144 13.592 103.582 35.996 150.722 12.318 25.919 27.666 50.313 45.249 72.975 14.617 18.841 29.955 36.719 42.742 56.93 46.296 73.175 65.468 159.025 69.705 244.665 4.309 87.099-5.367 174.199-16.062 260.508-9.774 78.887-22.1 158.4-21.035 238.1.815 60.95 10.475 126.389 51.212 174.398 20.031 23.607 46.294 40.754 74.834 52.343 44.699 18.15 91.926 20.703 138.323 7.315 53.328-15.389 100.901-46.897 144.357-80.574 50.095-38.821 96.162-82.515 142.845-125.284 98.675-90.399 198.896-178.961 295.669-271.44 24.667-23.572 49.168-47.32 73.436-71.304 21.992-21.734 44.255-41.878 70.884-57.886 48.94-29.421 105.265-45.795 161.935-51.097 26.223-2.454 52.638-2.557 78.877-.28 25.533 2.216 51.223 3.335 76.779.78 37.002-3.7 71.655-15.867 100.968-39.055 32.093-25.387 56.465-59.536 80.315-92.37 32.744-45.081 65.729-89.672 92.403-138.733 26.545-48.824 48.577-100.391 64.269-153.735 12.851-43.683 22.348-89.856 20.675-135.615-1.128-30.851-7.704-66.064-31.821-87.666-30.689-27.489-71.903-43.184-111.868-50.754-90.107-17.069-183.016.458-272.96 9.927-41.806 4.401-84.343 8.05-126.314 3.741-36.46-3.743-73.234-14.759-100.45-40.383-16.613-15.64-30.306-34.679-45.755-51.483-17.798-19.36-36.298-38.073-55.372-56.175-39.224-37.223-80.871-71.896-124.395-103.977-88.01-64.869-184.445-120.219-287.578-157.162-89.787-32.162-188.445-51.354-283.499-34.283-41.761 7.499-81.912 22.558-117.793 45.272-3.054 1.929-.233 6.802 2.839 4.857z" fill="url(#c)"/><path d="m627.455 415.479c81.054-47.942 177.767-55.985 269.43-42.497 103.878 15.285 203.497 55.277 295.164 105.506 94.077 51.55 182.079 115.246 259.848 189.173 17.996 17.107 35.435 34.805 52.16 53.159 11.982 13.148 24.919 24.466 40.723 32.842 31.815 16.862 68.66 21.534 104.2 22.118 90.399 1.484 179.62-19.59 269.872-22.259 45.147-1.335 91.149 1.428 134.406 15.325 33.892 10.888 72.767 28.291 88.435 62.427 15.884 34.604 13.266 76.591 7.636 113.217-7.503 48.807-22.919 96.37-41.65 141.943-21.473 52.246-48.032 102.528-78.839 149.867-14.946 22.967-31.711 44.599-47.136 67.225-12.738 18.686-24.555 37.954-36.013 57.445-15.584 26.509-30.406 56.941-55.699 75.705-29.536 21.912-69.589 23.954-104.951 24.387-96.222 1.18-196.102 18.179-274.726 77.696-21.948 16.615-39.549 36.529-57.858 56.895-21.306 23.701-43.643 46.465-66.712 68.45-45.867 43.711-94.613 84.358-144.916 122.851-45.483 34.805-92.283 67.855-139.782 99.843-47.852 32.225-93.545 67.336-140.132 101.327-46.316 33.793-93.935 66.949-146.073 91.22-46.892 21.829-99.508 36.228-151.374 26.858-67.85-12.257-125.917-57.939-150.208-122.635-24.365-64.893-21.125-137.956-15.416-205.827 7.003-83.257 20.565-165.807 28.208-249.004 7.707-83.893 10.312-169.63-6.663-252.614-8.197-40.072-21.209-79.225-40.032-115.592-22.407-43.291-56.432-78.513-79.429-121.384-49.877-92.979-51.879-200.957-20.463-300.221 29.583-93.476 85.028-179.394 154.133-248.566 28.325-28.348 59.426-54.253 93.858-74.882 3.103-1.86.277-6.728-2.841-4.859-76.268 45.695-139.01 115.476-186.176 190.115-53.362 84.444-89.552 183.731-85.722 284.704 1.944 51.247 14.703 101.69 37.687 147.554 22.511 44.919 57.692 81.085 81.383 125.235 40.855 76.138 53.962 163.236 54.53 248.727.582 87.443-11.129 174.36-21.958 260.948-9.649 77.149-20.649 155.999-13.974 233.867 5.308 61.908 24.905 124.095 74.492 164.757 28.648 23.492 64.996 40.17 101.605 45.863 49.565 7.706 99.195-4.962 144.354-25.065 53.569-23.847 102.315-57.535 149.57-91.895 47.428-34.487 93.801-70.336 142.471-103.088 100.707-67.771 198.836-140.409 286.851-224.256 23.073-21.981 45.406-44.749 66.712-68.449 19.674-21.886 38.609-43.109 62.659-60.396 43.007-30.913 93.484-50.09 145.053-61.012 24.08-5.1 48.519-8.431 73.071-10.144 23.156-1.615 46.349-.779 69.506-2.112 32.455-1.868 66.481-7.37 91.991-29.102 24.148-20.57 38.79-51.01 54.651-77.843 12.253-20.729 25.035-41.134 38.859-60.855 16.298-23.253 33.283-45.87 48.443-69.916 29.65-47.03 55.123-96.803 75.722-148.448 18.276-45.821 33.137-93.648 39.625-142.672 4.719-35.655 5.92-75.267-9.467-108.704-15.173-32.971-50.684-50.392-83.273-62.112-87.189-31.353-184.408-17.495-274.087-6.913-44.328 5.231-88.898 10.891-133.61 10.802-37.936-.075-77.852-4.286-111.436-23.312-17.134-9.707-29.667-23.209-42.928-37.461-17.31-18.602-35.34-36.531-53.939-53.841-39.055-36.346-80.598-70.018-123.969-101.077-88.406-63.308-185.152-116.753-288.018-152.545-91.879-31.969-192.133-50.872-289.181-34.875-42.781 7.052-84.141 21.425-121.498 43.521-3.115 1.842-.287 6.71 2.841 4.86z" fill="url(#d)"/><path d="m633.821 430.82c84.589-46.548 183.991-53.626 278.102-39.964 105.221 15.275 206.494 54.248 300.059 103.884 92.948 49.309 180.484 110.32 257.452 182.155 15.138 14.129 28.938 30.377 45.829 42.464 13.951 9.985 29.848 17.039 46.297 21.77 37.657 10.831 77.942 10.506 116.704 7.999 93.155-6.026 185.652-26.921 279.39-21.111 45.273 2.806 90.772 12.577 130.413 35.369 14.296 8.22 25.916 18.223 33.945 32.825 8.034 14.61 11.891 31.293 13.465 47.787 4.03 42.217-4.738 85.326-16.297 125.737-14.622 51.116-35.486 100.418-59.62 147.727-24.752 48.52-53.227 95.265-85.501 139.156-26.329 35.808-48.376 72.709-61.377 115.415-6.471 21.258-9.996 47.506-30.107 60.649-12.604 8.238-28.134 11.592-42.742 14.18-20.073 3.555-40.473 4.979-60.676 7.627-89.73 11.763-183.39 36.917-251.587 99.667-19.962 18.367-35.202 40.339-52.46 61.091-18.886 22.708-39.192 44.217-60.571 64.591-42.044 40.069-88.15 75.73-136.492 107.861-44.634 29.667-91.196 56.366-138.889 80.786-21.512 11.015-43.513 21.069-64.899 32.323-23.588 12.414-46.567 25.955-69.371 39.747-47.588 28.782-94.459 58.891-143.687 84.853-46.612 24.583-96.516 46.679-149.25 53.383-77.684 9.878-159.038-24.602-200.493-92.294-35.867-58.567-39.01-131.486-36.257-198.229 3.427-83.071 17.005-165.402 26.273-247.926 9.506-84.652 15.927-170.811 4.507-255.61-5.558-41.273-15.545-82.015-31.719-120.46-7.975-18.956-17.381-37.293-28.282-54.735-13.302-21.283-29.26-40.655-41.825-62.44-52.408-90.869-56.418-197.883-24.973-296.533 29.829-93.579 86.959-178.958 157.704-246.617 29.297-28.018 61.472-53.353 96.936-73.128 3.164-1.764.329-6.628-2.841-4.859-78.452 43.746-143.537 112.995-192.151 187.757-53.957 82.978-90.583 181.653-85.298 281.788 2.708 51.324 16.86 101.537 41.428 146.689 12.539 23.045 28.793 43.285 43 65.217 11.416 17.624 21.326 36.228 29.653 55.504 34.531 79.924 41.217 168.666 38.068 254.746-3.219 87.985-16.741 175.099-26.845 262.443-8.654 74.814-16.943 152.8-2.535 227.442 5.98 30.975 16.593 61.375 34.114 87.781 17.986 27.108 42.747 48.841 71.202 64.454 40.272 22.097 84.76 30.374 130.336 24.643 51.242-6.443 99.775-27.085 145.312-50.612 50.203-25.937 97.842-56.462 146.109-85.755 23.222-14.094 46.601-27.97 70.591-40.726 22.045-11.721 44.778-22.097 67.008-33.459 99.548-50.879 195.275-111.876 276.563-189.115 21.735-20.653 42.387-42.467 61.553-65.528 17.756-21.364 33.477-43.936 54.194-62.673 38.008-34.379 84.965-57.325 133.555-72.602 41.743-13.124 84.983-20.789 128.388-25.814 19.98-2.313 40.117-3.922 59.721-8.656 12.536-3.028 25.384-7.315 35.485-15.619 18.215-14.974 21.722-41.107 28.297-62.348 5.77-18.642 13.103-36.693 22.237-53.948 12.845-24.262 29.286-45.835 45.193-68.097 61.996-86.765 113.929-185.537 141.41-288.967 16.419-61.796 33.783-159.424-32.202-199.352-80.309-48.596-180.164-43.049-269.844-33.478-46.729 4.987-93.281 11.894-140.168 15.335-40.544 2.975-82.846 4.031-122.297-7.308-17.55-5.044-34.398-12.836-48.846-24.103-17.647-13.761-32.628-31.316-49.163-46.406-38.406-35.053-79.345-67.332-122.02-97.024-89.356-62.169-187.054-113.931-290.35-148.713-94.121-31.693-196.097-50.174-295.251-35.414-44.234 6.585-87.222 20.333-126.445 41.917-3.177 1.748-.34 6.61 2.839 4.861z" fill="url(#e)"/><path d="m640.187 446.163c90.205-45.958 194.81-51.602 293.5-36.838 108.661 16.256 213.543 55.554 310.588 106.331 48.147 25.192 94.681 53.519 139.09 84.839 21.542 15.192 42.586 31.092 63 47.77 17.181 14.037 32.986 30.138 50.667 43.486 26.76 20.203 60.795 26.927 93.641 28.301 40.729 1.704 81.563-3.939 121.742-9.969 87.332-13.107 179.254-34.482 267.506-17.319 20.397 3.967 40.41 10.242 58.992 19.61 9.143 4.61 17.928 9.928 26.224 15.93 3.68 2.662 7.076 5.954 11.054 8.055 3.339 1.764 7.038 2.833 10.374 4.697 27.078 15.132 35.931 46.544 37.132 75.639 1.713 41.491-8.645 83.3-21.112 122.549-15.724 49.504-36.819 97.279-60.597 143.409-24.369 47.278-51.786 93.072-82.319 136.63-26.366 37.615-58.011 73.813-63.563 121.242-1.571 13.431-.574 26.793 1.72 40.073 1.566 9.063 4.644 18.913 3.353 28.19-1.396 10.022-9.742 15.745-18.271 19.816-16.016 7.647-34.039 11.18-51.288 14.862-83.271 17.775-168.561 35.434-239.062 86.228-19.678 14.178-37.744 30.62-53.151 49.378-17.617 21.448-31.907 45.357-49.663 66.772-36.077 43.512-78.547 81.483-124.701 114.02-43.557 30.706-90.314 56.753-138.775 78.862-44.477 20.291-90.315 35.422-136.406 51.386-99.632 34.507-187.985 95.105-286.231 133.098-46.386 17.939-96.015 31.892-146.201 29.501-43.734-2.084-85.562-18.684-119.697-45.984-55.515-44.4-76.828-112.746-81.629-181.388-5.748-82.166 6.464-164.965 16.694-246.301 11.113-88.359 22.54-177.485 18.514-266.729-3.814-84.525-23.139-169.191-71.485-239.853-30.867-45.115-52.014-95.562-58.562-150.076-6.061-50.451-.183-101.684 14.163-150.288 28.487-96.506 88.092-183.993 161.616-251.969 31.115-28.769 65.421-54.481 103.141-73.963 3.219-1.663.376-6.521-2.841-4.859-82.509 42.615-151.496 113.347-201.951 190.474-55.243 84.444-91.531 186.365-80.022 288.327 5.938 52.613 24.784 102.991 54.054 147.065 24.999 37.641 44.935 76.324 57.28 120 24.394 86.301 22.473 177.823 14.65 266.36-7.831 88.647-22.908 176.531-29.5 265.295-5.374 72.361-6.574 150.755 24.484 218.086 32.044 69.468 102.621 116.964 178.973 121.321 49.735 2.839 99.221-10.401 145.341-27.878 50.953-19.308 99.479-44.394 147.912-69.192 46.853-23.989 93.891-48.809 143.791-65.961 46.251-15.899 92.172-31.272 136.755-51.611 99.956-45.603 194.081-108.63 264.613-193.763 18.227-22 32.848-46.682 51.135-68.547 16.184-19.35 35.195-36.233 55.95-50.534 39.777-27.409 85.168-45.454 131.434-58.595 36.737-10.435 74.252-17.119 111.448-25.572 20.191-4.588 59.493-10.848 63.025-37.087 1.246-9.263-1.377-18.811-3.013-27.868-2.46-13.61-3.622-27.306-1.968-41.097 5.999-49.979 42.178-88.171 69.442-127.999 59.175-86.449 110.334-182.322 140.3-283.048 11.458-38.514 20.82-79.981 17.372-120.422-2.374-27.836-12.315-56.426-37.311-71.618-6.664-4.05-13.518-6.433-19.767-11.182-8.182-6.219-16.852-11.776-25.919-16.615-17.928-9.569-37.266-16.345-57.078-20.771-42.879-9.58-87.478-8.851-130.995-4.9-45.567 4.137-90.673 12.034-135.86 19.007-42.194 6.51-85.038 12.89-127.856 11.567-34.558-1.068-71.014-7.929-98.153-30.843-18.579-15.687-36.367-32.177-55.403-47.355-20.2-16.107-40.958-31.514-62.193-46.229-91.382-63.328-191.666-115.2-297.193-150.484-99.44-33.247-206.94-52.796-311.74-38.678-45.915 6.185-90.708 19.287-132.039 40.345-3.227 1.645-.381 6.502 2.843 4.86z" fill="url(#f)"/><path d="m646.551 461.506c96.57-45.3 206.995-49.656 311.06-33.928 112.336 16.978 221.146 56.316 321.987 108.041 48.1 24.672 94.659 52.456 138.971 83.433 21.142 14.78 41.415 30.559 61.624 46.572 12.557 9.95 27.03 16.969 42.373 21.472 35.963 10.555 74.863 8.683 111.7 4.83 44.865-4.693 89.226-13.27 133.744-20.377 85.959-13.722 186.075-27.937 265.194 18.157 8.32 4.847 15.962 12.229 25.021 15.274 6.809 2.288 13.326 5.548 19.111 9.821 11.351 8.383 19.196 20.511 23.749 33.751 11.511 33.478 6.181 71.749-1.19 105.492-10.318 47.233-27.766 92.892-47.588 136.877-21.994 48.803-47.507 96.036-75.525 141.635-13.783 22.432-28.217 44.469-43.354 66.012-14.101 20.069-30.386 38.976-42.646 60.255-15.236 26.444-23.562 57.386-11.279 86.602 7.876 18.732 23.499 31.657 32.864 49.23 11.024 20.684-21.588 31.362-35.71 36.585-31.995 11.834-65.804 18.736-98.459 28.487-42.328 12.639-84.144 28.188-122.306 50.692-41.293 24.35-77.396 57.057-102.466 98.169-29.072 47.673-64.474 90.186-107.141 126.325-79.099 66.999-176.382 110.222-276.434 135.076-22.444 5.575-45.08 9.862-67.823 13.99-22.418 4.068-44.362 10.502-65.896 17.878-48.61 16.65-95.47 38.029-142.692 58.167-49.119 20.947-98.92 41.36-150.863 54.245-47.068 11.675-97.206 17.062-144.669 4.424-39.229-10.445-75.636-33.488-102.587-63.804-23.601-26.546-39.092-59.041-48.114-93.216-20.732-78.533-12.298-163.105-3.325-242.722 10.285-91.266 25.106-182.227 27.952-274.17 2.688-86.803-5.608-176.599-44.933-255.339-11.119-22.263-25.694-42.499-36.664-64.842-11.903-24.243-20.601-50.031-25.799-76.535-10.059-51.286-6.394-104.383 7.089-154.688 26.755-99.818 89.385-189.744 166.057-257.945 32.855-29.223 69.185-54.998 108.966-73.925 3.269-1.556.416-6.409-2.841-4.859-87.057 41.42-160.491 113.922-212.889 193.958-55.933 85.434-90.831 189.535-73.061 292.177 4.529 26.161 12.493 51.631 23.443 75.81 10.595 23.395 25.39 44.197 37.322 66.836 20.857 39.575 33.667 82.887 40.696 126.957 14.67 91.969 5.726 186.282-5.21 278.14-10.565 88.744-25.619 177.915-24.707 267.541.733 72.062 13.799 148.184 64.128 203.118 27.332 29.833 63.86 52.519 102.981 62.936 46.222 12.307 95.042 7.927 141.099-2.842 104.032-24.324 197.651-78.556 298.077-113.292 22.189-7.675 44.811-14.383 67.937-18.58 22.743-4.128 45.378-8.414 67.822-13.99 48.879-12.142 96.735-28.64 142.373-49.984 98.408-46.023 185.469-116.205 242.058-209.825 26.561-43.941 63.817-78.171 108.357-103.454 39.475-22.407 82.504-37.528 125.986-50.056 32.636-9.403 66.704-16.119 98.064-29.425 14.722-6.246 38.785-17.388 30.699-37.363-3.197-7.897-9.219-14.56-14.448-21.156-6.909-8.715-13.612-17.665-18.383-27.768-15.035-31.831-3.029-65.691 15.008-93.577 13.924-21.527 30.47-41.424 44.988-62.583 15.023-21.895 29.344-44.274 43.006-67.042 27.851-46.412 53.155-94.477 74.622-144.181 18.66-43.204 35.074-88.038 43.876-134.389 6.262-32.975 10.095-70.304-2.8-102.253-4.935-12.226-12.565-23.195-23.064-31.273-5.241-4.032-10.998-7.243-17.12-9.731-4.272-1.737-8.027-2.9-11.842-5.591-4.672-3.295-9.351-6.525-14.253-9.476-36.88-22.199-79.872-31.029-122.465-32.804-93.799-3.909-185.386 22.224-277.971 32.407-38.432 4.227-79.434 6.725-116.833-5.091-17.95-5.671-32.101-15.309-46.663-26.934-19.704-15.731-40.006-30.708-60.791-44.977-93.08-63.9-195.775-115.043-303.106-150.141-104.266-34.095-216.519-54.137-326.265-41.208-48.637 5.73-96.274 18.281-140.671 39.107-3.275 1.535-.422 6.389 2.841 4.858z" fill="url(#g)"/><path d="m652.917 476.847c103.335-44.337 219.806-47.873 329.729-31.625 116.174 17.172 229.288 55.863 334.216 108.152 48.396 24.117 95.31 51.372 139.748 82.202 15.256 10.585 29.478 20.457 47.397 26.008 16.969 5.257 34.859 7.307 52.566 7.792 42.921 1.176 85.884-6.128 128.027-13.414 48-8.298 95.889-17.759 144.416-22.512 45.888-4.494 93.289-5.134 138.107 7.11 21.516 5.878 42.126 14.864 60.676 27.298 6.887 4.616 14.814 5.798 22.3 9.391 6.256 3.003 12.062 6.888 17.081 11.69 22.273 21.318 25.261 55.082 23.405 84.143-2.722 42.611-15.684 84.525-30.565 124.287-36.61 97.828-89.768 190.396-149.507 275.832-13.711 19.608-29.114 38.134-42.383 58.018-9.283 13.91-17.258 29.479-19.781 46.182-3.673 24.31 6.767 45.679 24.086 62.212 15.779 15.065 35.243 25.056 51.981 38.839 4.892 4.029 11.44 9.478 12.108 16.288.803 8.194-7.457 14.763-13.308 19.011-24.141 17.532-55.179 24.99-83.184 33.874-39.709 12.597-79.326 25.792-116.827 44.125-41.782 20.426-80.89 47.365-111.063 83.085-17.045 20.179-28.827 42.894-42.353 65.383-14.236 23.669-30.683 45.984-49.11 66.56-69.663 77.784-165.048 127.445-265.44 152.817-46.374 11.72-93.944 18.49-141.718 20.623-45.958 2.051-90.461 14.153-133.983 28.407-98.797 32.358-196.207 79.205-300.793 89.42-47.914 4.679-97.311-.141-140.344-23.067-34.828-18.555-64.611-46.406-84.763-80.37-41.142-69.337-41.92-155.378-36.83-233.437 6.133-94.07 22.813-187.082 31.018-280.959 7.881-90.155 9.492-184.417-19.78-271.224-15.822-46.921-45.611-87.141-59.057-134.972-14.43-51.333-14.044-105.654-2.022-157.426 24.007-103.383 89.439-196.004 169.072-264.58 35.171-30.283 74.239-56.597 116.879-75.164 3.313-1.442.45-6.292-2.841-4.859-91.767 39.955-170.007 114.108-224.369 197.228-57.209 87.474-90.58 195.766-63.949 299.588 6.811 26.555 17.357 52.092 30.925 75.901 11.362 19.938 21.141 40.483 28.699 62.178 15.178 43.567 22.243 89.544 24.614 135.502 4.99 96.726-9.236 193.32-21.305 289.024-11.012 87.321-23.574 177.814-9.976 265.563 5.722 36.922 16.964 73.383 36.937 105.188 20.845 33.192 50.96 60.568 85.726 78.637 89.606 46.571 196.575 18.501 286.684-11.452 51.255-17.038 101.512-36.922 152.782-53.91 45.527-15.086 91.523-27.406 139.61-29.721 97.653-4.7 195.968-28.389 281.963-75.675 46.109-25.353 88.449-57.727 123.899-96.69 18.312-20.127 34.785-41.941 49.133-65.061 14.453-23.29 26.263-47.493 43.983-68.653 59.865-71.483 149.273-102.13 235.212-129.476 21.779-6.93 121.975-33.817 81.875-72.065-15.514-14.798-35.478-24.284-51.64-38.391-19.067-16.644-31.644-38.413-26.482-64.4 3.653-18.39 13.671-35.058 24.716-49.93 14.809-19.939 29.741-39.707 43.784-60.208 30.577-44.643 58.723-91.001 84.143-138.769 24.07-45.232 45.915-91.885 63.026-140.222 13.84-39.096 25.635-80.509 26.542-122.256.614-28.242-4.552-59.653-26.274-79.734-4.865-4.498-10.389-8.294-16.31-11.262-6.988-3.502-15.281-4.715-21.787-8.841-18.636-11.817-37.8-21.383-59.04-27.651-44.563-13.149-92.041-13.278-137.956-9.193-48.759 4.338-96.89 13.633-145.056 22.062-43.715 7.651-88.226 15.559-132.778 14.469-18.483-.452-37.097-2.639-54.699-8.51-19.407-6.474-34.791-18.857-51.518-30.212-94.219-63.954-198.919-113.56-307.423-147.897-110.16-34.862-228.092-54.997-343.718-43.034-51.57 5.336-102.274 17.4-149.977 37.868-3.314 1.424-.45 6.274 2.846 4.859z" fill="url(#h)"/><path d="m658.61 492.474c110.523-43.041 232.831-46.664 349.213-30.652 119.059 16.382 235.777 52.978 344.281 104.396 25.071 11.88 49.738 24.623 73.87 38.312 18.45 10.466 36.074 23.614 56.174 30.773 36.398 12.965 77.28 10.114 114.924 5.479 97.133-11.96 192.911-42.726 291.641-38.047 23.682 1.122 47.316 4.539 70.016 11.506 11.145 3.421 22.022 7.686 32.448 12.909 9.336 4.676 17.369 10.809 27.444 13.426 28.934 7.516 47.361 29.098 53.348 57.989 7.357 35.495-.384 73.632-9.765 107.974-12.799 46.853-31.837 91.953-52.98 135.592-44.952 92.784-100.481 180.696-163.252 262.415-16.507 21.489-32.801 50.145-23.027 77.981 7.704 21.94 28.206 36.414 47.653 47.331 21.413 12.021 44.519 20.584 66.126 32.199 11.487 6.174 31.618 17.108 23.818 33.073-10.63 21.759-41.548 31.921-62.316 39.818-35.794 13.61-72.299 25.18-107.551 40.223-41.369 17.655-81.274 39.668-115.116 69.58-17.838 15.766-33.768 33.665-47.121 53.384-15.239 22.504-25.614 47.745-39.872 70.85-55.727 90.307-144.714 152.858-245.284 184.118-47.146 14.654-96.207 22.82-145.48 25.367-23.775 1.228-47.619 1.148-71.386-.217-21.957-1.261-43.342-1.804-65.268.635-48.308 5.373-95.455 18.783-141.892 32.656-51.341 15.339-102.322 32.07-154.419 44.737-49.313 11.99-100.405 20.867-151.326 17.259-47.893-3.394-93.233-19.754-130.352-50.565-64.902-53.869-85.857-136.356-88.366-217.505-2.945-95.267 13.617-190.276 25.138-284.515 11.593-94.827 21.527-192.811 3.549-287.499-4.201-22.123-10.04-43.959-17.925-65.062-8.678-23.225-21.339-44.575-30.181-67.701-19.554-51.141-23.235-106.873-13.072-160.518 20.276-107.04 88.738-202.511 171.178-271.392 37.544-31.372 79.528-58.281 125.132-76.312 3.33-1.316 1.879-6.762-1.496-5.427-96.262 38.06-179.347 112.803-235.867 198.661-58.754 89.251-90.309 201.103-55.259 305.459 8.262 24.599 21.439 46.812 31.072 70.806 8.611 21.452 15.04 43.743 19.684 66.377 9.673 47.131 11.705 95.554 10.296 143.542-2.947 100.43-20.772 199.595-31.229 299.344-8.968 85.544-15.835 178.717 15.894 260.671 14.159 36.57 36.66 69.27 66.803 94.492 35.479 29.687 78.148 46.763 124.006 51.783 50.059 5.479 100.876-2.081 149.672-13.145 53.016-12.021 104.793-28.79 156.783-44.52 48.866-14.786 98.475-29.642 149.331-35.673 46.011-5.457 92.262 1.62 138.477-.691 99.445-4.971 199.75-32.688 281.786-90.464 42.836-30.169 79.811-68.155 108.564-111.97 15.331-23.362 26.151-49.079 40.927-72.695 13.376-21.381 29.841-40.687 48.506-57.626 34.524-31.332 75.907-54 118.633-72.078 36.175-15.307 73.734-26.819 110.27-41.157 20.89-8.198 48.666-18.584 59.785-39.893 8.35-16.002-4.75-28.422-17.533-36.386-20.388-12.702-43.435-20.827-64.758-31.781-20.494-10.528-44.124-24.103-53.552-46.371-12.675-29.934 8.79-59.84 26.199-82.523 31.288-40.769 60.209-83.375 87.179-127.111 28.297-45.889 54.51-93.157 77.428-141.97 20.191-43.004 38.342-87.487 49.926-133.652 13.779-54.909 23.431-140.048-45.074-161.897-4.075-1.3-8.628-1.8-12.455-3.683-5.188-2.552-10.001-6.131-15.148-8.834-9.893-5.196-20.229-9.575-30.808-13.168-21.904-7.441-44.873-11.431-67.905-13.169-49.637-3.745-99.586 2.678-148.469 10.895-49.226 8.275-98.031 19.288-147.543 25.815-39.085 5.153-81.94 8.944-119.771-4.796-21.357-7.758-40.359-22.285-60.11-33.318-24.691-13.795-49.922-26.621-75.564-38.552-54.017-25.135-109.86-46.413-166.905-63.597-116.076-34.966-239.401-54.485-360.705-43.813-55.548 4.886-110.539 16.431-162.568 36.693-3.336 1.298-1.884 6.741 1.498 5.424z" fill="url(#i)"/><path d="m664.976 507.817c118.064-41.339 246.526-45.492 369.79-30.568 123.334 14.933 245.29 49.043 358.645 99.866 12.624 5.66 25.147 11.548 37.549 17.683 9.794 4.845 19.345 10.412 29.481 14.522 17.018 6.9 35.506 9.559 53.765 10.225 44.654 1.628 89.498-7.336 133.101-15.866 51.649-10.105 103.198-21.518 155.63-26.835 49.559-5.026 101.164-4.92 148.73 11.603 11.562 4.016 22.765 9.02 33.43 15.028 7.402 4.171 15.442 4.813 23.472 7.552 13.166 4.491 25.042 12.401 33.369 23.644 18.318 24.733 18.132 58.907 14.424 88.058-5.484 43.118-20.146 85.071-36.61 125.088-19.812 48.153-43.696 94.632-69.47 139.842-26.086 45.756-54.323 90.305-84.439 133.513-13.929 19.984-28.274 39.682-43.127 58.989-10.392 13.508-21.064 26.791-27.026 42.972-19.277 52.322 36.888 79.608 76.81 94.939 25.406 9.757 51.621 17.337 76.849 27.563 13.709 5.557 38.79 14.565 41.538 31.795 3.242 20.334-23.748 35.884-38.365 43.464-31.733 16.458-66.31 27.311-99.383 40.693-84.369 34.138-165.672 82.19-208.56 165.948-13.013 25.414-24.217 51.108-40.062 75.027-14.709 22.205-31.692 42.873-50.686 61.548-36.56 35.942-80.383 64.017-127.743 83.504-91.926 37.823-195.305 44.745-292.919 29.4-21.55-3.387-42.489-6.443-64.391-6.121-23.035.338-45.996 2.984-68.716 6.68-51.223 8.332-101.439 21.977-151.661 34.829-51.98 13.301-104.297 26.465-157.615 33.17-48.894 6.147-99.689 7.016-147.35-7.133-44.101-13.093-83.242-39.913-111.742-76.006-25.985-32.909-41.424-72.593-49.499-113.469-18.567-93.993-4.309-192.769 7.889-286.642 13.025-100.243 29.322-201.93 21.998-303.305-3.316-45.891-11.927-91.749-29.919-134.274-10.663-25.205-19.84-50.072-24.127-77.244-4.227-26.791-4.273-54.238-.747-81.111 14.743-112.363 87.879-212.596 174.376-282.184 39.991-32.17 84.849-59.15 133.312-76.387 3.388-1.206 1.928-6.646-1.496-5.427-101.958 36.265-191.264 113.103-249.783 203.321-30.069 46.356-52.67 98.485-61.004 153.344-8.195 53.939-1.661 108.842 20.365 158.856 40.106 91.066 38.952 192.442 30.026 289.746-9.431 102.794-29.155 204.637-33.903 307.862-3.926 85.353 2.678 178.786 56.967 248.891 27.635 35.686 65.576 62.892 108.426 77.139 46.4 15.427 96.416 16.118 144.615 10.997 106.367-11.302 207.399-49.251 312.373-67.846 23.992-4.25 48.247-7.402 72.624-8.082 22.97-.642 44.875 2.269 67.488 5.824 49.016 7.705 98.977 9.812 148.424 5.459 99.673-8.775 197.949-44.682 271.614-113.945 40.044-37.652 69.67-83.058 92.499-132.794 21.224-46.241 55.189-84.862 96.418-114.357 36.439-26.067 77.253-45.103 118.713-61.683 32.695-13.075 66.915-23.839 98.067-40.442 16.192-8.629 39.638-23.834 39.304-44.955-.283-17.903-20.631-28.245-34.572-34.667-24.226-11.158-50.06-18.574-75.115-27.584-24.361-8.761-50.64-18.335-70.452-35.584-18.386-16.008-23.781-37.331-14.371-60.022 7.088-17.092 19.54-31.139 30.606-45.71 15.113-19.9 29.712-40.192 43.875-60.778 59.653-86.704 114.219-179.047 152.963-277.137 15.543-39.352 29.07-80.608 33.178-122.926 2.798-28.834 1.12-61.544-17.417-85.326-8.272-10.613-19.424-18.316-31.927-23.149-7.679-2.969-16.62-3.476-23.813-7.243-10.462-5.477-20.789-10.783-31.881-14.915-46.835-17.445-98.174-18.59-147.416-14.179-52.002 4.66-103.169 15.58-154.302 25.724-45.963 9.118-93.111 19.141-140.225 17.741-18.958-.563-38.302-3.253-55.811-10.885-24.479-10.67-47.882-23.901-72.387-34.648-55.563-24.368-112.962-44.545-171.434-60.706-122.651-33.899-251.931-51.453-379.146-40.989-59.037 4.856-117.617 16.05-173.585 35.646-3.397 1.189-1.936 6.628 1.496 5.427z" fill="url(#j)"/><path d="m671.342 523.158c126.666-39.412 262.265-45.053 393.602-32.025 126.281 12.526 252.194 42.302 369.557 90.873 18.142 7.508 35.921 12.048 55.604 13.079 21.124 1.106 42.328-.822 63.245-3.681 51.188-6.996 101.426-19.738 152.076-29.68 52.922-10.388 107.155-18.914 161.244-15.336 25.461 1.684 50.814 6.3 74.793 15.166 10.984 4.06 21.714 11.699 33.168 13.569 7.639 1.247 15.228 3.188 22.379 6.175 67.017 28 44.214 122.217 27.7 174.708-30.688 97.548-83.021 188.878-137.895 274.604-27.089 42.319-55.753 83.668-86.197 123.645-16.481 21.641-41.17 46.498-37.716 76.317 2.417 20.873 19.536 35.319 36.711 45.131 24.248 13.853 51.696 21.979 78.402 29.587 28.266 8.053 56.928 14.874 84.834 24.149 18.29 6.079 43.17 13.562 54.627 30.481 11.378 16.804-3.367 35.803-16.647 46.133-25.189 19.594-57.487 30.428-86.685 42.386-81.173 33.247-163.119 71.901-215.689 145.294-15.702 21.922-26.247 45.652-37.124 70.15-11.351 25.567-25.186 50.049-41.598 72.715-30.111 41.585-69.009 76.35-113.585 101.798-87.663 50.047-192.33 62.9-291.483 51.294-25.637-3.001-51.077-7.704-76.125-13.927-21.574-5.359-42.483-10.492-64.758-12.015-48.007-3.284-96.381 3.759-143.492 12.4-104.392 19.149-208.914 51.744-315.984 49.797-48.737-.887-97.909-10.391-140.103-35.784-39.206-23.594-70.368-59.152-89.932-100.39-41.137-86.714-34.114-189.886-24.247-282.615 11.271-105.924 31.874-211.16 34.59-317.871 1.218-47.843-1.319-96.273-12.545-142.944-5.921-24.616-16.307-47.737-22.393-72.264-6.829-27.529-8.972-56.056-6.807-84.321 8.895-116.161 85.793-219.932 175.234-289.489 42.933-33.388 91.268-60.667 143.236-77.11 3.441-1.088 1.971-6.524-1.496-5.427-108.02 34.178-204.294 113.089-264.716 208.268-29.864 47.042-51.356 100.162-57.17 155.855-2.827 27.08-1.741 54.533 3.518 81.259 5.108 25.96 15.974 49.969 22.801 75.426 26.88 100.225 13.654 208.057.545 309.355-13.399 103.536-32.923 208.644-26.194 313.447 2.873 44.739 11.222 89.679 30.402 130.473 18.97 40.344 48.932 75.317 86.44 99.536 86.258 55.699 196.738 43.21 292.534 25.664 54.249-9.936 107.891-22.863 162.053-33.235 48.953-9.374 99.122-17.368 149.126-14.677 23.402 1.26 45.232 6.469 67.859 12.093 24.191 6.012 48.737 10.558 73.474 13.627 50.398 6.254 101.663 6.155 151.89-1.612 99.922-15.452 193.141-63.838 255.404-144.697 16.947-22.008 31.402-45.859 43.372-70.918 11.752-24.604 21.15-49.674 36.299-72.553 27.096-40.921 64.881-73.146 106.75-98.222 37.2-22.279 77.236-38.956 117.269-55.351 28.555-11.695 59.887-22.571 84.209-42.146 13.613-10.956 27.293-29.878 19.02-47.956-8.137-17.783-30.757-26.501-47.743-32.896-54.561-20.54-114.466-27.163-166.862-53.523-18.175-9.144-39.239-23.033-41.685-45.16-1.305-11.799 2.929-23.468 8.565-33.635 9.645-17.396 23.607-32.503 35.507-48.364 63.399-84.508 120.77-174.631 167.603-269.396 21.261-43.022 40.615-87.456 53.867-133.657 9.764-34.039 17.485-71.227 11.525-106.665-4.567-27.153-19.66-50.458-45.441-61.55-7.023-3.021-14.39-5.116-21.908-6.479-10.802-1.958-20.147-8.009-30.374-12.066-23.195-9.202-47.828-14.273-72.63-16.549-107.723-9.882-212.232 28.349-317.518 43.732-22.299 3.259-44.978 5.479-67.532 4.297-21.031-1.102-39.118-6.762-58.448-14.663-57.02-23.305-115.972-41.873-175.785-56.523-130.4-31.937-266.68-46.379-400.726-35.401-62.767 5.141-125.123 16.135-185.302 34.859-3.449 1.076-1.978 6.511 1.495 5.43z" fill="url(#k)"/><path d="m677.706 538.501c136.079-37.083 279.336-45.527 419.65-35.871 68.783 4.733 137.286 14.027 204.776 28.154 30.916 6.471 61.622 13.973 91.996 22.645 22.459 6.412 44.399 15.223 67.81 17.371 46.089 4.228 93.393-6.823 138.104-16.654 55.278-12.156 110.343-26.118 166.617-32.973 54.196-6.602 111.088-6.985 162.831 12.615 6.18 2.34 12.189 6.041 18.445 8.007 3.96 1.244 8.552 1.207 12.669 1.992 7.629 1.456 15.187 3.607 22.254 6.857 12.232 5.626 22.666 14.389 29.74 25.897 16.553 26.929 14.486 62.032 9.386 91.919-7.382 43.253-23.05 85.067-40.595 125.115-42.263 96.47-98.172 187.289-158.361 273.506-14.379 20.596-29.122 40.941-44.274 60.976-11.693 15.461-25.279 30.182-35.208 46.883-10.43 17.543-14.977 38.648-2.627 56.446 12.723 18.338 35.518 28.234 55.705 35.772 28.667 10.705 58.717 17.547 88.514 24.257 30.655 6.905 61.517 13.171 91.75 21.802 22.139 6.321 47.785 13.514 65.148 29.524 14.344 13.229 14.085 31.371 2.73 46.72-16.91 22.857-47.845 35.054-72.901 46.236-77.972 34.799-158.955 66.49-218.071 130.895-16.377 17.843-30.626 37.652-42.136 58.968-13.275 24.585-21.491 51.375-33.913 76.371-23.749 47.793-57.132 90.557-99.182 123.586-80.346 63.11-184.789 85.149-285.21 78.714-52.238-3.348-103.944-14.153-153.488-30.956-21.247-7.206-41.912-13.633-64.245-16.616-23.283-3.11-46.848-3.602-70.296-2.652-107.353 4.347-211.813 34.414-318.468 45.23-51.178 5.19-103.79 6.618-154.308-4.575-48.216-10.682-92.193-33.957-126.124-70.122-68.164-72.65-77.983-176.912-73.66-271.904 5.028-110.452 27.743-219.144 38.48-329.036 5.063-51.817 7.788-104.29 2.652-156.214-2.299-23.237-6.185-46.368-12.469-68.873-7.724-27.668-13.332-54.736-13.024-83.64 1.29-120.94 82.873-229.719 176.238-299.446 45.958-34.319 97.675-61.56 153.066-76.928 3.485-.967 2.005-6.398-1.496-5.427-113.967 31.619-217.588 111.984-279.866 212.128-29.994 48.23-50.667 103.247-53.302 160.351-1.319 28.574 2.07 57.293 10.105 84.749 7.014 23.969 12.036 48.19 14.703 73.041 11.688 108.879-8.913 219.384-23.79 326.934-14.157 102.351-30.213 211.086-6.138 313.199 10.547 44.739 30.312 87.147 61.234 121.471 32.561 36.144 75.161 60.745 122.145 72.817 49.198 12.64 100.869 12.706 151.181 8.447 55.324-4.684 110.032-14.721 164.655-24.359 52.968-9.347 106.2-18.886 159.991-21.822 24.279-1.325 48.72-1.248 72.898 1.56 23.416 2.721 45.102 9.191 67.312 16.764 96.848 33.021 204.172 44.082 304.214 19.089 100.378-25.077 185.192-88.919 234.576-180.181 13.684-25.288 22.39-52.506 34.946-78.253 11.284-23.14 25.681-44.698 42.711-64.002 31.449-35.646 70.92-62.87 112.743-84.961 35.992-19.011 73.796-34.012 110.872-50.693 25.032-11.262 54.674-23.647 71.683-46.322 11.169-14.89 14.005-34.317 1.646-49.314-13.914-16.884-37.669-25.004-57.756-31.505-60.226-19.491-123.788-26.544-183.864-46.607-21.667-7.236-47.332-16.504-61.938-35.177-14.539-18.587-7.069-40.785 4.996-58.539 12.051-17.736 26.384-34.122 39.207-51.323 15.449-20.726 30.478-41.764 45.123-63.066 30.796-44.793 59.965-90.743 86.962-137.929 26.004-45.451 50.148-92.118 70.196-140.525 16.157-39.011 30.377-79.818 35.659-121.899 3.636-28.974 3.227-62.132-14.193-87.011-7.563-10.801-17.97-19.152-29.953-24.597-6.944-3.155-14.255-5.403-21.725-6.916-3.698-.75-7.469-1.043-11.162-1.756-6.261-1.207-12.261-4.964-18.23-7.325-50.719-20.054-106.887-20.736-160.399-14.813-56.59 6.264-111.966 19.93-167.44 32.29-46.699 10.404-96.074 22.573-144.272 18.151-25.287-2.32-49.384-12.475-73.689-19.252-30.583-8.528-61.49-15.883-92.601-22.21-137.509-27.964-279.795-37.341-419.668-25.296-67.424 5.806-134.448 16.859-199.77 34.659-3.49.955-2.007 6.386 1.497 5.431z" fill="url(#l)"/><path d="m684.072 553.844c142.851-33.459 290.546-46.614 437.112-43.305 69.717 1.574 139.43 6.98 208.417 17.255 31.887 4.749 63.38 11.029 94.93 17.578 21.168 4.393 43.008 4.473 64.497 2.994 56.361-3.88 111.875-17.095 167.223-27.693 62.197-11.911 125.357-22.544 188.905-21.187 29.648.633 60 3.584 88.556 11.943 16.126 4.721 31.641 12.287 43.929 23.92 24.05 22.771 30.257 56.442 28.64 88.289-2.147 42.321-15.929 83.864-31.723 122.845-19.722 48.677-44.528 95.274-71.152 140.486-28.221 47.924-58.861 94.416-90.968 139.818-29.147 41.217-60.258 80.763-90.99 120.773-12.02 15.648-23.105 36.435-15.233 56.4 7.311 18.543 26.976 29.42 44.277 36.944 26.604 11.571 55.26 18.255 83.537 24.285 32.849 7.005 65.968 12.65 98.937 19.041 30.303 5.874 60.799 12.041 90.124 21.829 19.893 6.639 44.072 15.435 56.741 33.322 11.957 16.881 5.339 37.737-7.73 51.884-20.139 21.802-50.207 34.307-76.65 46.44-77.513 35.567-157.497 69.974-214.694 135.884-15.656 18.041-29.215 37.886-40.155 59.126-12.825 24.901-20.44 51.868-32.042 77.3-21.828 47.847-53.002 91.282-93.282 125.297-77.354 65.324-180.349 88.624-279.739 82.271-52.553-3.359-104.512-14.631-154.215-31.896-23.842-8.282-46.522-19.666-70.459-27.556-20.937-6.9-42.744-10.89-64.651-13.078-50.469-5.041-101.549-.746-151.738 5.251-54.151 6.47-107.963 15.468-162.095 22.091-98.407 12.041-210.643 20.512-298.455-34.724-41.664-26.208-73.859-65.442-93.684-110.306-20.501-46.392-27.962-97.593-29.51-147.952-3.474-112.994 19.593-225.167 34.804-336.608 7.256-53.163 13.435-106.717 13.682-160.438.113-24.457-1.07-48.945-4.345-73.194-3.559-26.36-10.661-51.817-11.241-78.578-2.669-123.367 82.866-233.691 179.132-301.995 48.598-34.484 103.236-60.895 161.307-74.757 3.521-.841 2.031-6.269-1.496-5.427-118.144 28.204-227.773 107.449-292.452 210.172-30.603 48.604-51.202 104.575-52.148 162.439-.448 27.352 5.719 52.891 10.003 79.656 4.031 25.19 5.527 50.754 5.615 76.245.391 113.302-24.011 225.319-38.127 337.299-12.842 101.872-23.079 214.24 17.925 311.366 18.785 44.496 49.332 83.785 89.185 111.324 39.928 27.592 87.252 41.357 135.099 46.673 108.611 12.07 218.189-12.768 325.494-26.272 51.281-6.453 103.391-11.466 155.076-7.352 23.176 1.845 46.263 5.704 68.459 12.731 24.187 7.658 47.027 19.251 70.984 27.668 96.165 33.784 203.373 46.062 302.915 19.89 98.913-26.006 180.177-92.007 226.11-183.405 12.939-25.748 20.948-53.319 32.956-79.413 10.785-23.436 24.625-45.45 41.147-65.267 30.009-35.992 67.973-64.116 108.589-87.06 35.823-20.236 73.66-36.316 110.974-53.512 26.357-12.146 56.078-24.846 76.031-46.725 12.985-14.239 20.533-34.933 11.367-53.187-9.291-18.502-30.715-28.645-48.979-35.897-27.926-11.089-57.661-17.558-87.019-23.551-33.663-6.872-67.549-12.591-101.229-19.37-29.982-6.035-60.301-12.511-88.937-23.468-18.319-7.01-41.629-17.282-49.857-36.649-9.886-23.271 9.62-46.095 23.024-63.001 32.339-40.788 63.438-82.575 93.161-125.308 61.146-87.912 119.967-180.891 157.927-281.499 22.5-59.634 50.164-152.996-6.127-203.304-12.298-10.991-27.313-18.411-43.014-23.189-27.296-8.306-56.608-11.421-85.024-12.415-63.543-2.224-126.911 7.964-189.143 19.719-57.463 10.855-115.047 24.952-173.534 28.978-23.584 1.623-46.646.778-69.766-4.282-31.929-6.988-64.14-12.675-96.494-17.304-142.314-20.363-287.719-21.8-430.668-7.307-70.474 7.145-140.544 18.417-209.525 34.573-3.524.825-2.032 6.253 1.497 5.427z" fill="url(#m)"/><path d="m690.437 569.185c153.183-30.066 308.892-49.767 465.013-54.306 71.586-2.081 143.373-.897 214.728 5.508 27.256 2.446 54.216 7.014 81.652 5.692 25.657-1.236 51.156-5.321 76.378-10.014 62.614-11.652 124.399-27.4 187.36-37.251 63.71-9.969 131.417-15.603 194.813-.496 32.286 7.693 60.962 26.192 72.938 58.272 12.571 33.673 7.364 71.993-1.029 105.985-11.512 46.628-31.057 91.155-52.64 133.906-24.676 48.876-52.846 95.962-82.644 141.87-29.881 46.036-61.535 90.919-94.43 134.847-15.568 20.79-31.427 41.362-47.579 61.703-9.347 11.771-19.888 23.175-26.213 36.979-20.511 44.764 29.215 67.456 64.062 78.348 64.148 20.05 132.356 26.48 198.386 37.685 32.689 5.546 65.486 11.569 97.322 20.968 23.039 6.801 48.44 15.282 66.296 32.112 14.63 13.789 19.005 33.283 10.174 51.705-11.953 24.936-40.499 39.679-63.891 51.769-34.461 17.809-70.293 32.81-104.718 50.709-39.556 20.567-77.676 44.574-110.23 75.254-35.811 33.748-63.454 75.116-80.3 121.394-10.157 27.904-19.54 55.47-33.699 81.72-12.792 23.718-28.077 46.096-45.951 66.282-67.218 75.918-165.342 111.869-265.281 113.156-53.319.686-106.535-7.687-157.665-22.57-27.072-7.88-53.62-17.588-79.417-28.962-22.861-10.078-44.572-22.768-68.164-31.123-45.24-16.023-94.113-19.676-141.776-19.092-54.194.665-108.168 6.913-161.953 13.081-55.236 6.335-110.563 13.022-166.184 14.698-51.68 1.557-104.382-1.071-154.185-16-48.274-14.471-91.358-41.491-123.666-80.382-33.263-40.042-52.441-89.315-61.61-140.172-9.979-55.352-9.044-112.283-4.509-168.141 4.895-60.316 14.38-120.15 23.888-179.876 9.029-56.716 18.396-113.477 23.729-170.688 2.487-26.669 4.076-53.455 3.875-80.249-.191-25.378-3.963-50.139-5.522-75.378-7.793-126.202 82.046-238.832 181.362-305.971 51.751-34.985 109.938-60.687 171.281-72.97 3.549-.71 2.046-6.137-1.496-5.427-123.229 24.673-240.147 103.253-307.303 209.841-30.956 49.132-51.144 106.26-49.875 164.837.57 26.272 5.346 52.235 5.842 78.579.509 26.997-.895 54.007-3.26 80.894-10.513 119.509-38.429 236.785-48.148 356.405-8.441 103.895-4.486 219.676 62.331 305.524 30.622 39.344 71.853 68.113 118.855 84.476 48.046 16.727 99.639 21.079 150.214 20.675 112.003-.894 222.318-24.767 334.182-27.885 49.911-1.391 101.121 1.289 148.776 17.38 24.867 8.397 47.583 21.781 71.562 32.299 25.204 11.055 51.067 20.613 77.466 28.404 97.875 28.884 206.795 34.791 303.197-2.941 45.069-17.64 86.096-44.69 119.489-79.783 37.62-39.537 64.615-87.982 82.341-139.395 9.173-26.607 19.18-52.174 34.096-76.185 13.244-21.319 29.197-40.843 47.161-58.355 32.92-32.094 71.976-56.903 112.586-78.077 35.097-18.299 71.69-33.529 106.797-51.787 23.469-12.206 50.966-27.046 63.784-51.44 9.3-17.701 8.243-38.391-4.459-54.047-14.568-17.957-38.131-27.585-59.382-34.904-64.917-22.358-134.991-29.171-202.413-40.272-32.716-5.386-65.569-11.047-97.536-19.982-22.044-6.161-47.254-13.69-64.157-30.013-14.432-13.937-14.062-31.844-4.694-48.694 9.206-16.557 22.963-30.805 34.587-45.658 15.778-20.162 31.287-40.535 46.507-61.121 65.97-89.234 128.759-182.607 176.718-282.928 19.922-41.673 37.849-85.273 46.918-130.737 6.536-32.765 9.011-69.032-5.044-100.273-13.586-30.198-42.066-47.882-73.392-55.513-61.864-15.07-127.923-10.191-190.259-.968-64.221 9.501-127.167 25.501-190.893 37.616-26.976 5.129-54.247 9.667-81.724 10.812-28.148 1.172-55.982-3.741-83.955-6.165-150.612-13.059-303.059-4.605-452.869 13.669-75.088 9.16-149.82 21.144-224.047 35.713-3.551.697-2.047 6.122 1.496 5.427z" fill="url(#n)"/><path d="m696.803 584.528c163.264-25.903 326.351-54.91 491.047-70.332 38.977-3.649 78.036-6.493 117.153-8.11 35.092-1.45 70.068-.907 105.162-1.067 56.066-.254 112.079-16.352 166.237-29.132 67.816-16.002 136.257-31.853 206.04-35.823 34.495-1.962 69.486-1.126 103.535 5.141 17.674 3.253 35.143 8.934 50.068 19.167 64.333 44.107 35.259 141.259 12.851 200.142-38.525 101.228-98.658 194.588-160.32 283.05-30.943 44.393-63.245 87.841-96.652 130.408-12.293 15.665-26.147 30.661-37.16 47.262-5.385 8.118-9.892 17.286-10.908 27.092-4.6 44.415 63.569 59.015 94.662 66.216 70.027 16.218 142.154 22.367 213.118 33.153 34.575 5.256 69.204 11.143 103.01 20.22 25.795 6.925 52.942 15.468 74.617 31.633 16.427 12.252 27.35 30.038 23.737 51.078-4.6 26.793-29.452 44.415-51.141 57.48-32.153 19.369-66.958 34.137-100.45 50.969-39.495 19.849-78.064 41.94-112.362 70.01-37.856 30.981-69.455 69.254-90.487 113.56-12.003 25.286-18.756 52.243-28.708 78.297-10.354 27.105-23.472 53.198-39.609 77.332-57.719 86.326-151.823 135.846-254.317 144.395-110.021 9.177-221.175-23.328-317.148-75.65-21.757-11.861-42.608-23.953-66.175-32-22.761-7.772-46.399-12.694-70.22-15.818-53.147-6.968-107.117-5.19-160.453-1.582-110.64 7.485-223.29 26.709-334.116 12.015-49.931-6.62-99.351-21.542-140.922-50.702-44.498-31.212-76.974-77.138-95.699-127.848-19.74-53.455-25.249-111.107-24.598-167.747.714-62.237 8.752-124.192 18.507-185.576 9.694-61.007 21.417-121.676 30.817-182.731 8.242-53.528 15.304-107.867 13.769-162.142-1.712-60.526 15.793-116.967 48.404-167.864 35.233-54.99 84.469-100.708 139.465-135.53 54.483-34.498 115.513-58.647 179.245-68.966 3.566-.577 2.053-6.002-1.496-5.427-127.078 20.575-250.112 96.442-320.675 204.913-31.864 48.982-52.455 106.307-50.831 165.262 1.546 56.098-4.628 111.63-13.121 167.017-18.821 122.738-48.083 245.078-49.701 369.79-1.407 108.428 23.259 224.875 113.525 294.669 84.117 65.041 197.929 67.188 299.389 61.519 111.741-6.244 224.777-26.796 336.788-14.837 25.279 2.699 50.433 7.383 74.679 15.114 24.894 7.938 46.704 20.266 69.487 32.734 50.115 27.426 103.624 49.048 159.141 62.697 98.751 24.276 207.529 23.477 299.599-23.74 44.506-22.824 82.924-56.092 112.543-96.339 16.52-22.448 30.231-46.887 41.365-72.42 11.672-26.768 18.545-55.138 29.716-82.051 19.854-47.831 51.792-89.282 91.265-122.584 35.01-29.537 74.977-52.408 115.773-72.91 34.08-17.127 69.58-32.086 102.173-52.014 21.498-13.145 45.05-30.573 51.305-56.452 12.382-51.223-46.328-76.182-85.23-88.264-69.158-21.478-142.682-28.36-214.136-38.168-35.272-4.841-70.607-9.788-105.471-17.09-26.321-5.512-54.065-11.807-77.665-25.215-14.835-8.429-28.61-21.562-25.483-40.109 1.835-10.884 8.113-20.75 14.766-29.32 14.621-18.832 29.831-37.209 44.423-56.07 68.289-88.269 133.116-180.101 187.441-277.712 24.641-44.273 47.355-90.059 63.953-138.014 12.641-36.521 23.037-76.398 19.359-115.379-2.885-30.573-16.286-58.562-42.446-75.72-14.938-9.797-32.303-15.418-49.764-18.632-33.115-6.094-67.075-7.24-100.646-5.574-69.911 3.469-138.56 18.975-206.475 34.972-55.977 13.185-114.114 30.465-172.093 30.216-75.987-.326-151.374 2.532-227.052 9.807-81.238 7.81-162.12 18.993-242.793 31.246-81.124 12.321-162.067 25.799-243.107 38.656-3.566.567-2.052 5.992 1.497 5.429z" fill="url(#o)"/><path d="m702.42 599.971c168.123-20.397 332.901-59.993 499.536-89.193 39.985-7.006 80.095-13.366 120.378-18.404 32.741-4.095 65.896-5.537 98.491-10.592 63.975-9.923 126.169-30.17 188.998-45.334 71.387-17.229 144.963-31.096 218.728-27.153 39.638 2.118 86.319 7.935 111.863 42.374 20.093 27.089 20.767 63.405 15.987 95.446-6.644 44.523-23.378 87.439-42.097 128.126-46.908 101.954-110.267 196.476-176.16 286.979-30.926 42.478-62.953 84.158-95.952 125.045-13.14 16.28-32.672 36.163-28.068 59.313 3.479 17.494 20.293 28.353 35.307 35.368 25.028 11.696 52.746 17.567 79.754 22.599 74.245 13.832 149.82 19.552 224.615 29.585 37.26 4.998 74.539 10.714 111.14 19.407 28.947 6.876 58.628 15.33 84.399 30.609 18.077 10.717 35.177 26.362 38.245 48.215 3.747 26.688-13.089 48.282-33.032 63.751-28.06 21.766-61.478 36.532-93.082 52.277-39.191 19.523-78.165 39.782-113.927 65.203-39.248 27.898-74.175 61.885-99.937 102.774-14.144 22.449-25.394 46.686-33.721 71.869-9.664 29.225-17.738 58.329-31.088 86.232-23.231 48.553-56.759 92.232-100.114 124.462-40.236 29.911-87.352 49.183-136.529 58.334-110.086 20.484-225.394-7.439-324.55-55.834-49.011-23.92-92.422-58.315-144.707-75.149-49.206-15.844-101.494-20.444-152.935-21.144-114.612-1.561-228.664 16.609-343.307 12.721-52.616-1.784-105.993-8.382-155.301-27.7-49.732-19.484-92.097-52.784-122.134-97.024-69.751-102.732-65.358-236.799-50.088-354.692 16.051-123.933 50.324-245.006 63.74-369.274 3.094-28.664 4.196-56.921 12.32-84.809 8.492-29.152 21.858-56.717 38.375-82.147 36.219-55.762 87.282-101.442 144.036-135.592 58.158-34.995 123.4-58.299 190.819-66.646 3.548-.439 3.592-6.073 0-5.628-130.772 16.189-259.56 87.876-334.67 197.465-17.047 24.873-31.091 51.903-40.686 80.522-9.193 27.421-11.903 54.833-14.487 83.417-5.448 60.252-17.519 119.804-29.207 179.087-24.919 126.382-54.384 257.019-42.357 386.608 5.341 57.55 20.108 114.936 50.785 164.418 27.549 44.436 66.708 79.941 114.14 102.061 98.988 46.164 215.784 38.289 321.803 31.619 58.336-3.671 116.678-8.436 175.159-8.841 54.483-.378 109.896 2.778 162.502 17.958 24.188 6.979 47.622 16.621 69.217 29.619 25.95 15.62 51.318 31.66 78.469 45.212 52.407 26.157 108.18 46.124 165.801 57.002 100.295 18.935 209.35 9.572 295.628-48.884 42.96-29.106 77.721-68.825 102.767-114.147 14.385-26.031 25.682-53.732 34.346-82.164 8.556-28.078 17.594-55.221 31.911-81.008 47.886-86.247 132.056-136.769 217.691-179.501 32.223-16.08 66.119-31.056 94.981-52.904 20.219-15.304 37.777-35.909 37.491-62.609-.561-52.429-64.999-74.203-106.181-85.731-73.594-20.602-150.881-27.495-226.539-36.349-38.185-4.469-76.414-8.899-114.34-15.257-29.191-4.893-59.024-10.457-86.614-21.502-15.695-6.282-36.539-16.346-40.354-34.742-5.189-25.023 22.38-49.237 35.906-66.16 69.88-87.421 136.264-178.176 194.515-273.81 28.443-46.697 55.098-94.752 76.81-144.985 17.126-39.62 32.174-81.439 36.497-124.651 3.118-31.162-.224-64.983-20.425-90.25-25.238-31.568-67.359-38.752-105.335-41.586-73.114-5.456-146.535 7.343-217.481 23.956-64.757 15.165-128.558 35.907-194.198 47.068-33.688 5.728-68.092 7.058-102.002 11.268-39.069 4.852-77.981 10.917-116.77 17.636-84.274 14.599-167.993 32.179-251.943 48.491-83.858 16.294-168 31.382-252.832 41.674-3.551.431-3.594 6.064 0 5.628z" fill="url(#p)"/><path d="m708.785 615.314c167.709-14.116 328.74-63.647 490.49-107.067 38.466-10.326 77.049-20.253 115.901-29.031 34.185-7.724 68.897-13.084 102.939-21.382 68.844-16.782 135.873-40.236 204.816-56.737 73.856-17.677 153.793-31.407 229.681-19.424 33.227 5.247 65.628 20.157 80.571 51.986 15.163 32.297 10.371 71.232 2.435 104.747-11.051 46.674-30.645 91.205-52.18 133.887-51.933 102.935-117.972 198.841-186.84 291.054-31.115 41.663-63.52 82.241-96.144 122.719-10.958 13.597-22.06 31.73-14.986 49.668 6.747 17.11 25.905 26.338 41.927 32.619 27.215 10.668 56.572 15.957 85.32 20.547 78.428 12.521 157.878 17.721 236.719 26.944 39.736 4.649 79.464 10.016 118.676 18.041 32.52 6.655 65.487 14.833 95.63 29.049 21.048 9.926 43.007 23.783 53.363 45.525 11.019 23.133 4.916 49.303-11.443 68.154-21.662 24.963-53.498 40.619-82.327 55.613-38.464 20.005-77.504 38.935-114.258 62.038-40.951 25.74-79.109 56.506-109.268 94.561-16.284 20.548-30.168 42.918-41.165 66.725-12.392 26.824-19.1 54.983-28.053 82.987-17.556 54.913-45.654 106.887-86.472 148.019-36.442 36.722-81.916 63.268-131.416 78.08-108.127 32.356-226.2 10.684-327.918-32.975-28.907-12.407-56.949-26.822-84.006-42.861-25.763-15.273-49.481-33.889-75.537-48.585-44.167-24.91-94.088-37.358-144.087-43.6-115.424-14.411-232.286.725-348.019 2.046-104.792 1.197-222.874-6.037-305.506-78.666-96.945-85.209-112.863-224.408-104.109-345.741 9.711-134.591 47.478-264.637 75.603-396.018 5.932-27.713 9.514-56.273 17.791-83.406 9.044-29.646 23.175-57.59 40.557-83.201 38.206-56.293 91.768-101.586 150.923-134.621 61.54-34.368 130.151-55.664 200.39-61.696 3.582-.307 3.614-5.939 0-5.628-135.766 11.662-271.868 80.338-351.687 192.646-17.351 24.413-31.732 51.036-41.747 79.295-9.942 28.051-13.775 57.639-19.86 86.66-13.365 63.739-29.459 126.872-43.378 190.488-28.269 129.203-54.397 269.404-22.503 400.41 13.947 57.288 40.81 112.745 83.054 154.541 36.232 35.845 82.394 59.045 131.288 72.239 110.207 29.74 228.365 17.382 340.865 12.711 109.683-4.556 232.127-10.099 332.038 43.351 25.889 13.85 49.098 32.259 74.182 47.49 27.718 16.83 56.5 31.929 86.199 44.958 53.123 23.303 109.226 40.142 166.862 47.385 102.715 12.908 210.913-7.793 289.945-78.022 41.386-36.776 71.686-84.283 91.919-135.561 11.584-29.359 17.788-60.345 29.062-89.77 10.098-26.358 23.607-51.376 40.123-74.268 56.98-78.976 143.909-122.054 228.097-165.634 44.693-23.136 121.461-60.012 102.449-123.433-6.708-22.375-25.28-38.394-44.88-49.697-27.318-15.754-58.372-24.851-88.87-32.098-78.805-18.725-160.284-25.425-240.69-33.563-39.901-4.038-79.843-8.01-119.551-13.702-31.151-4.464-62.728-9.566-92.669-19.535-16.954-5.645-40.125-14.098-47.943-31.903-9.126-20.784 10.651-41.275 22.513-55.851 70.912-87.137 138.363-177.504 198.844-272.226 30.8-48.237 59.893-97.759 84.673-149.385 20.195-42.075 38.504-86.238 47.11-132.313 6.005-32.157 7.717-68.146-8.108-97.921-16.019-30.14-47.859-45.025-80.29-50.457-72.989-12.222-150.311-.106-221.678 16.171-70.962 16.185-139.767 40.032-210.263 57.901-33.724 8.547-68.16 13.859-102.12 21.382-39.924 8.843-79.556 18.955-119.055 29.517-81.118 21.691-161.745 45.248-243.365 65.035-82.452 19.988-165.946 36.032-250.566 43.154-3.583.304-3.616 5.935 0 5.631z" fill="url(#q)"/><path d="m715.151 630.655c168.307-7.94 325.841-68.481 482.233-125.963 149.536-54.963 303.848-99.751 460.088-131.312 45.419-9.174 91.158-16.909 137.186-22.305 24.047-2.819 48.937-6.385 73.021-1.803 28.244 5.373 49.129 22.972 55.964 51.284 8.305 34.404-.589 72.217-10.438 105.308-14.026 47.116-34.549 92.238-56.766 135.989-52.477 103.339-116.233 201.135-183.802 295.159-30.088 41.869-61.18 83.047-93.703 123.057-12.307 15.139-30.467 33.913-25.139 55.492 4.281 17.341 22.296 27.243 37.47 33.635 26.495 11.159 55.493 16.402 83.739 20.896 80.705 12.838 162.636 17.296 243.918 25.082 80.136 7.676 162.923 15.28 239.753 40.744 45.626 15.122 111.539 47.468 97.335 106.869-7.077 29.595-34.561 49.382-58.908 64.605-34.92 21.835-72.495 39.201-108.538 59.053-41.862 23.058-82.496 48.922-117.73 81.428-38.969 35.952-69.89 79.669-89.452 129.03-11.852 29.908-17.663 61.589-28.28 91.902-10.086 28.798-23.167 56.594-39.663 82.289-29.518 45.979-70.211 84.029-118.95 108.933-101.491 51.858-222.787 42.702-327.969 7.471-61.887-20.729-120.464-50.896-174.572-87.271-25.169-16.92-48.429-36.664-75.054-51.338-22.975-12.663-47.523-22.362-72.691-29.685-112.018-32.592-232.662-23.357-347.753-20.524-58.541 1.442-117.342 2.315-175.711-3.234-54.206-5.154-109.09-16.106-157.909-41.09-116.767-59.758-160.866-192.063-164.311-315.942-4.014-144.277 35.319-286.992 76.263-424.011 8.888-29.743 17.305-59.738 26.987-89.231 9.884-30.109 24.95-58.377 43.298-84.161 40.291-56.62 96.206-101.405 157.6-133.322 65.684-34.144 138.581-53.473 212.482-57.032 3.605-.173 3.627-5.803 0-5.628-141.108 6.796-284.735 71.854-370.271 186.725-18.555 24.92-33.978 52.235-44.837 81.376-10.841 29.093-18.622 59.599-27.554 89.326-20.709 68.923-40.438 138.22-55.272 208.678-28.28 134.328-44.402 286.338 16.474 414.432 24.33 51.193 60.842 95.232 109.734 124.481 45.453 27.19 97.588 40.805 149.696 47.86 119.651 16.198 241.103 2.215 361.294 3.807 58.779.778 118.202 4.636 175.32 19.366 26.803 6.913 53.024 16.3 77.611 29.08 26.427 13.736 49.159 32.51 73.572 49.352 101.65 70.125 223.313 121.455 348.352 122.542 106.714.926 209.278-40.696 274.467-127.187 17.897-23.745 32.494-49.853 44.161-77.176 12.808-29.993 19.937-61.148 29.429-92.189 16.748-54.76 46.951-104.02 87.638-144.243 35.431-35.026 77.289-62.532 120.628-86.729 37.014-20.666 75.702-38.495 111.833-60.716 24.753-15.223 51.853-34.306 62.031-62.865 8.271-23.21 2.842-49.217-12.093-68.409-16.571-21.293-41.769-34.5-66.309-44.416-34.062-13.765-70.317-21.94-106.365-28.507-85.656-15.603-172.826-21.637-259.441-29.363-40.785-3.638-81.615-7.358-122.168-13.1-30.519-4.321-61.623-9.3-90.763-19.679-15.769-5.616-37.87-14.582-42.876-32.553-6.54-23.477 20.377-46.92 32.955-62.624 69.794-87.141 134.382-178.836 193.073-273.803 30.461-49.29 59.335-99.677 84.779-151.757 20.95-42.882 40.248-87.268 52.352-133.549 8.248-31.535 14.864-67.585 4.983-99.551-8.334-26.964-29.832-44.002-57.118-49.535-22.048-4.471-44.418-2.141-66.557.296-44.752 4.926-89.246 12.085-133.431 20.683-82.056 15.966-163 37.006-243.476 59.51-75.977 21.246-150.636 45.165-224.717 72.328-79.569 29.176-158.783 59.604-240.14 83.548-80.503 23.692-163.02 40.603-246.995 44.564-3.605.168-3.625 5.797.002 5.626z" fill="url(#r)"/><path d="m721.517 645.998c169.181-6.706 323.138-77.237 474.291-147.09 153.326-70.858 310.569-132.132 476.923-164.676 44.681-8.741 90.278-16.36 135.78-18.984 18.08-1.042 36.744-.235 54.02 5.646 28.749 9.788 44.247 34.399 47.16 63.843 3.796 38.396-7.55 77.881-20.067 113.746-17.301 49.568-40.594 97.001-65.588 143.089-56.59 104.35-123.377 203.329-194.048 298.596-29.991 40.428-61.792 79.262-92.925 118.778-10.34 13.124-19.635 30.815-11.198 47.281 8.525 16.638 29.106 24.818 45.726 30.456 28.925 9.809 59.609 14.492 89.781 18.535 85.395 11.441 171.696 15.384 257.496 22.707 84.576 7.218 171.176 14.847 252.886 39.114 49.54 14.712 120.258 42.58 121.084 104.374.42 31.342-21.665 54.751-45.45 72.173-32.248 23.621-68.906 40.983-103.955 59.939-89.285 48.29-174.421 107.369-220.36 201.089-13.609 27.764-22.441 56.795-29.802 86.733-7.933 32.268-18.892 63.872-33.789 93.609-25.408 50.717-62.485 95.37-110.237 126.426-96.122 62.515-217.841 61.805-324.899 31.482-64.217-18.19-125.228-46.879-181.754-82.198-30.767-19.224-59.688-40.742-88.129-63.215-21.038-16.624-44.125-30.415-68.576-41.401-106.159-47.694-228.46-46.49-342.516-45.559-61.378.501-122.825 1.968-184.165-.997-56.599-2.735-113.84-9.091-167.854-27.015-50.62-16.797-96.958-44.899-131.389-86.072-44.386-53.075-68.285-122.232-78.624-189.852-23.092-151.031 14.865-308.105 65.541-449.8 22.567-63.099 45.517-128.894 87.625-181.936 43.265-54.5 101.207-96.406 163.933-125.817 69.785-32.722 146.194-49.945 223.077-53.005 3.61-.144 3.628-5.772 0-5.628-144.864 5.767-296.329 63.18-389.318 178.388-41.43 51.329-64.269 114.001-86.693 175.31-26.381 72.13-48.087 146.224-61.739 221.862-25.111 139.13-26.077 302.718 62.077 421.567 66.779 90.033 177.846 117.814 284.289 125.842 123.867 9.342 248.302-3.233 372.16 6.652 58.185 4.643 116.895 14.324 171.098 36.75 59.514 24.624 105.371 69.832 159.073 104.174 104.488 66.818 229.633 114.78 355.426 107.061 52.572-3.226 104.646-16.919 150.442-43.309 47.311-27.263 85.961-67.31 113.667-114.2 15.821-26.776 28.152-55.558 37.581-85.17 10.071-31.625 15.788-64.253 28.236-95.153 21.301-52.875 55.882-98.885 98.703-136.26 37.779-32.974 80.9-58.917 124.804-82.815 36.039-19.617 73.797-37.348 107.198-61.387 23.084-16.614 45.539-38.316 49.342-67.92 3.303-25.703-6.976-50.468-24.888-68.628-20.755-21.041-48.835-33.996-76.27-43.867-36.801-13.241-75.399-21.318-113.902-27.745-90.209-15.059-181.758-20.793-272.852-27.769-42.45-3.251-84.924-6.545-127.216-11.492-33.207-3.885-66.803-8.403-99.003-17.686-17.784-5.127-42.175-12.382-52.16-29.637-10.759-18.594 6.02-37.83 17.215-51.436 71.578-86.998 137.969-178.627 199.035-273.283 32.591-50.517 63.635-102.128 91.519-155.406 23.684-45.25 45.639-91.963 61.002-140.765 17.121-54.387 34.761-143.301-35.139-168.172-16.902-6.013-35.366-7.182-53.156-6.434-42.626 1.792-85.654 9.057-127.535 16.83-86.845 16.117-172.095 40.356-255.419 69.515-76.818 26.882-151.262 59.108-225.127 93.182-77.951 35.958-155.696 72.85-236.79 101.316-79.277 27.827-161.505 46.75-245.66 50.085-3.608.143-3.626 5.772.002 5.628z" fill="url(#s)"/><path d="m727.882 661.341c167.198 4.415 313.463-77.467 453.319-159.36 71.472-41.851 143.07-83.515 218.795-117.318 79.841-35.641 163.232-63.912 248.809-82.073 45.566-9.671 92.297-17.397 138.882-19.634 18.937-.91 38.461.09 56.524 6.301 30.058 10.337 46.413 35.859 49.298 66.779 3.721 39.888-8.525 80.828-21.912 117.907-18.505 51.253-43.261 100.215-69.739 147.753-59.659 107.11-129.711 208.574-203.542 306.338-30.297 40.117-63.278 78.179-93.595 118.218-9.889 13.06-17.645 30.377-8.362 45.878 9.839 16.432 31.406 24.044 48.653 29.388 30.458 9.436 62.499 13.84 94.069 17.632 88.616 10.646 178.028 14.009 266.996 20.573 90.267 6.659 181.967 13.983 269.929 36.435 53.533 13.664 131.445 37.106 148.883 97.572 21.388 74.166-68.147 114.88-120.05 143.171-88.91 48.462-178.06 100.468-233.349 188.501-15.677 24.962-28.129 51.906-37.307 79.908-10.753 32.81-16.139 66.977-27.651 99.607-20.034 56.786-52.056 109.712-97.795 149.429-88.72 77.036-212.017 88.242-322.984 63.619-65.807-14.603-128.739-40.828-187.228-74.1-31.068-17.674-60.958-37.407-89.573-58.82-27.031-20.227-51.596-43.816-79.738-62.512-98.654-65.54-223.695-74.893-338.754-77.754-122.057-3.034-247.458 6.238-367.668-19.669-52.536-11.322-104.295-30.733-146.556-64.69-50.741-40.774-81.933-99.587-101.144-160.893-48.767-155.627-18.723-328.862 39.193-477.725 26.205-67.355 58.077-136.97 105.389-192.32 46.818-54.772 107.476-96.946 173.589-125.136 73.941-31.528 154.43-45.16 234.62-43.006 3.623.097 3.62-5.531 0-5.628-151.988-4.083-309.182 50.882-410.388 167.697-46.635 53.828-78.118 120.792-104.488 186.407-30.279 75.346-51.942 154.491-61.809 235.16-9.664 79.019-7.732 160.432 13.091 237.597 16.927 62.725 45.877 125.259 94.205 169.959 83.295 77.04 204.527 90.396 312.899 94.767 126.64 5.107 254.941-4.696 380.503 16.463 57.974 9.77 115.505 26.854 165.765 58.041 28.263 17.538 52.393 40.466 78.677 60.688 29.266 22.515 59.893 43.279 91.793 61.884 107.211 62.527 235.37 105.313 360.648 87.139 53.321-7.735 104.818-27.598 147.914-60.21 46.188-34.953 80.775-82.754 103.764-135.644 13.745-31.622 22.376-64.316 30.368-97.744 7.504-31.383 18.782-61.839 34.163-90.227 26.841-49.538 65.668-91.128 110.379-125.049 39.844-30.228 83.662-54.395 127.486-78.251 33.879-18.443 69.87-36.426 98.465-62.779 22.174-20.436 36.04-46.862 31.509-77.583-3.909-26.515-19.904-48.13-40.767-64.205-26.005-20.038-57.571-32.349-88.711-41.871-40.77-12.468-82.934-20.194-125.074-26.296-94.767-13.723-190.561-18.934-286.028-25.267-44.021-2.92-88.066-5.895-131.951-10.488-34.249-3.584-68.822-7.779-102.201-16.516-18.765-4.911-44.18-11.54-55.918-28.602-11.388-16.552 1.664-34.883 12.396-47.801 73.861-88.901 142.871-182.154 206.556-278.598 34.095-51.633 66.642-104.382 96.01-158.862 25.344-47.017 48.905-95.588 65.52-146.453 18.453-56.493 37.283-148.049-35.116-174.585-17.816-6.53-37.335-7.917-56.156-7.307-43.13 1.399-86.722 8.542-128.985 16.891-86.108 17.011-170.016 44.446-250.524 79.264-77.906 33.694-151.454 75.726-224.599 118.565-72.427 42.417-145.071 85.549-223.007 117.242-75.278 30.612-154.838 48.728-236.392 46.574-3.621-.094-3.618 5.534.003 5.63z" fill="url(#t)"/><path d="m734.247 676.682c79.325 4.998 156.569-12.86 228.481-45.847 75.211-34.5 143.367-82.424 210.775-129.911 70.363-49.57 140.688-99.558 216.705-140.244 77.424-41.44 159.965-73.504 245.859-92.226 43.704-9.526 88.893-16.714 133.68-17.861 19.915-.51 40.485 1.051 59.219 8.313 30.935 11.993 46.536 39.638 48.616 71.814 2.688 41.555-10.653 83.765-25.193 122.127-20.215 53.335-46.861 104.203-75.266 153.574-63.113 109.697-136.618 213.544-213.813 313.716-17.33 22.487-34.919 44.775-52.782 66.841-12.928 15.97-27.527 31.219-39.192 48.14-9.234 13.393-14.12 30.141-3.484 44.194 12.216 16.142 35.266 22.988 53.872 28.021 32.094 8.682 65.464 12.758 98.459 16.221 92.789 9.736 186.228 12.574 279.296 18.603 95.816 6.208 192.848 13.32 286.597 35.14 36.596 8.518 73.42 19.356 106.698 37.134 25.214 13.471 49.604 31.892 62.198 58.283 13.303 27.876 11.01 59.653-7.508 84.465-22.34 29.931-58.03 49.189-89.872 67.214-88.865 50.303-180.47 98.362-241.816 183.117-17.301 23.902-31.579 49.872-42.667 77.212-13.085 32.265-18.993 65.83-27.839 99.303-16.376 61.97-44.717 121.674-89.367 168.325-83.256 86.989-206.859 107.661-321.54 86.786-67.428-12.274-132.224-37.241-192.455-69.639-32.974-17.737-64.7-37.769-95.077-59.65-31.809-22.912-60.697-48.751-90.662-73.896-92.968-78.016-218.441-97.585-335.801-104.783-126.415-7.755-254.656.746-380.091-19.601-54.373-8.821-108.867-23.808-156.184-52.787-50.995-31.233-86.669-77.096-110.809-131.3-69.201-155.387-55.044-338.356 6.765-493.639 29.025-72.919 69.317-144.492 123.607-201.673 51.816-54.575 116.706-96 187.17-122.107 77.682-28.782 160.958-38.671 243.42-33.38 3.617.232 3.603-5.398 0-5.628-158.29-10.158-320.967 38.941-432.593 155.065-52.994 55.129-92.599 123.653-121.984 193.868-32.229 77.011-52.068 159.519-56.809 242.929-4.746 83.503 6.083 168.507 36.824 246.564 22.063 56.022 53.715 106.022 102.969 141.761 94.309 68.432 221.047 75.269 333.294 78.978 129.136 4.267 261.611-2 388.059 29.175 58.889 14.519 116.124 38.348 163.575 76.747 29.031 23.492 56.208 48.881 86.277 71.168 30.669 22.73 62.746 43.585 96.138 62.098 110.155 61.069 242.837 101.818 369.096 75.106 53.819-11.386 104.365-36.033 145.228-73.036 45.436-41.145 76.825-95.367 96.458-153.031 11.443-33.61 16.574-68.709 27.129-102.522 9.68-31.007 23.328-60.705 40.822-88.084 30.703-48.052 72.704-87.403 119.207-119.948 40.697-28.483 84.581-51.705 127.813-75.997 32.462-18.24 68.034-37.345 92.262-66.402 19.967-23.946 26.252-53.909 16.574-83.757-8.615-26.573-28.856-46.943-51.757-61.988-30.002-19.709-64.787-31.854-99.195-41.293-43.076-11.815-87.288-19.271-131.524-25.142-99.983-13.268-200.902-18.035-301.525-23.759-81.488-4.636-165.808-6.285-245.664-24.725-20.278-4.683-46.396-10.543-60.915-26.861-12.658-14.225-4.687-31.533 5.591-44.601 32.642-41.501 66.763-81.76 98.823-123.756 38.847-50.885 76.451-102.739 112.398-155.717 36.176-53.316 70.792-107.786 102.178-164.074 26.933-48.3 52.049-98.174 70.282-150.481 20.271-58.154 43.41-154.931-30.962-185.125-18.217-7.396-38.314-9.449-57.827-9.327-42.362.262-85.487 7.058-126.921 15.416-86.166 17.381-169.212 48.266-247.178 88.661-77.316 40.059-148.707 89.974-219.738 140.059-68.528 48.32-137.426 97.546-213.465 133.548-73.082 34.603-151.827 53.595-232.94 48.484-3.616-.232-3.602 5.397 0 5.623z" fill="url(#u)"/><path d="m1980.705 1765.08c-14.162 72.136-41.8 143.161-91.65 198.308-41.706 46.137-96.794 77.446-157.254 91.474-142.801 33.133-294.217-22.681-414.077-98.151-37.51-23.619-73.226-50.045-107.041-78.696-28.63-24.258-54.635-51.437-85.725-72.668-53.845-36.771-116.482-58.384-179.966-71.458-138.369-28.496-280.879-20.768-421.06-30.713-120.851-8.573-259.248-30.242-336.481-134.461-39.521-53.329-60.802-121.937-73.167-186.456-12.713-66.344-14.242-134.874-4.828-201.757 18.553-131.81 79.836-257.824 177.767-348.815 108.423-100.739 253.585-147.533 400.343-143.222 35.48 1.042 70.651 6.733 106.197 5.27 28.468-1.172 56.765-5.79 84.18-13.527 54.923-15.499 105.576-43.086 152.586-74.995 107.655-73.071 200.238-165.912 307.066-240.213 121.102-84.229 264.597-146.347 414.435-146.655 38.493-.079 82.59 9.108 100.64 47.229 17.504 36.968 7.474 83.134-3.533 120.407-17.086 57.854-44.557 112.584-73.793 165.132-34.116 61.32-72.213 120.402-112.043 178.146-40.386 58.552-82.732 115.757-126.478 171.839-18.93 24.269-38.133 48.327-57.62 72.15-13.355 16.325-29.179 31.951-40.428 49.844-30.13 47.925 39.245 66.063 73.097 72.866 89.894 18.068 183.743 18.918 275.022 23.314 111.869 5.389 224.265 10.102 335.211 26.282 47.986 6.998 96.047 16.076 142.208 31.184 35.26 11.539 71.464 26.842 99.07 52.322 24.034 22.181 40.35 54.824 34.979 88.2-5.997 37.271-39.326 62.658-68.855 82.05-42.707 28.047-88.774 50.641-132.183 77.566-49.555 30.735-96.585 66.442-134.033 111.499-42.399 51.012-69.794 111.758-82.587 176.705-.697 3.538 4.727 5.052 5.427 1.496 13.838-70.252 44.943-135.134 93.282-188.166 40.598-44.539 90.37-79.035 142.007-109.521 42.2-24.914 86.955-46.553 126.602-75.544 27.98-20.46 54.875-47.331 56.793-83.976 3.976-75.948-74.815-116.606-135.958-137.049-98.948-33.083-206.249-41.72-309.68-49.066-109.12-7.749-218.562-10.134-327.643-18.399-41.124-3.116-82.603-6.713-123.004-15.323-21.508-4.583-51.336-10.287-66.147-28.445-15.656-19.193 5.027-40.738 17.081-55.164 40.175-48.085 79.116-97.209 116.941-147.161 85.211-112.529 167.849-229.727 231.033-356.3 24.361-48.803 47.338-100.591 56.537-154.716 5.842-34.372 6.298-74.568-17.863-102.493-29.274-33.835-80.101-34.21-120.984-31.362-77.592 5.405-153.79 23.579-225.476 53.743-128.64 54.128-235.634 143.784-341.949 232.049-92.186 76.535-191.153 159.197-312.161 182.429-70.443 13.524-140.964-2.39-211.944 1.314-73.379 3.828-146.002 20.577-212.72 51.607-122.034 56.756-217.57 159.712-271.211 282.544-53.313 122.082-66.06 261.055-35.57 390.761 14.718 62.609 37.768 128.038 79.94 177.663 38.198 44.949 90.44 74.203 146.09 92.018 62.172 19.902 127.901 27.141 192.777 31.401 71.894 4.721 143.976 5.307 215.933 8.664 136.227 6.353 287.103 20.336 397.048 109.845 32.551 26.5 62.083 56.301 95.37 82.053 33.457 25.883 68.581 49.627 105.315 70.615 66.251 37.852 138.301 67.305 213.565 81.08 63.387 11.601 129.757 11.968 191.948-6.319 58.744-17.273 111.23-51.472 150.235-98.737 44.831-54.324 70.36-121.518 83.814-190.043.692-3.538-4.731-5.053-5.429-1.496z" fill="url(#v)"/></svg>