<svg width="1730" height="1496" viewBox="0 0 1730 1496" fill="none" xmlns="http://www.w3.org/2000/svg">
<g clip-path="url(#clip0_2011_7793)">
<path d="M383.297 118.252C454.87 66.8106 546.685 69.4519 628.048 92.8194C726.866 121.198 817.622 177.021 897.313 241.051C938.256 273.947 976.836 309.872 1012.34 348.598C1029.83 367.67 1046.58 387.436 1062.35 407.964C1073.82 422.905 1083.69 439.283 1098.57 451.163C1124.54 471.892 1158.42 478.03 1190.8 479.084C1231.03 480.394 1271.24 474.771 1311.08 470.029C1352.38 465.116 1394.1 460.153 1435.75 462.412C1474.09 464.491 1513.14 473.615 1543.79 497.914C1553.61 505.697 1563.24 514.614 1569.13 525.837C1573.38 533.903 1576.01 542.761 1577.81 551.666C1582.58 575.206 1581.7 599.86 1578.86 623.582C1571.31 686.507 1548.25 748.291 1515.89 802.53C1480.75 861.425 1431.73 913.873 1369.34 943.838C1336.38 959.673 1300.33 968.522 1263.8 969.865C1243.53 970.609 1223.2 969.144 1203.2 965.768C1184.84 962.668 1166.93 957.721 1148.41 955.474C1086.36 947.943 1025.43 963.676 972.822 996.921C918.209 1031.43 873.913 1080.34 834.485 1130.97C792.456 1184.94 755.296 1242.45 716.428 1298.68C682.067 1348.4 646.435 1399.19 601.052 1439.57C564.806 1471.83 520.047 1495.95 470.211 1490.6C441.378 1487.51 411.404 1477.48 389.118 1458.4C369.034 1441.21 356.736 1417.49 350.164 1392.15C342.506 1362.62 341.661 1331.6 342.666 1301.26C343.863 1265.14 347.996 1229.16 352.346 1193.31C362.09 1113.02 373.736 1032.4 371.091 951.294C368.494 871.659 350.651 791.356 303.435 725.817C289.538 706.527 272.556 689.955 257.997 671.219C241.02 649.373 226.727 625.348 216.063 599.791C196.92 553.914 190.112 503.854 194.061 454.407C201.604 359.946 245.285 269.163 304.031 195.994C327.194 167.145 353.328 140.06 383.297 118.252C385.473 116.669 383.371 113 381.168 114.603C350.01 137.275 322.91 165.42 299.01 195.56C270.453 231.572 246.173 271.116 227.434 313.119C187.98 401.554 173.58 503.758 209.901 595.763C219.645 620.445 232.619 643.756 248.226 665.196C263.124 685.662 281.38 703.227 296.515 723.48C321.263 756.593 339.004 794.372 350.133 834.145C372.467 913.952 369.425 998.571 361.393 1080.25C353.888 1156.56 339.684 1232.7 338.233 1309.51C337.211 1363.64 343.339 1426.7 388.399 1463.28C428.809 1496.09 489.23 1504.37 537.338 1485.5C587.257 1465.92 626.098 1424.32 659.165 1383.5C701.105 1331.73 737.138 1275.42 774.839 1220.57C813.857 1163.8 854.332 1107.17 903.429 1058.59C948.076 1014.41 1001.36 976.883 1063.56 963.327C1095.92 956.275 1129.47 956.11 1162.06 961.712C1181.64 965.077 1200.73 970.228 1220.54 972.431C1240.11 974.609 1259.9 974.913 1279.51 973.068C1350.36 966.399 1414 930.98 1462.78 879.942C1509.56 831.001 1543.49 769.799 1564.5 705.617C1573.76 677.325 1580.55 648.095 1583.65 618.456C1586.11 595.002 1586.48 570.688 1581.24 547.564C1567.27 485.827 1496.37 462.281 1440.28 458.463C1357.05 452.797 1275.29 477.234 1192.21 474.901C1158.14 473.945 1121.94 467.339 1096.03 443.441C1080.58 429.188 1069.53 410.05 1056.47 393.657C1040.48 373.58 1023.59 354.226 1005.98 335.556C933.023 258.19 847.731 190.512 753.84 140.428C673.751 97.7055 580.05 63.2539 487.871 74.1622C449.476 78.705 412.667 91.9678 381.169 114.606C378.981 116.175 381.085 119.842 383.297 118.253V118.252Z" fill="url(#paint0_linear_2011_7793)" fill-opacity="0.7"/>
<path d="M388.068 129.778C445.349 91.041 515.842 83.8749 582.832 94.3755C660.2 106.503 733.747 138.993 800.849 178.537C872.898 220.996 939.515 273.175 998.614 332.368C1012.8 346.581 1026.56 361.237 1039.78 376.356C1051.86 390.167 1062.88 404.776 1074.61 418.86C1091.21 438.79 1114.68 450.609 1139.7 456.084C1168.24 462.328 1197.97 461.64 1226.93 459.52C1260.52 457.061 1293.9 452.314 1327.38 448.759C1390.43 442.068 1461.77 436.603 1518.73 470.126C1530.89 477.283 1544.03 486.238 1552.23 497.976C1559.16 507.894 1562.85 519.776 1565.01 531.58C1571.07 564.756 1566.2 599.921 1558.87 632.467C1540.06 715.957 1498.92 792.411 1445.17 858.424C1423.08 885.556 1398.31 911.248 1368.28 929.577C1338.12 947.979 1303.88 957.228 1268.68 958.298C1246.59 958.968 1224.95 956.304 1203.16 952.954C1180.85 949.523 1158.16 948.579 1135.65 950.358C1090.84 953.899 1047 968.158 1009.24 992.71C989.673 1005.44 972.172 1021.14 954.891 1036.76C936.121 1053.74 917.917 1071.33 900.117 1089.32C863.682 1126.15 828.921 1164.59 794.751 1203.52C761.553 1241.34 729.068 1279.78 695.808 1317.54C664.356 1353.25 631.85 1388.77 594.383 1418.29C562.026 1443.79 524.03 1465.73 482.086 1468.46C452.104 1470.4 420.452 1462.08 394.52 1446.9C354.732 1423.6 336.035 1382.01 330.073 1337.71C322.745 1283.24 329.675 1227.17 336.152 1172.97C343.781 1109.15 352.999 1045.41 355.428 981.109C357.816 917.908 353.762 853.258 333.09 793.046C322.782 763.02 308.369 734.434 289.76 708.704C278.568 693.23 265.312 679.493 253.804 664.277C240.769 647.042 229.484 628.451 220.394 608.834C186.796 536.323 187.719 454.121 211.047 378.741C232.926 308.04 272.522 242.252 322.456 187.88C342.23 166.348 363.919 146.315 388.07 129.778C390.298 128.252 388.19 124.588 385.94 126.129C331.637 163.314 287.619 216.638 254.13 272.877C215.247 338.175 188.812 413.498 189.741 490.222C190.218 529.603 198.248 568.654 213.967 604.781C222.517 624.431 233.274 643.08 245.776 660.469C257.453 676.711 271.387 691.056 283.34 707.065C322.914 760.062 342.596 824.162 349.007 889.47C355.46 955.213 349.966 1021.53 342.437 1086.93C335.412 1147.95 325.556 1208.94 323.367 1270.4C321.713 1316.85 323.876 1368.21 349.197 1408.79C376.534 1452.61 432.42 1476.23 482.978 1472.63C523.452 1469.74 560.265 1449.65 591.99 1425.45C630.147 1396.35 663.097 1360.84 694.827 1325.02C763.59 1247.37 829.286 1167.02 902.24 1093.18C920.314 1074.89 938.801 1057 957.874 1039.75C976.534 1022.88 995.442 1006.07 1016.92 992.85C1057.76 967.708 1105.28 954.583 1153.12 953.743C1176.8 953.328 1199.53 957.23 1222.92 960.159C1243.38 962.722 1264.14 963.522 1284.7 961.508C1318.51 958.196 1350.73 946.827 1378.9 927.762C1408.25 907.889 1432.48 881.417 1454.32 853.713C1481.09 819.764 1504.76 783.797 1523.55 744.783C1541.67 707.171 1555.98 667.418 1564.47 626.491C1571.03 594.924 1575 561.17 1568.84 529.206C1566.59 517.502 1562.74 505.697 1555.88 495.843C1548.32 484.989 1536.85 476.586 1525.84 469.533C1499.56 452.698 1468.9 444.617 1438.11 441.497C1369.86 434.581 1301.59 449.155 1233.79 454.757C1177.72 459.388 1111.73 460.145 1073.9 411.202C1024.11 346.771 964.534 289.884 899.99 240.461C834.087 189.997 761.705 146.439 683.829 117.284C617.361 92.3996 543.717 77.1084 472.996 90.5686C441.904 96.4865 412.194 108.375 385.942 126.128C383.702 127.643 385.81 131.305 388.07 129.779L388.068 129.778Z" fill="url(#paint1_linear_2011_7793)" fill-opacity="0.7"/>
<path d="M392.84 141.297C451.364 104.179 522.229 97.4204 589.559 107.446C667.048 118.985 741.071 150.074 808.889 188.537C879.971 228.851 946.058 278.576 1004.67 335.564C1018.29 348.803 1031.5 362.47 1044.2 376.594C1054.94 388.541 1064.49 402.136 1076.75 412.6C1096.42 429.401 1121.47 437.252 1146.76 440.39C1177.35 444.186 1208.49 441.886 1239.04 438.834C1273.32 435.408 1307.45 430.559 1341.79 427.754C1405.06 422.586 1479.35 422.725 1530.47 466.579C1549.6 482.993 1553.92 510.665 1554.28 534.539C1554.8 569.643 1547.02 604.794 1536.7 638.155C1524.3 678.254 1507.23 716.94 1486.68 753.504C1466.72 789.032 1442.33 821.632 1418.36 854.493C1400.7 878.7 1382.28 903.921 1357.76 921.67C1333.54 939.206 1304.79 946.252 1275.24 947.301C1255.73 947.993 1236.49 945.587 1217.04 944.793C1197.71 944.003 1178.32 944.952 1159.16 947.556C1119.04 953.008 1079.53 965.85 1045.16 987.53C1026.6 999.231 1010.94 1013.68 995.404 1029.06C977.212 1047.07 958.848 1064.9 940.358 1082.61C903.522 1117.88 866.192 1152.64 828.569 1187.07C793.772 1218.91 758.421 1250.14 723.621 1281.98C689.052 1313.61 655.093 1346.04 618.41 1375.24C585.019 1401.82 548.334 1427.1 507.061 1439.46C471.733 1450.04 435.82 1448.01 401.892 1433.65C380.541 1424.62 361.161 1411.08 346.773 1392.74C332.931 1375.09 324.346 1353.98 319.327 1332.24C307.347 1280.34 312.558 1225.11 318.201 1172.73C324.96 1110.01 334.726 1047.61 338.961 984.629C343.176 921.956 342.299 857.804 325.86 796.791C317.76 766.731 305.764 737.672 289.465 711.126C281.031 697.389 271.357 684.673 261.117 672.256C247.15 655.318 234.914 636.925 224.95 617.345C188.576 545.867 187.859 463.58 211.334 387.973C233.244 317.41 273.761 252.121 324.615 198.83C345.175 177.284 367.752 157.411 392.838 141.296C395.117 139.833 393.004 136.172 390.709 137.647C334.834 173.538 289.252 226.63 254.84 282.976C215.389 347.569 188.676 422.828 190.898 499.316C192.035 538.477 201.086 577.107 217.879 612.509C227.113 631.975 238.617 650.295 251.797 667.314C262.753 681.463 274.25 694.89 283.835 710.068C318.536 765.023 332.907 829.497 336.083 893.813C339.313 959.225 332.06 1024.64 324.044 1089.46C316.717 1148.7 307.478 1208.41 308.276 1268.27C308.887 1314.04 316.128 1363.19 346.663 1399.24C361.678 1416.97 381.364 1429.85 402.756 1438.55C436.261 1452.18 471.661 1454.1 506.439 1444.05C546.412 1432.49 582.071 1408.83 614.644 1383.54C652.193 1354.38 686.724 1321.57 721.716 1289.45C795.679 1221.56 870.802 1155.05 943.339 1085.59C961.829 1067.89 980.194 1050.06 998.385 1032.04C1014.87 1015.72 1031.56 1000.59 1051.52 988.571C1088.2 966.476 1130.42 954.179 1172.9 950.198C1192.55 948.355 1212.35 948.277 1232.02 949.987C1251.16 951.651 1270.42 952.492 1289.57 950.573C1317.31 947.794 1343.28 938.657 1365.25 921.242C1389.31 902.177 1407.58 876.531 1425.46 851.872C1450 818.016 1474.72 784.528 1494.72 747.683C1514.62 711.016 1531.13 672.289 1542.89 632.228C1552.52 599.422 1559.64 564.745 1558.39 530.38C1557.54 507.211 1552.61 480.766 1534.54 464.543C1511.53 443.898 1480.64 432.111 1450.69 426.426C1383.14 413.607 1313.5 426.77 1246.08 433.881C1214.75 437.187 1182.86 439.927 1151.4 436.691C1124.07 433.88 1096.51 425.607 1076.11 406.363C1063.66 394.617 1053.39 380.319 1041.81 367.699C1028.47 353.16 1014.6 339.106 1000.31 325.512C970.906 297.557 939.689 271.517 907.065 247.424C841.095 198.708 768.811 157.139 691.506 129.395C624.205 105.241 550.254 90.8281 479.005 103.648C447.702 109.28 417.606 120.59 390.711 137.648C388.422 139.097 390.536 142.756 392.839 141.296L392.84 141.297Z" fill="url(#paint2_linear_2011_7793)" fill-opacity="0.7"/>
<path d="M397.612 152.82C458.368 116.816 530.86 110.775 599.568 120.905C677.431 132.384 752.102 162.418 820.813 200.14C891.33 238.854 957.293 286.69 1015.59 342.21C1029.08 355.057 1042.15 368.349 1054.68 382.132C1063.67 392.007 1073.36 400.507 1085.21 406.797C1109.06 419.46 1136.67 422.969 1163.31 423.408C1231.07 424.522 1297.95 408.695 1365.6 406.691C1399.44 405.688 1433.92 407.764 1466.35 418.2C1491.75 426.377 1520.89 439.447 1532.63 465.083C1544.54 491.071 1542.58 522.603 1538.36 550.11C1532.73 586.764 1521.18 622.484 1507.14 656.709C1491.04 695.946 1471.14 733.708 1448.04 769.26C1436.84 786.508 1424.27 802.754 1412.71 819.746C1403.16 833.779 1394.31 848.25 1385.72 862.888C1374.04 882.796 1362.93 905.651 1343.97 919.742C1321.83 936.198 1291.81 937.732 1265.3 938.057C1193.18 938.943 1118.31 951.71 1059.37 996.407C1042.92 1008.89 1029.73 1023.84 1016.01 1039.14C1000.04 1056.93 983.293 1074.03 966.001 1090.54C931.621 1123.37 895.082 1153.89 857.377 1182.8C823.284 1208.94 788.205 1233.76 752.601 1257.79C716.733 1281.99 682.483 1308.36 647.563 1333.88C612.846 1359.26 577.152 1384.16 538.071 1402.39C502.923 1418.78 463.483 1429.6 424.606 1422.56C373.748 1413.35 330.223 1379.05 312.015 1330.46C293.752 1281.73 296.181 1226.85 300.46 1175.88C305.709 1113.36 315.875 1051.36 321.604 988.88C327.381 925.877 329.333 861.488 316.609 799.166C310.465 769.072 300.712 739.668 286.603 712.356C269.807 679.845 244.303 653.393 227.065 621.197C189.679 551.369 188.179 470.277 211.727 395.729C233.902 325.529 275.461 261.004 327.26 209.055C348.492 187.766 371.804 168.311 397.613 152.819C399.939 151.422 397.821 147.766 395.483 149.17C338.315 183.487 291.286 235.892 255.932 291.947C215.934 355.364 188.807 429.929 191.678 505.761C193.135 544.247 202.699 582.13 219.927 616.574C236.8 650.308 263.171 677.469 280.929 710.626C311.552 767.806 321.377 833.217 321.802 897.421C322.239 963.091 313.461 1028.37 305.344 1093.39C298.111 1151.33 289.866 1210.55 294.869 1269.03C298.848 1315.52 313.537 1362.22 350.706 1392.76C372.179 1410.4 399.425 1422.93 426.866 1427.21C464.018 1432.99 501.219 1423.48 535.068 1408.38C575.222 1390.47 611.76 1365.17 647.181 1339.37C682.732 1313.47 717.491 1286.55 753.973 1261.95C829.459 1211.05 903.014 1156.5 968.987 1093.53C986.281 1077.02 1003.02 1059.92 1018.99 1042.13C1033.74 1025.69 1047.93 1009.75 1065.96 996.768C1098.2 973.553 1136.03 959.151 1174.69 950.948C1192.74 947.118 1211.05 944.616 1229.46 943.33C1246.81 942.117 1264.2 942.745 1281.56 941.744C1305.88 940.341 1331.39 936.209 1350.51 919.888C1368.61 904.44 1379.59 881.579 1391.47 861.428C1400.66 845.86 1410.24 830.536 1420.6 815.725C1432.82 798.262 1445.55 781.277 1456.91 763.218C1479.14 727.898 1498.23 690.519 1513.67 651.733C1527.37 617.321 1538.51 581.403 1543.37 544.586C1546.91 517.809 1547.81 488.06 1536.28 462.949C1524.9 438.187 1498.29 425.104 1473.86 416.302C1408.5 392.756 1335.63 403.164 1268.41 411.111C1235.19 415.039 1201.78 419.29 1168.26 419.223C1139.83 419.167 1109.91 416.004 1084.73 401.716C1071.89 394.426 1062.5 384.286 1052.56 373.582C1039.58 359.612 1026.07 346.147 1012.13 333.148C982.851 305.852 951.712 280.564 919.203 257.238C852.936 209.694 780.419 169.556 703.314 142.676C634.444 118.668 559.297 104.471 486.554 116.485C454.486 121.781 423.485 132.575 395.483 149.17C393.148 150.553 395.268 154.209 397.612 152.819V152.82Z" fill="url(#paint3_linear_2011_7793)" fill-opacity="0.7"/>
<path d="M402.382 164.34C465.787 129.382 540.295 124.066 610.838 134.327C689.708 145.798 765.619 175.067 835.752 212.344C905.423 249.375 971.037 295.195 1028.73 349.143C1040.08 359.754 1050.42 371.956 1063.08 381.034C1073.54 388.532 1085.45 393.83 1097.78 397.383C1126.01 405.517 1156.21 405.273 1185.26 403.39C1255.09 398.865 1324.42 383.173 1394.68 387.536C1428.62 389.643 1462.72 396.981 1492.44 414.098C1503.15 420.271 1511.86 427.784 1517.88 438.75C1523.9 449.722 1526.79 462.251 1527.97 474.638C1530.99 506.343 1524.42 538.718 1515.76 569.067C1504.8 607.455 1489.16 644.481 1471.07 680.011C1452.52 716.449 1431.17 751.555 1406.98 784.517C1387.24 811.409 1370.72 839.122 1360.97 871.194C1356.12 887.159 1353.48 906.872 1338.41 916.742C1328.96 922.929 1317.32 925.448 1306.37 927.391C1291.32 930.061 1276.03 931.131 1260.89 933.119C1193.63 941.953 1123.42 960.844 1072.31 1007.97C1057.34 1021.76 1045.92 1038.26 1032.98 1053.85C1018.83 1070.9 1003.61 1087.06 987.582 1102.36C956.067 1132.45 921.508 1159.23 885.272 1183.36C851.816 1205.64 816.915 1225.69 781.166 1244.03C765.041 1252.3 748.55 1259.85 732.52 1268.31C714.839 1277.63 697.615 1287.8 680.521 1298.16C644.851 1319.77 609.718 1342.38 572.818 1361.88C537.88 1380.34 500.473 1396.94 460.946 1401.97C402.716 1409.39 341.736 1383.5 310.663 1332.66C283.778 1288.68 281.422 1233.91 283.486 1183.79C286.054 1121.4 296.232 1059.57 303.179 997.595C310.304 934.021 315.117 869.315 306.557 805.631C302.391 774.635 294.905 744.037 282.782 715.165C276.804 700.929 269.754 687.158 261.583 674.059C251.612 658.075 239.65 643.527 230.232 627.166C190.949 558.923 187.943 478.555 211.513 404.469C233.872 334.191 276.695 270.071 329.723 219.258C351.683 198.217 375.8 179.19 402.383 164.339C404.754 163.014 402.629 159.361 400.253 160.69C341.448 193.543 292.663 245.549 256.223 301.696C215.779 364.013 188.325 438.118 192.287 513.32C194.316 551.865 204.924 589.575 223.34 623.484C232.738 640.791 244.922 655.991 255.571 672.462C264.128 685.698 271.556 699.67 277.798 714.146C303.681 774.169 308.693 840.815 306.332 905.461C303.92 971.538 293.784 1036.96 286.21 1102.56C279.724 1158.74 273.51 1217.31 284.31 1273.37C288.793 1296.63 296.748 1319.46 309.881 1339.29C323.363 1359.65 341.923 1375.97 363.252 1387.7C393.438 1404.29 426.785 1410.51 460.947 1406.2C499.356 1401.36 535.735 1385.86 569.868 1368.19C607.499 1348.71 643.207 1325.79 679.387 1303.79C696.793 1293.21 714.317 1282.79 732.299 1273.21C748.823 1264.4 765.863 1256.61 782.526 1248.08C857.144 1209.87 928.898 1164.06 989.829 1106.05C1006.12 1090.54 1021.6 1074.16 1035.97 1056.84C1049.28 1040.8 1061.06 1023.84 1076.59 1009.77C1105.08 983.953 1140.28 966.721 1176.7 955.247C1207.99 945.391 1240.4 939.635 1272.93 935.861C1287.91 934.124 1303 932.916 1317.7 929.36C1327.09 927.086 1336.72 923.867 1344.3 917.63C1357.95 906.385 1360.58 886.759 1365.51 870.807C1369.83 856.807 1375.33 843.25 1382.17 830.292C1391.8 812.071 1404.13 795.87 1416.05 779.151C1462.52 713.99 1501.45 639.812 1522.05 562.135C1534.35 515.726 1547.37 442.407 1497.91 412.421C1437.71 375.925 1362.86 380.091 1295.64 387.279C1260.62 391.024 1225.72 396.211 1190.58 398.796C1160.19 401.03 1128.48 401.823 1098.91 393.307C1085.75 389.519 1073.12 383.667 1062.29 375.206C1049.07 364.871 1037.84 351.687 1025.44 340.355C996.655 314.03 965.969 289.788 933.981 267.489C867.002 220.8 793.771 181.927 716.344 155.805C645.794 132.004 569.356 118.124 495.034 129.209C461.877 134.155 429.655 144.479 400.255 160.689C397.873 162.002 400 165.653 402.383 164.34H402.382Z" fill="url(#paint4_linear_2011_7793)" fill-opacity="0.7"/>
<path d="M407.153 175.864C474.768 141.349 553.176 137.11 627.151 148.198C708.599 160.406 787.215 189.919 859.957 228.053C896.047 246.972 930.927 268.246 964.214 291.768C980.362 303.177 996.135 315.118 1011.44 327.643C1024.32 338.185 1036.16 350.277 1049.42 360.301C1069.47 375.474 1094.99 380.523 1119.61 381.555C1150.13 382.835 1180.74 378.597 1210.86 374.069C1276.32 364.225 1345.22 348.172 1411.37 361.062C1426.66 364.041 1441.66 368.754 1455.59 375.789C1462.44 379.251 1469.03 383.245 1475.25 387.753C1478.01 389.752 1480.55 392.224 1483.53 393.802C1486.04 395.127 1488.81 395.93 1491.31 397.329C1511.61 408.694 1518.24 432.284 1519.14 454.135C1520.43 485.295 1512.66 516.693 1503.32 546.169C1491.53 583.347 1475.72 619.226 1457.9 653.87C1439.63 689.376 1419.08 723.768 1396.19 756.48C1376.43 784.729 1352.71 811.914 1348.55 847.533C1347.37 857.62 1348.12 867.655 1349.84 877.628C1351.01 884.434 1353.32 891.832 1352.35 898.799C1351.3 906.325 1345.05 910.623 1338.66 913.681C1326.65 919.424 1313.14 922.077 1300.21 924.842C1237.79 938.191 1173.86 951.453 1121.02 989.6C1106.27 1000.25 1092.73 1012.6 1081.18 1026.68C1067.97 1042.79 1057.26 1060.75 1043.95 1076.83C1016.91 1109.51 985.076 1138.02 950.481 1162.46C917.832 1185.52 882.784 1205.08 846.46 1221.68C813.121 1236.92 778.763 1248.29 744.214 1260.28C669.534 1286.19 603.307 1331.7 529.665 1360.23C494.896 1373.7 457.695 1384.18 420.078 1382.39C387.296 1380.82 355.943 1368.36 330.357 1347.85C288.745 1314.51 272.769 1263.18 269.17 1211.63C264.862 1149.92 274.016 1087.74 281.684 1026.66C290.014 960.299 298.579 893.365 295.561 826.343C292.702 762.864 278.217 699.28 241.978 646.212C218.841 612.331 202.99 574.445 198.082 533.504C193.539 495.616 197.945 457.139 208.698 420.638C230.051 348.161 274.729 282.458 329.84 231.408C353.163 209.802 378.878 190.492 407.151 175.861C409.564 174.612 407.433 170.964 405.022 172.212C343.176 204.216 291.465 257.336 253.646 315.259C212.238 378.677 185.038 455.22 193.664 531.794C198.115 571.306 212.242 609.14 234.181 642.24C252.92 670.509 267.863 699.56 277.117 732.361C295.401 797.173 293.962 865.906 288.098 932.398C282.228 998.972 270.927 1064.97 265.985 1131.64C261.957 1185.98 261.058 1244.85 284.338 1295.42C308.357 1347.59 361.259 1383.26 418.49 1386.53C455.77 1388.66 492.863 1378.72 527.433 1365.6C565.626 1351.09 601.999 1332.26 638.303 1313.63C673.422 1295.62 708.68 1276.98 746.084 1264.09C780.752 1252.15 815.173 1240.61 848.591 1225.33C923.514 1191.09 994.067 1143.75 1046.94 1079.82C1060.6 1063.3 1071.56 1044.76 1085.26 1028.34C1097.4 1013.81 1111.65 1001.13 1127.2 990.388C1157.02 969.803 1191.04 956.251 1225.72 946.382C1253.26 938.546 1281.38 933.526 1309.26 927.178C1324.39 923.732 1353.85 919.031 1356.5 899.325C1357.43 892.369 1355.47 885.198 1354.24 878.396C1352.4 868.175 1351.53 857.889 1352.77 847.532C1357.26 809.998 1384.38 781.316 1404.82 751.405C1449.17 686.481 1487.52 614.48 1509.98 538.834C1518.57 509.91 1525.59 478.768 1523 448.397C1521.23 427.492 1513.77 406.021 1495.04 394.612C1490.04 391.57 1484.9 389.78 1480.22 386.214C1474.09 381.543 1467.59 377.37 1460.79 373.736C1447.35 366.55 1432.86 361.461 1418.01 358.137C1385.87 350.942 1352.44 351.49 1319.82 354.457C1285.66 357.564 1251.85 363.494 1217.98 368.731C1186.36 373.62 1154.24 378.412 1122.15 377.418C1096.24 376.616 1068.92 371.463 1048.57 354.255C1034.65 342.474 1021.31 330.09 1007.05 318.691C991.905 306.595 976.345 295.024 960.428 283.973C891.931 236.413 816.762 197.457 737.662 170.959C663.125 145.99 582.547 131.309 503.992 141.911C469.576 146.556 436.001 156.396 405.02 172.211C402.601 173.446 404.735 177.094 407.151 175.861L407.153 175.864Z" fill="url(#paint5_linear_2011_7793)" fill-opacity="0.7"/>
<path d="M411.926 187.387C484.311 153.366 567.082 150.095 645.086 161.906C729.289 174.657 810.85 204.2 886.437 243.046C922.491 261.574 957.39 282.44 990.605 305.704C1006.45 316.804 1021.65 328.654 1036.8 340.68C1046.21 348.152 1057.06 353.424 1068.56 356.806C1095.51 364.732 1124.67 363.327 1152.28 360.433C1185.91 356.908 1219.16 350.467 1252.53 345.13C1316.97 334.824 1392.01 324.149 1451.31 358.766C1457.55 362.406 1463.28 367.95 1470.07 370.236C1475.17 371.955 1480.06 374.403 1484.39 377.612C1492.9 383.908 1498.78 393.016 1502.2 402.959C1510.82 428.101 1506.83 456.843 1501.3 482.184C1493.57 517.656 1480.49 551.946 1465.63 584.979C1449.15 621.631 1430.02 657.103 1409.02 691.348C1398.69 708.194 1387.87 724.744 1376.53 740.923C1365.96 755.995 1353.75 770.194 1344.56 786.175C1333.14 806.034 1326.9 829.272 1336.11 851.213C1342.01 865.281 1353.72 874.988 1360.74 888.185C1369 903.719 1344.56 911.738 1333.97 915.661C1309.99 924.548 1284.65 929.731 1260.17 937.054C1228.44 946.546 1197.1 958.224 1168.49 975.124C1137.54 993.411 1110.48 1017.97 1091.69 1048.85C1069.9 1084.65 1043.36 1116.58 1011.38 1143.72C952.09 1194.04 879.17 1226.5 804.174 1245.16C787.351 1249.35 770.384 1252.57 753.336 1255.67C736.532 1258.72 720.084 1263.56 703.943 1269.1C667.506 1281.6 632.382 1297.66 596.986 1312.78C560.168 1328.51 522.838 1343.84 483.904 1353.52C448.623 1362.29 411.041 1366.33 375.465 1356.84C346.06 1349 318.77 1331.69 298.569 1308.92C280.878 1288.99 269.267 1264.58 262.504 1238.92C246.964 1179.94 253.286 1116.43 260.012 1056.63C267.721 988.091 278.83 919.779 280.964 850.73C282.979 785.54 276.76 718.103 247.283 658.969C238.949 642.249 228.024 627.052 219.801 610.272C210.879 592.066 204.36 572.699 200.463 552.794C192.923 514.278 195.671 474.402 205.777 436.623C225.832 361.659 272.777 294.124 330.248 242.905C354.875 220.959 382.107 201.602 411.925 187.387C414.375 186.219 412.237 182.574 409.796 183.738C344.54 214.845 289.497 269.294 250.221 329.401C208.295 393.563 182.137 471.743 195.457 548.827C198.852 568.475 204.821 587.603 213.029 605.761C220.971 623.331 232.06 638.953 241.004 655.955C256.638 685.676 266.24 718.204 271.509 751.3C282.505 820.369 275.801 891.199 267.603 960.185C259.684 1026.83 248.4 1093.8 249.084 1161.11C249.633 1215.23 259.427 1272.4 297.152 1313.65C317.639 1336.06 345.019 1353.09 374.343 1360.92C408.99 1370.16 445.584 1366.87 480.106 1358.78C558.085 1340.51 628.259 1299.79 703.535 1273.7C720.167 1267.94 737.124 1262.9 754.458 1259.75C771.506 1256.65 788.472 1253.43 805.296 1249.24C841.934 1240.12 877.805 1227.73 912.014 1211.7C985.777 1177.14 1051.03 1124.43 1093.45 1054.12C1113.36 1021.12 1141.29 995.415 1174.67 976.427C1204.26 959.6 1236.52 948.244 1269.11 938.835C1293.57 931.773 1319.11 926.73 1342.61 916.737C1353.65 912.046 1371.69 903.678 1365.62 888.677C1363.23 882.746 1358.71 877.742 1354.79 872.789C1349.62 866.244 1344.59 859.522 1341.02 851.935C1329.75 828.03 1338.74 802.601 1352.26 781.658C1362.7 765.491 1375.1 750.549 1385.99 734.658C1397.25 718.215 1407.98 701.408 1418.22 684.309C1439.1 649.454 1458.07 613.357 1474.16 576.029C1488.14 543.582 1500.45 509.912 1507.04 475.102C1511.74 450.338 1514.61 422.304 1504.95 398.31C1501.25 389.128 1495.53 380.89 1487.66 374.824C1483.73 371.796 1479.41 369.384 1474.83 367.516C1471.62 366.211 1468.81 365.338 1465.95 363.317C1462.45 360.842 1458.94 358.416 1455.27 356.2C1427.62 339.529 1395.4 332.897 1363.47 331.564C1293.16 328.629 1224.51 348.255 1155.11 355.902C1126.3 359.077 1095.57 360.953 1067.54 352.079C1054.08 347.82 1043.48 340.582 1032.56 331.851C1017.79 320.037 1002.57 308.789 986.993 298.073C917.224 250.084 840.247 211.676 759.795 185.317C681.641 159.711 597.5 144.66 515.238 154.369C478.781 158.673 443.074 168.098 409.796 183.738C407.341 184.891 409.479 188.537 411.925 187.387L411.926 187.387Z" fill="url(#paint6_linear_2011_7793)" fill-opacity="0.7"/>
<path d="M416.697 198.903C494.154 165.605 581.457 162.95 663.851 175.152C750.931 188.048 835.718 217.105 914.368 256.375C950.644 274.487 985.81 294.955 1019.12 318.109C1030.55 326.058 1041.21 333.472 1054.65 337.641C1067.37 341.589 1080.78 343.128 1094.05 343.493C1126.22 344.376 1158.42 338.89 1190.01 333.419C1225.99 327.187 1261.89 320.082 1298.26 316.512C1332.66 313.137 1368.19 312.656 1401.78 321.852C1417.91 326.266 1433.36 333.015 1447.26 342.353C1452.43 345.819 1458.37 346.707 1463.98 349.405C1468.67 351.661 1473.02 354.578 1476.78 358.185C1493.48 374.194 1495.72 399.551 1494.33 421.376C1492.28 453.377 1482.57 484.855 1471.41 514.716C1443.97 588.185 1404.13 657.704 1359.35 721.867C1349.07 736.593 1337.53 750.506 1327.58 765.439C1320.62 775.885 1314.64 787.578 1312.75 800.122C1310 818.379 1317.83 834.427 1330.81 846.843C1342.63 858.157 1357.22 865.66 1369.77 876.011C1373.44 879.037 1378.35 883.129 1378.85 888.244C1379.45 894.398 1373.26 899.331 1368.87 902.521C1350.78 915.688 1327.51 921.289 1306.52 927.961C1276.75 937.421 1247.06 947.33 1218.95 961.099C1187.63 976.439 1158.32 996.67 1135.7 1023.5C1122.92 1038.65 1114.09 1055.71 1103.95 1072.6C1093.28 1090.37 1080.95 1107.13 1067.14 1122.59C1014.93 1181 943.428 1218.3 868.178 1237.35C833.417 1246.15 797.76 1251.24 761.951 1252.84C727.502 1254.38 694.144 1263.47 661.522 1274.17C587.467 1298.47 514.451 1333.66 436.057 1341.33C400.142 1344.84 363.116 1341.22 330.86 1324C304.754 1310.07 282.43 1289.15 267.324 1263.65C236.486 1211.57 235.903 1146.96 239.718 1088.33C244.315 1017.69 256.818 947.835 262.968 877.333C268.875 809.626 270.083 738.835 248.141 673.643C236.282 638.405 213.953 608.2 203.874 572.278C193.058 533.727 193.347 492.932 202.359 454.051C220.354 376.41 269.399 306.851 329.089 255.35C355.452 232.608 384.737 212.846 416.698 198.902C419.181 197.819 417.035 194.176 414.569 195.253C345.783 225.259 287.137 280.948 246.389 343.372C203.507 409.065 178.493 490.393 198.455 568.363C203.56 588.306 211.465 607.485 221.635 625.365C230.152 640.339 237.482 655.768 243.147 672.061C254.524 704.78 259.82 739.309 261.597 773.824C265.337 846.465 254.674 919.008 245.627 990.882C237.373 1056.46 227.957 1124.42 238.15 1190.32C242.439 1218.05 250.865 1245.43 265.837 1269.32C281.461 1294.24 304.034 1314.8 330.094 1328.37C397.26 1363.35 477.44 1342.27 544.983 1319.77C583.402 1306.98 621.073 1292.05 659.503 1279.29C693.628 1267.96 728.105 1258.7 764.15 1256.97C837.347 1253.44 911.041 1235.65 975.5 1200.13C1010.06 1181.09 1041.8 1156.78 1068.37 1127.52C1082.1 1112.4 1094.44 1096.02 1105.2 1078.66C1116.03 1061.17 1124.88 1042.99 1138.17 1027.1C1183.04 973.416 1250.06 950.4 1314.47 929.863C1330.8 924.658 1405.9 904.466 1375.85 875.742C1364.22 864.628 1349.25 857.504 1337.14 846.91C1322.85 834.41 1313.42 818.062 1317.29 798.545C1320.03 784.734 1327.53 772.217 1335.81 761.048C1346.91 746.073 1358.11 731.228 1368.63 715.831C1391.55 682.304 1412.65 647.489 1431.7 611.615C1449.75 577.646 1466.12 542.609 1478.95 506.308C1489.32 476.947 1498.16 445.845 1498.84 414.493C1499.3 393.283 1495.43 369.694 1479.15 354.613C1475.5 351.235 1471.36 348.384 1466.92 346.155C1461.68 343.525 1455.47 342.614 1450.59 339.515C1436.62 330.641 1422.26 323.457 1406.34 318.749C1372.93 308.874 1337.35 308.777 1302.93 311.845C1266.38 315.103 1230.3 322.084 1194.2 328.414C1161.43 334.16 1128.07 340.099 1094.67 339.28C1080.82 338.941 1066.87 337.298 1053.67 332.889C1039.13 328.027 1027.59 318.727 1015.06 310.2C944.433 262.17 865.954 224.916 784.623 199.129C702.051 172.947 613.653 157.826 526.983 166.81C488.328 170.817 450.322 179.877 414.566 195.249C412.081 196.318 414.228 199.961 416.699 198.898L416.697 198.903Z" fill="url(#paint7_linear_2011_7793)" fill-opacity="0.7"/>
<path d="M420.965 210.643C503.809 178.319 595.487 175.598 682.723 187.624C771.966 199.926 859.454 227.41 940.785 266.025C959.577 274.947 978.067 284.517 996.155 294.798C1009.98 302.658 1023.2 312.532 1038.26 317.908C1065.54 327.645 1096.19 325.504 1124.4 322.023C1197.21 313.041 1269 289.936 1343.01 293.45C1360.76 294.292 1378.48 296.859 1395.49 302.091C1403.84 304.66 1412 307.863 1419.81 311.786C1426.81 315.297 1432.83 319.903 1440.38 321.869C1462.07 327.513 1475.88 343.721 1480.37 365.418C1485.89 392.075 1480.08 420.716 1473.05 446.507C1463.46 481.694 1449.19 515.564 1433.34 548.338C1399.65 618.019 1358.02 684.041 1310.97 745.412C1298.6 761.551 1286.39 783.071 1293.71 803.976C1299.49 820.453 1314.85 831.323 1329.43 839.522C1345.48 848.55 1362.8 854.981 1379 863.704C1387.61 868.34 1402.7 876.552 1396.85 888.542C1388.88 904.883 1365.71 912.514 1350.14 918.445C1323.31 928.666 1295.95 937.355 1269.52 948.653C1238.51 961.912 1208.6 978.443 1183.24 1000.91C1169.87 1012.75 1157.92 1026.19 1147.92 1041C1136.49 1057.9 1128.72 1076.86 1118.03 1094.21C1076.26 1162.03 1009.56 1209 934.172 1232.48C898.833 1243.49 862.058 1249.62 825.125 1251.53C807.304 1252.45 789.431 1252.39 771.617 1251.37C755.158 1250.42 739.129 1250.01 722.694 1251.85C686.484 1255.88 651.144 1265.95 616.336 1276.37C577.853 1287.89 539.639 1300.46 500.589 1309.97C463.626 1318.97 425.329 1325.64 387.16 1322.93C351.261 1320.38 317.276 1308.09 289.452 1284.96C240.804 1244.5 225.097 1182.55 223.216 1121.61C221.009 1050.06 233.423 978.71 242.059 907.936C250.749 836.721 258.195 763.134 244.719 692.023C241.57 675.409 237.193 659.01 231.283 643.162C224.778 625.72 215.288 609.686 208.66 592.318C194.003 553.911 191.244 512.056 198.862 471.768C214.06 391.381 265.377 319.682 327.171 267.952C355.313 244.391 386.783 224.182 420.966 210.641C423.462 209.653 422.375 205.563 419.845 206.565C347.69 235.149 285.412 291.281 243.047 355.761C199.007 422.788 175.354 506.79 201.627 585.162C207.819 603.635 217.696 620.317 224.917 638.337C231.372 654.448 236.191 671.188 239.672 688.187C246.922 723.582 248.445 759.948 247.389 795.987C245.18 871.41 231.819 945.884 223.981 1020.8C217.259 1085.04 212.111 1155.01 235.894 1216.56C246.508 1244.02 263.374 1268.58 285.968 1287.52C312.562 1309.82 344.545 1322.64 378.919 1326.41C416.441 1330.53 454.532 1324.85 491.108 1316.54C530.847 1307.51 569.657 1294.92 608.627 1283.11C645.255 1272 682.441 1260.85 720.561 1256.32C755.049 1252.22 789.717 1257.53 824.358 1255.8C898.899 1252.06 974.084 1231.25 1035.58 1187.86C1067.68 1165.2 1095.4 1136.67 1116.95 1103.77C1128.44 1086.22 1136.55 1066.91 1147.63 1049.17C1157.66 1033.12 1170 1018.62 1183.99 1005.9C1209.87 982.367 1240.88 965.343 1272.91 951.766C1300.03 940.271 1328.18 931.625 1355.57 920.857C1371.22 914.701 1392.04 906.901 1400.38 890.897C1406.64 878.88 1396.82 869.552 1387.24 863.571C1371.95 854.032 1354.68 847.93 1338.7 839.704C1323.33 831.797 1305.62 821.602 1298.56 804.879C1289.05 782.398 1305.14 759.939 1318.19 742.904C1341.65 712.286 1363.32 680.289 1383.54 647.443C1404.75 612.98 1424.4 577.482 1441.58 540.823C1456.71 508.527 1470.32 475.12 1479 440.45C1489.33 399.213 1496.56 335.273 1445.21 318.864C1442.16 317.888 1438.75 317.513 1435.88 316.099C1431.99 314.182 1428.38 311.494 1424.52 309.464C1417.11 305.562 1409.36 302.273 1401.43 299.575C1385.01 293.987 1367.8 290.99 1350.53 289.685C1313.33 286.872 1275.89 291.696 1239.24 297.867C1202.35 304.082 1165.76 312.353 1128.65 317.254C1099.35 321.124 1067.23 323.971 1038.87 313.653C1022.87 307.826 1008.62 296.916 993.818 288.631C975.31 278.27 956.398 268.638 937.178 259.678C896.688 240.801 854.83 224.822 812.071 211.916C725.065 185.657 632.624 170.998 541.699 179.013C500.062 182.682 458.843 191.352 419.843 206.569C417.343 207.544 418.431 211.632 420.966 210.643L420.965 210.643Z" fill="url(#paint8_linear_2011_7793)" fill-opacity="0.7"/>
<path d="M425.735 222.164C514.232 191.118 610.523 187.999 702.917 199.207C795.364 210.422 886.779 236.039 971.746 274.207C981.208 278.458 990.595 282.88 999.891 287.487C1007.23 291.126 1014.39 295.307 1021.99 298.393C1034.75 303.575 1048.6 305.572 1062.29 306.072C1095.76 307.295 1129.37 300.563 1162.06 294.157C1200.77 286.568 1239.41 277.997 1278.71 274.004C1315.86 270.229 1354.54 270.309 1390.2 282.718C1398.86 285.734 1407.26 289.492 1415.25 294.004C1420.8 297.136 1426.83 297.618 1432.85 299.675C1442.72 303.048 1451.62 308.988 1457.86 317.432C1471.59 336.007 1471.45 361.671 1468.67 383.564C1464.56 415.946 1453.57 447.453 1441.23 477.505C1426.38 513.669 1408.48 548.574 1389.16 582.527C1369.6 616.89 1348.44 650.347 1325.87 682.796C1315.42 697.804 1304.67 712.598 1293.54 727.097C1285.75 737.242 1277.75 747.217 1273.28 759.369C1258.83 798.663 1300.93 819.155 1330.85 830.669C1349.9 837.996 1369.55 843.689 1388.46 851.369C1398.73 855.542 1417.53 862.307 1419.59 875.247C1422.02 890.518 1401.79 902.196 1390.84 907.889C1367.05 920.249 1341.13 928.399 1316.34 938.449C1253.1 964.087 1192.16 1000.17 1160.01 1063.08C1150.26 1082.16 1141.86 1101.46 1129.98 1119.42C1118.96 1136.1 1106.23 1151.62 1091.99 1165.65C1064.59 1192.64 1031.74 1213.72 996.239 1228.36C927.335 1256.76 849.845 1261.96 776.677 1250.44C760.524 1247.89 744.829 1245.6 728.412 1245.84C711.145 1246.09 693.935 1248.08 676.904 1250.86C638.509 1257.11 600.869 1267.36 563.224 1277.01C524.262 1287 485.047 1296.89 445.082 1301.92C408.432 1306.54 370.358 1307.19 334.633 1296.57C301.576 1286.73 272.237 1266.59 250.875 1239.49C231.397 1214.77 219.825 1184.97 213.772 1154.27C199.855 1083.68 210.542 1009.5 219.685 939.001C229.448 863.718 241.664 787.351 236.174 711.218C233.689 676.754 227.234 642.314 213.748 610.378C205.755 591.449 198.877 572.773 195.663 552.367C192.495 532.247 192.46 511.634 195.103 491.452C206.154 407.067 260.974 331.792 325.81 279.531C355.786 255.371 389.409 235.109 425.735 222.164C428.275 221.258 427.181 217.173 424.615 218.088C348.19 245.324 281.249 303.029 237.386 370.783C214.847 405.597 197.906 444.746 191.659 485.945C185.516 526.454 190.414 567.686 206.924 605.247C236.986 673.638 236.121 749.771 229.43 822.847C222.361 900.046 207.577 976.53 204.018 1054.05C201.075 1118.15 206.025 1188.32 246.718 1240.97C267.433 1267.77 295.872 1288.2 327.991 1298.9C362.771 1310.49 400.261 1311.01 436.39 1307.16C516.119 1298.67 591.849 1270.17 670.534 1256.21C688.518 1253.02 706.698 1250.65 724.97 1250.14C742.188 1249.66 758.607 1251.84 775.557 1254.51C812.298 1260.3 849.747 1261.88 886.811 1258.61C961.522 1252.02 1035.19 1225.06 1090.4 1173.04C1120.42 1144.76 1142.63 1110.66 1159.74 1073.31C1175.65 1038.58 1201.11 1009.58 1232.01 987.428C1259.32 967.852 1289.92 953.556 1320.99 941.104C1345.5 931.285 1371.15 923.201 1394.5 910.732C1406.64 904.252 1424.21 892.832 1423.96 876.97C1423.75 863.525 1408.5 855.758 1398.05 850.935C1379.89 842.556 1360.52 836.986 1341.74 830.22C1323.48 823.64 1303.79 816.45 1288.94 803.496C1275.15 791.474 1271.11 775.46 1278.16 758.419C1283.48 745.583 1292.81 735.034 1301.1 724.091C1312.43 709.146 1323.38 693.907 1333.99 678.446C1378.71 613.331 1419.61 543.981 1448.65 470.315C1460.3 440.762 1470.44 409.778 1473.52 377.997C1475.61 356.343 1474.36 331.778 1460.46 313.917C1454.26 305.947 1445.9 300.162 1436.53 296.532C1430.77 294.303 1424.07 293.922 1418.68 291.093C1410.84 286.979 1403.1 282.995 1394.78 279.892C1359.68 266.79 1321.2 265.93 1284.29 269.243C1245.31 272.743 1206.95 280.944 1168.63 288.562C1134.17 295.41 1098.83 302.937 1063.52 301.885C1049.31 301.463 1034.81 299.442 1021.68 293.711C1003.34 285.698 985.793 275.761 967.425 267.69C925.777 249.389 882.753 234.236 838.924 222.099C746.989 196.641 650.085 183.458 554.729 191.317C510.477 194.963 466.567 203.37 424.615 218.087C422.069 218.98 423.164 223.065 425.737 222.163L425.735 222.164Z" fill="url(#paint9_linear_2011_7793)" fill-opacity="0.7"/>
<path d="M430.508 233.685C525.453 204.086 627.094 199.85 725.539 209.634C820.195 219.041 914.576 241.403 1002.55 277.88C1016.15 283.518 1029.47 286.928 1044.23 287.702C1060.06 288.533 1075.95 287.085 1091.63 284.938C1130 279.684 1167.66 270.115 1205.62 262.648C1245.29 254.847 1285.94 248.444 1326.49 251.131C1345.57 252.395 1364.57 255.862 1382.55 262.52C1390.78 265.57 1398.82 271.306 1407.41 272.711C1413.14 273.647 1418.82 275.105 1424.19 277.348C1474.42 298.376 1457.33 369.134 1444.95 408.555C1421.95 481.814 1382.72 550.403 1341.59 614.783C1321.28 646.565 1299.8 677.618 1276.98 707.641C1264.62 723.894 1246.12 742.561 1248.71 764.956C1250.52 780.631 1263.35 791.48 1276.22 798.849C1294.4 809.253 1314.97 815.356 1334.99 821.069C1356.18 827.117 1377.66 832.24 1398.58 839.205C1412.29 843.77 1430.94 849.39 1439.53 862.097C1448.05 874.716 1437 888.985 1427.05 896.743C1408.17 911.458 1383.96 919.594 1362.07 928.575C1301.23 953.543 1239.8 982.573 1200.4 1037.69C1188.63 1054.15 1180.72 1071.98 1172.57 1090.37C1164.06 1109.57 1153.69 1127.96 1141.39 1144.98C1118.82 1176.21 1089.66 1202.32 1056.25 1221.43C990.542 1259.02 912.087 1268.67 837.765 1259.96C818.549 1257.7 799.48 1254.17 780.705 1249.5C764.533 1245.47 748.861 1241.62 732.164 1240.47C696.18 1238.01 659.92 1243.3 624.607 1249.79C546.358 1264.17 468.012 1288.65 387.756 1287.18C351.225 1286.52 314.367 1279.38 282.74 1260.31C253.352 1242.59 229.994 1215.89 215.33 1184.92C184.495 1119.79 189.759 1042.31 197.155 972.671C205.603 893.122 221.047 814.089 223.082 733.949C223.995 698.019 222.094 661.647 213.679 626.597C209.241 608.111 201.456 590.747 196.894 572.327C191.775 551.652 190.169 530.229 191.792 509.001C198.459 421.764 256.099 343.832 323.141 291.594C355.322 266.52 391.553 246.033 430.506 233.684C433.085 232.867 431.984 228.785 429.385 229.608C348.417 255.276 276.253 314.539 230.963 386.019C208.578 421.347 192.468 461.241 188.11 503.066C185.991 523.403 186.805 544.021 190.747 564.092C194.576 583.588 202.72 601.619 207.838 620.737C227.986 696.007 218.072 776.989 208.246 853.064C198.203 930.82 183.568 1009.76 188.612 1088.46C190.766 1122.06 197.024 1155.81 211.4 1186.45C225.62 1216.75 248.078 1243.01 276.193 1261.2C340.849 1303.03 423.661 1293.65 495.467 1280.48C536.13 1273.01 576.338 1263.31 616.936 1255.52C653.63 1248.48 691.235 1242.47 728.716 1244.49C746.257 1245.44 762.62 1249.35 779.581 1253.58C797.714 1258.09 816.113 1261.5 834.655 1263.81C872.431 1268.51 910.858 1268.43 948.506 1262.6C1023.4 1250.99 1093.28 1214.66 1139.95 1153.93C1152.65 1137.4 1163.49 1119.49 1172.46 1100.67C1181.27 1082.19 1188.31 1063.37 1199.67 1046.18C1219.98 1015.45 1248.3 991.25 1279.68 972.418C1307.57 955.687 1337.58 943.162 1367.58 930.849C1388.99 922.066 1412.47 913.899 1430.7 899.198C1440.91 890.97 1451.16 876.759 1444.96 863.182C1438.86 849.827 1421.91 843.28 1409.17 838.477C1368.28 823.052 1323.38 818.078 1284.1 798.281C1270.48 791.414 1254.69 780.984 1252.86 764.366C1251.88 755.505 1255.05 746.742 1259.28 739.106C1266.5 726.042 1276.97 714.696 1285.89 702.784C1333.41 639.319 1376.42 571.636 1411.52 500.467C1427.46 468.157 1441.96 434.787 1451.9 400.09C1459.22 374.527 1465 346.598 1460.54 319.984C1457.11 299.592 1445.8 282.09 1426.47 273.76C1421.21 271.491 1415.69 269.918 1410.05 268.894C1401.96 267.424 1394.95 262.879 1387.29 259.833C1369.9 252.922 1351.44 249.114 1332.84 247.404C1252.1 239.983 1173.76 268.694 1094.84 280.247C1078.13 282.695 1061.13 284.362 1044.22 283.474C1028.46 282.647 1014.9 278.396 1000.41 272.462C957.673 254.96 913.484 241.015 868.65 230.013C770.907 206.028 668.756 195.182 568.28 203.427C521.232 207.288 474.492 215.544 429.383 229.606C426.798 230.414 427.901 234.496 430.504 233.684L430.508 233.685Z" fill="url(#paint10_linear_2011_7793)" fill-opacity="0.7"/>
<path d="M435.279 245.214C537.279 217.365 644.66 211.023 749.834 218.275C801.392 221.829 852.739 228.809 903.328 239.419C926.501 244.278 949.518 249.912 972.285 256.425C989.119 261.24 1005.56 267.858 1023.11 269.471C1057.66 272.646 1093.12 264.347 1126.63 256.963C1168.07 247.834 1209.34 237.349 1251.52 232.201C1292.15 227.242 1334.79 226.955 1373.57 241.675C1378.21 243.432 1382.71 246.211 1387.4 247.688C1390.37 248.622 1393.81 248.594 1396.9 249.184C1402.61 250.277 1408.28 251.893 1413.58 254.333C1422.75 258.559 1430.57 265.14 1435.87 273.782C1448.28 294.006 1446.73 320.369 1442.9 342.814C1437.37 375.297 1425.63 406.699 1412.48 436.776C1380.8 509.225 1338.89 577.43 1293.77 642.18C1283 657.647 1271.95 672.927 1260.59 687.973C1251.82 699.584 1241.64 710.64 1234.2 723.182C1226.38 736.357 1222.97 752.207 1232.23 765.573C1241.76 779.345 1258.85 786.777 1273.98 792.438C1295.47 800.478 1317.99 805.616 1340.33 810.656C1363.31 815.841 1386.44 820.547 1409.1 827.029C1425.7 831.776 1444.92 837.178 1457.94 849.202C1468.69 859.137 1468.49 872.761 1459.98 884.288C1447.31 901.454 1424.12 910.614 1405.34 919.012C1346.89 945.146 1286.19 968.946 1241.88 1017.31C1229.6 1030.71 1218.92 1045.59 1210.29 1061.6C1200.34 1080.06 1194.19 1100.18 1184.87 1118.95C1167.07 1154.85 1142.05 1186.96 1110.53 1211.77C1050.31 1259.16 972.02 1275.72 896.747 1270.88C857.591 1268.37 818.834 1260.25 781.698 1247.63C765.772 1242.22 750.282 1237.4 733.542 1235.16C716.09 1232.82 698.426 1232.45 680.85 1233.16C600.382 1236.43 522.082 1259.01 442.137 1267.13C403.776 1271.03 364.34 1272.1 326.473 1263.7C290.332 1255.67 257.368 1238.19 231.935 1211.03C180.841 1156.47 173.481 1078.17 176.722 1006.83C180.491 923.884 197.517 842.255 205.565 759.726C209.36 720.811 211.403 681.404 207.553 642.409C205.83 624.958 202.917 607.586 198.207 590.685C192.417 569.906 188.213 549.578 188.444 527.871C189.411 437.044 250.563 355.351 320.546 302.986C354.995 277.212 393.76 256.754 435.28 245.213C437.892 244.486 436.782 240.408 434.158 241.137C348.732 264.883 271.061 325.237 224.38 400.446C201.897 436.667 186.402 477.985 184.427 520.87C183.438 542.329 185.978 563.897 192.001 584.517C197.258 602.518 201.023 620.708 203.022 639.371C211.783 721.14 196.341 804.129 185.19 884.9C174.578 961.766 162.543 1043.43 180.589 1120.11C188.494 1153.71 203.31 1185.56 226.488 1211.34C250.894 1238.48 282.826 1256.96 318.044 1266.02C354.921 1275.52 393.652 1275.57 431.364 1272.37C472.833 1268.85 513.84 1261.31 554.784 1254.07C594.487 1247.05 634.388 1239.89 674.708 1237.69C692.906 1236.69 711.227 1236.75 729.35 1238.86C746.901 1240.9 763.157 1245.76 779.804 1251.45C852.398 1276.25 932.845 1284.55 1007.83 1265.78C1083.07 1246.95 1146.65 1199 1183.66 1130.47C1193.92 1111.48 1200.45 1091.03 1209.86 1071.7C1218.32 1054.32 1229.11 1038.13 1241.87 1023.63C1265.45 996.862 1295.03 976.417 1326.38 959.827C1353.36 945.549 1381.7 934.283 1409.49 921.756C1428.25 913.298 1450.47 903.997 1463.22 886.968C1471.59 875.786 1473.72 861.196 1464.45 849.933C1454.02 837.253 1436.22 831.155 1421.16 826.273C1376.02 811.635 1328.37 806.338 1283.34 791.271C1267.1 785.836 1247.86 778.876 1236.91 764.853C1226.02 750.894 1231.62 734.223 1240.66 720.889C1249.69 707.57 1260.44 695.264 1270.05 682.346C1281.63 666.78 1292.89 650.981 1303.87 634.983C1326.95 601.343 1348.82 566.835 1369.05 531.398C1388.55 497.264 1406.64 462.217 1421.67 425.863C1433.78 396.565 1444.44 365.919 1448.4 334.316C1451.13 312.557 1450.82 287.655 1437.76 268.971C1432.09 260.859 1424.29 254.587 1415.31 250.498C1410.1 248.129 1404.62 246.44 1399.03 245.304C1396.25 244.741 1393.43 244.521 1390.66 243.985C1385.97 243.079 1381.47 240.257 1376.99 238.484C1338.98 223.424 1296.87 222.911 1256.76 227.36C1214.35 232.064 1172.84 242.327 1131.26 251.61C1096.25 259.423 1059.24 268.562 1023.12 265.241C1004.16 263.499 986.099 255.872 967.88 250.783C944.956 244.378 921.79 238.855 898.47 234.103C795.398 213.102 688.745 206.06 583.901 215.106C533.362 219.466 483.123 227.767 434.16 241.135C431.544 241.852 432.655 245.931 435.282 245.213L435.279 245.214Z" fill="url(#paint11_linear_2011_7793)" fill-opacity="0.7"/>
<path d="M440.049 256.731C547.125 231.604 657.833 221.724 767.694 224.209C819.951 225.391 872.206 229.451 923.916 237.168C947.817 240.734 971.424 245.451 995.072 250.369C1010.94 253.668 1027.31 253.728 1043.42 252.617C1085.66 249.704 1127.28 239.779 1168.76 231.82C1215.38 222.875 1262.73 214.889 1310.36 215.908C1332.58 216.384 1355.33 218.6 1376.74 224.878C1388.83 228.423 1400.45 234.105 1409.67 242.842C1427.69 259.943 1432.34 285.23 1431.13 309.147C1429.52 340.93 1419.19 372.129 1407.35 401.404C1392.57 437.961 1373.98 472.955 1354.02 506.91C1332.87 542.901 1309.9 577.816 1285.83 611.914C1263.99 642.868 1240.67 672.567 1217.63 702.615C1208.62 714.366 1200.31 729.977 1206.21 744.971C1211.69 758.897 1226.43 767.066 1239.4 772.716C1259.34 781.406 1280.82 786.426 1302.02 790.954C1326.64 796.215 1351.47 800.455 1376.18 805.254C1398.89 809.666 1421.75 814.297 1443.73 821.648C1458.64 826.634 1476.77 833.24 1486.26 846.673C1495.23 859.351 1490.27 875.014 1480.47 885.638C1465.37 902.011 1442.84 911.403 1423.02 920.515C1364.91 947.226 1304.96 973.065 1262.09 1022.56C1250.35 1036.11 1240.19 1051.02 1231.99 1066.97C1222.38 1085.67 1216.67 1105.92 1207.97 1125.02C1191.61 1160.95 1168.24 1193.57 1138.05 1219.12C1080.07 1268.18 1002.87 1285.68 928.367 1280.91C888.975 1278.38 850.028 1269.92 812.773 1256.95C794.901 1250.73 777.901 1242.18 759.959 1236.26C744.265 1231.07 727.919 1228.08 711.499 1226.43C673.669 1222.65 635.381 1225.87 597.761 1230.38C557.171 1235.24 516.835 1241.99 476.26 1246.97C402.497 1256.01 318.369 1262.37 252.548 1220.89C221.318 1201.21 197.186 1171.74 182.325 1138.05C166.959 1103.21 161.366 1064.76 160.206 1026.94C157.602 942.079 174.892 857.837 186.294 774.144C191.732 734.218 196.364 693.999 196.549 653.654C196.634 635.287 195.747 616.896 193.292 598.685C190.625 578.889 185.301 559.771 184.866 539.673C182.866 447.024 246.98 364.17 319.138 312.874C355.565 286.976 396.52 267.141 440.048 256.731C442.687 256.099 441.571 252.023 438.927 252.655C350.37 273.836 268.196 333.35 219.715 410.495C196.776 446.997 181.335 489.031 180.626 532.487C180.29 553.029 184.913 572.209 188.124 592.309C191.146 611.227 192.267 630.426 192.333 649.57C192.626 734.66 174.335 818.785 163.754 902.883C154.128 979.389 146.455 1063.78 177.19 1136.72C191.271 1170.14 214.168 1199.64 244.04 1220.32C273.969 1241.05 309.441 1251.38 345.306 1255.38C426.717 1264.44 508.853 1245.79 589.285 1235.65C627.724 1230.8 666.784 1227.03 705.525 1230.12C722.897 1231.51 740.202 1234.41 756.84 1239.69C774.97 1245.44 792.09 1254.14 810.047 1260.46C882.129 1285.84 962.489 1295.06 1037.1 1275.4C1111.24 1255.87 1172.16 1206.3 1206.59 1137.66C1216.29 1118.33 1222.29 1097.62 1231.29 1078.02C1239.37 1060.42 1249.75 1043.89 1262.13 1029.01C1284.63 1001.98 1313.08 980.857 1343.53 963.626C1370.38 948.429 1398.74 936.353 1426.71 923.438C1446.47 914.317 1468.74 904.779 1483.7 888.348C1493.43 877.654 1499.09 862.113 1492.22 848.404C1485.26 834.509 1469.2 826.891 1455.51 821.445C1434.57 813.117 1412.29 808.259 1390.28 803.758C1365.05 798.597 1339.65 794.302 1314.4 789.211C1291.93 784.679 1269.2 779.816 1247.74 771.587C1234.01 766.322 1216.53 758.608 1210.37 744.063C1202.96 726.587 1217.58 709.446 1227.62 696.749C1251.87 666.117 1275.18 634.735 1297.46 602.642C1343.29 536.62 1387.38 466.793 1415.83 391.236C1432.7 346.45 1453.43 276.335 1411.24 238.553C1402.02 230.299 1390.77 224.727 1379 221.138C1358.54 214.901 1336.57 212.561 1315.27 211.815C1267.64 210.144 1220.14 217.796 1173.49 226.624C1130.42 234.776 1087.26 245.363 1043.42 248.386C1025.74 249.605 1008.45 248.971 991.122 245.171C967.189 239.923 943.044 235.652 918.793 232.175C812.119 216.882 703.128 215.803 595.978 226.688C543.153 232.053 490.631 240.519 438.925 252.652C436.284 253.272 437.402 257.348 440.047 256.728L440.049 256.731Z" fill="url(#paint12_linear_2011_7793)" fill-opacity="0.7"/>
<path d="M444.82 268.253C559.641 245.673 676.355 230.878 793.379 227.469C847.037 225.906 900.846 226.795 954.331 231.605C974.762 233.442 994.97 236.873 1015.54 235.88C1034.77 234.952 1053.88 231.884 1072.79 228.36C1119.72 219.609 1166.03 207.782 1213.22 200.384C1260.98 192.897 1311.73 188.666 1359.25 200.011C1383.45 205.789 1404.94 219.682 1413.92 243.774C1423.34 269.063 1419.44 297.841 1413.15 323.369C1404.52 358.387 1389.87 391.827 1373.69 423.933C1355.2 460.639 1334.08 496.001 1311.75 530.478C1289.35 565.051 1265.62 598.759 1240.96 631.749C1229.3 647.362 1217.41 662.812 1205.3 678.088C1198.29 686.928 1190.39 695.492 1185.65 705.859C1170.28 739.477 1207.55 756.519 1233.67 764.699C1281.75 779.757 1332.88 784.585 1382.37 793C1406.88 797.166 1431.46 801.689 1455.32 808.748C1472.59 813.855 1491.63 820.224 1505.02 832.864C1515.98 843.219 1519.26 857.859 1512.64 871.694C1503.68 890.421 1482.29 901.494 1464.75 910.573C1438.92 923.948 1412.06 935.214 1386.26 948.656C1356.61 964.102 1328.04 982.131 1303.63 1005.17C1276.79 1030.52 1256.07 1061.58 1243.44 1096.34C1235.83 1117.3 1228.8 1138 1218.18 1157.71C1208.6 1175.52 1197.14 1192.33 1183.74 1207.49C1133.36 1264.5 1059.81 1291.5 984.896 1292.47C944.93 1292.99 905.041 1286.7 866.715 1275.52C846.423 1269.6 826.524 1262.31 807.187 1253.77C790.051 1246.2 773.777 1236.67 756.094 1230.4C722.183 1218.36 685.55 1215.62 649.823 1216.06C609.201 1216.56 568.744 1221.25 528.428 1225.88C487.025 1230.64 445.554 1235.66 403.862 1236.92C365.125 1238.09 325.621 1236.12 288.291 1224.9C252.106 1214.04 219.812 1193.74 195.595 1164.54C170.662 1134.46 156.287 1097.46 149.414 1059.27C141.934 1017.7 142.635 974.942 146.034 932.992C149.703 887.695 156.813 842.759 163.94 797.905C170.708 755.311 177.729 712.683 181.726 669.717C183.59 649.689 184.781 629.572 184.631 609.45C184.488 590.391 181.66 571.795 180.492 552.841C174.65 458.062 241.991 373.477 316.435 323.055C355.225 296.781 398.84 277.479 444.821 268.254C447.481 267.721 446.355 263.645 443.7 264.179C351.331 282.708 263.694 341.722 213.356 421.77C190.152 458.668 175.02 501.572 175.971 545.563C176.398 565.294 179.978 584.792 180.35 604.577C180.731 624.851 179.679 645.136 177.906 665.328C170.026 755.08 149.101 843.155 141.816 932.99C135.489 1011.02 138.454 1097.97 188.537 1162.44C211.491 1191.99 242.396 1213.59 277.627 1225.88C313.641 1238.44 352.313 1241.71 390.223 1241.41C474.176 1240.74 556.865 1222.81 640.714 1220.47C678.126 1219.42 716.511 1221.43 752.232 1233.52C770.871 1239.83 787.899 1249.88 805.872 1257.78C824.764 1266.08 844.15 1273.26 863.938 1279.11C937.302 1300.8 1018.94 1305.24 1091.2 1276.9C1124.99 1263.65 1155.74 1243.34 1180.77 1216.98C1208.97 1187.29 1229.2 1150.91 1242.49 1112.3C1249.37 1092.31 1256.87 1073.11 1268.05 1055.08C1277.97 1039.07 1289.93 1024.41 1303.4 1011.25C1328.07 987.152 1357.35 968.521 1387.79 952.619C1414.1 938.876 1441.52 927.438 1467.84 913.727C1485.43 904.56 1506.04 893.415 1515.65 875.095C1522.62 861.801 1521.83 846.263 1512.31 834.505C1501.39 821.02 1483.73 813.789 1467.8 808.292C1419.14 791.501 1366.61 786.385 1316.07 778.048C1291.55 774.003 1266.93 769.752 1242.96 763.041C1226.44 758.414 1207.54 752.76 1194.87 740.502C1184.06 730.035 1184.33 716.587 1191.36 703.932C1198.26 691.498 1208.57 680.797 1217.28 669.643C1229.11 654.501 1240.73 639.201 1252.14 623.741C1301.59 556.726 1348.66 486.602 1384.6 411.261C1399.54 379.964 1412.97 347.22 1419.77 313.077C1424.67 288.47 1426.53 261.233 1415.99 237.771C1405.81 215.092 1384.46 201.812 1360.98 196.081C1314.61 184.763 1265.09 188.427 1218.37 195.354C1170.23 202.489 1123.05 214.505 1075.28 223.603C1055.06 227.455 1034.62 230.863 1014.02 231.723C992.924 232.603 972.06 228.914 951.093 227.093C838.199 217.286 723.93 223.635 611.637 237.359C555.354 244.238 499.337 253.238 443.699 264.179C441.037 264.703 442.165 268.777 444.82 268.255V268.253Z" fill="url(#paint13_linear_2011_7793)" fill-opacity="0.7"/>
<path d="M449.593 279.777C571.97 260.324 694.215 238.539 817.665 226.957C846.881 224.217 876.158 222.081 905.479 220.867C931.783 219.778 958 220.185 984.305 220.065C1026.33 219.874 1068.32 207.785 1108.91 198.187C1159.74 186.169 1211.04 174.265 1263.35 171.284C1289.21 169.81 1315.44 170.438 1340.96 175.145C1354.21 177.588 1367.3 181.854 1378.49 189.539C1426.71 222.664 1404.92 295.625 1388.12 339.847C1359.24 415.869 1314.17 485.983 1267.95 552.418C1244.76 585.758 1220.54 618.387 1195.5 650.355C1186.29 662.12 1175.9 673.382 1167.65 685.849C1163.61 691.946 1160.23 698.831 1159.47 706.195C1156.02 739.551 1207.12 750.516 1230.43 755.924C1282.92 768.104 1336.98 772.721 1390.17 780.822C1416.09 784.769 1442.05 789.19 1467.39 796.007C1486.72 801.208 1507.07 807.624 1523.32 819.764C1535.63 828.965 1543.82 842.322 1541.11 858.123C1537.66 878.245 1519.03 891.479 1502.78 901.291C1478.68 915.837 1452.59 926.928 1427.48 939.569C1397.88 954.476 1368.97 971.066 1343.26 992.147C1314.88 1015.41 1291.2 1044.16 1275.43 1077.43C1266.44 1096.42 1261.37 1116.67 1253.91 1136.23C1246.15 1156.59 1236.32 1176.18 1224.23 1194.31C1180.96 1259.14 1110.42 1296.33 1033.6 1302.75C951.129 1309.64 867.812 1285.23 795.874 1245.94C779.565 1237.03 763.936 1227.95 746.271 1221.9C729.21 1216.07 711.492 1212.37 693.637 1210.03C653.799 1204.79 613.345 1206.13 573.366 1208.84C490.434 1214.46 405.996 1228.9 322.924 1217.86C285.498 1212.89 248.454 1201.68 217.294 1179.78C183.939 1156.34 159.597 1121.85 145.561 1083.77C130.764 1043.62 126.635 1000.33 127.123 957.79C127.658 911.05 133.683 864.521 140.995 818.422C148.262 772.605 157.049 727.042 164.095 681.19C170.273 640.99 175.566 600.181 174.415 559.421C173.132 513.965 186.253 471.578 210.697 433.354C237.107 392.056 274.013 357.722 315.236 331.571C356.074 305.662 401.821 287.526 449.593 279.777C452.266 279.343 451.131 275.269 448.471 275.701C353.217 291.153 260.995 348.129 208.103 429.592C184.219 466.377 168.785 509.429 170.002 553.704C171.161 595.834 166.533 637.539 160.167 679.134C146.059 771.311 124.126 863.189 122.913 956.848C121.858 1038.28 140.347 1125.73 208.007 1178.15C271.059 1226.99 356.368 1228.6 432.419 1224.35C516.177 1219.66 600.905 1204.22 684.864 1213.2C703.813 1215.23 722.667 1218.75 740.841 1224.55C759.501 1230.52 775.849 1239.77 792.926 1249.14C830.491 1269.74 870.6 1285.97 912.213 1296.22C986.234 1314.46 1067.77 1313.86 1136.78 1278.39C1170.14 1261.25 1198.94 1236.27 1221.14 1206.04C1233.52 1189.19 1243.8 1170.83 1252.15 1151.66C1260.9 1131.55 1266.05 1110.25 1274.42 1090.04C1289.3 1054.11 1313.24 1022.98 1342.83 997.975C1369.07 975.792 1399.03 958.616 1429.61 943.219C1455.16 930.357 1481.76 919.122 1506.2 904.156C1522.31 894.284 1539.96 881.196 1544.65 861.761C1553.93 823.292 1509.93 804.548 1480.77 795.474C1428.93 779.344 1373.82 774.175 1320.26 766.81C1293.82 763.174 1267.33 759.459 1241.2 753.975C1221.47 749.835 1200.67 745.108 1182.98 735.038C1171.86 728.708 1161.54 718.845 1163.88 704.916C1165.26 696.742 1169.96 689.333 1174.95 682.897C1185.91 668.754 1197.31 654.953 1208.25 640.788C1259.44 574.498 1308.03 505.532 1348.75 432.225C1367.22 398.976 1384.24 364.591 1396.69 328.576C1406.16 301.149 1413.95 271.201 1411.2 241.926C1409.03 218.966 1398.99 197.946 1379.38 185.06C1368.18 177.703 1355.17 173.481 1342.08 171.067C1317.26 166.491 1291.8 165.63 1266.64 166.881C1214.24 169.487 1162.78 181.132 1111.87 193.145C1069.91 203.047 1026.34 216.025 982.877 215.838C925.919 215.593 869.412 217.739 812.686 223.203C751.793 229.068 691.166 237.467 630.696 246.669C569.888 255.922 509.216 266.044 448.471 275.7C445.798 276.125 446.933 280.2 449.593 279.777H449.593Z" fill="url(#paint14_linear_2011_7793)" fill-opacity="0.7"/>
<path d="M453.803 291.372C579.822 276.054 703.334 246.317 828.238 224.388C858.21 219.126 888.275 214.35 918.469 210.566C943.011 207.491 967.863 206.408 992.295 202.611C1040.25 195.159 1086.87 179.954 1133.96 168.565C1187.47 155.626 1242.62 145.212 1297.91 148.173C1327.62 149.764 1362.61 154.133 1381.76 179.996C1396.82 200.34 1397.33 227.614 1393.74 251.677C1388.76 285.114 1376.22 317.344 1362.19 347.9C1327.03 424.468 1279.54 495.454 1230.15 563.422C1206.97 595.323 1182.96 626.625 1158.22 657.332C1148.37 669.558 1133.73 684.49 1137.19 701.876C1139.79 715.014 1152.4 723.169 1163.65 728.437C1182.41 737.221 1203.19 741.63 1223.43 745.409C1279.08 755.797 1335.73 760.093 1391.8 767.628C1419.72 771.381 1447.67 775.674 1475.1 782.203C1496.8 787.366 1519.05 793.715 1538.36 805.19C1551.91 813.239 1564.73 824.988 1567.03 841.4C1569.84 861.442 1557.22 877.66 1542.27 889.277C1521.24 905.623 1496.19 916.713 1472.5 928.537C1443.12 943.199 1413.91 958.414 1387.11 977.505C1357.69 998.456 1331.51 1023.98 1312.2 1054.69C1301.59 1071.55 1293.16 1089.75 1286.92 1108.66C1279.68 1130.61 1273.62 1152.47 1263.62 1173.42C1246.2 1209.89 1221.07 1242.69 1188.57 1266.89C1158.42 1289.36 1123.1 1303.83 1086.24 1310.7C1003.72 1326.09 917.29 1305.12 842.966 1268.77C806.229 1250.81 773.689 1224.98 734.498 1212.33C697.615 1200.44 658.422 1196.98 619.863 1196.46C533.954 1195.28 448.464 1208.93 362.532 1206.01C323.092 1204.67 283.083 1199.71 246.123 1185.21C208.846 1170.57 177.09 1145.57 154.576 1112.34C102.293 1035.19 105.585 934.504 117.031 845.966C129.063 752.892 154.752 661.965 164.809 568.639C167.128 547.113 167.954 525.892 174.043 504.948C180.409 483.054 190.427 462.353 202.808 443.255C229.956 401.377 268.232 367.072 310.772 341.425C354.366 315.143 403.269 297.642 453.804 291.373C456.464 291.044 456.497 286.812 453.804 287.147C355.782 299.305 259.247 353.142 202.947 435.444C190.169 454.123 179.642 474.423 172.45 495.916C165.559 516.509 163.528 537.096 161.591 558.563C157.507 603.812 148.459 648.536 139.698 693.058C121.02 787.971 98.9337 886.08 107.949 983.402C111.952 1026.62 123.021 1069.72 146.015 1106.88C166.665 1140.25 196.018 1166.92 231.571 1183.53C305.769 1218.2 393.316 1212.28 472.784 1207.27C516.511 1204.52 560.242 1200.94 604.077 1200.63C644.916 1200.35 686.452 1202.72 725.883 1214.12C744.014 1219.36 761.579 1226.6 777.766 1236.37C797.217 1248.1 816.232 1260.14 836.584 1270.32C875.866 1289.96 917.672 1304.96 960.863 1313.13C1036.04 1327.35 1117.78 1320.32 1182.46 1276.42C1214.66 1254.56 1240.71 1224.73 1259.49 1190.69C1270.27 1171.14 1278.74 1150.34 1285.23 1128.99C1291.64 1107.9 1298.42 1087.51 1309.15 1068.15C1345.04 1003.38 1408.13 965.435 1472.32 933.343C1496.48 921.267 1521.88 910.02 1543.52 893.612C1558.67 882.118 1571.84 866.644 1571.62 846.592C1571.2 807.218 1522.9 790.865 1492.03 782.208C1436.87 766.736 1378.94 761.559 1322.22 754.909C1293.6 751.553 1264.95 748.226 1236.52 743.451C1214.64 739.777 1192.28 735.598 1171.6 727.303C1159.83 722.586 1144.21 715.027 1141.35 701.212C1137.46 682.42 1158.12 664.235 1168.26 651.526C1220.64 585.872 1270.4 517.715 1314.06 445.893C1335.38 410.824 1355.36 374.734 1371.64 337.009C1384.48 307.254 1395.76 275.848 1399 243.395C1401.33 219.993 1398.83 194.593 1383.69 175.617C1364.77 151.91 1333.2 146.514 1304.73 144.386C1249.93 140.289 1194.89 149.901 1141.71 162.377C1093.17 173.766 1045.35 189.343 996.149 197.725C970.898 202.027 945.11 203.026 919.692 206.188C890.407 209.832 861.24 214.386 832.165 219.432C768.996 230.396 706.243 243.599 643.317 255.849C580.46 268.086 517.39 279.417 453.803 287.147C451.141 287.47 451.109 291.701 453.803 291.373V291.372Z" fill="url(#paint15_linear_2011_7793)" fill-opacity="0.7"/>
<path d="M458.574 302.897C584.283 292.296 704.987 255.098 826.229 222.489C855.062 214.735 883.983 207.279 913.105 200.687C938.729 194.886 964.748 190.861 990.265 184.629C1041.87 172.026 1092.11 154.412 1143.79 142.019C1199.15 128.744 1259.07 118.433 1315.95 127.432C1340.85 131.372 1365.14 142.57 1376.34 166.474C1387.71 190.729 1384.12 219.969 1378.17 245.139C1369.88 280.191 1355.2 313.634 1339.06 345.689C1300.13 422.993 1250.63 495.019 1199.01 564.271C1175.68 595.56 1151.39 626.035 1126.94 656.434C1118.73 666.645 1110.4 680.263 1115.71 693.735C1120.76 706.584 1135.12 713.515 1147.13 718.232C1167.53 726.243 1189.54 730.215 1211.09 733.663C1269.87 743.066 1329.43 746.971 1388.52 753.898C1418.31 757.389 1448.09 761.42 1477.48 767.447C1501.86 772.444 1526.57 778.586 1549.16 789.262C1564.94 796.717 1581.4 807.124 1589.16 823.452C1597.42 840.825 1592.84 860.479 1580.58 874.636C1564.34 893.383 1540.48 905.141 1518.87 916.401C1490.04 931.425 1460.78 945.642 1433.23 962.992C1402.53 982.323 1373.93 1005.43 1351.32 1034.01C1339.12 1049.44 1328.71 1066.24 1320.47 1084.12C1311.18 1104.26 1306.15 1125.41 1299.44 1146.44C1286.28 1187.68 1265.22 1226.71 1234.62 1257.61C1207.31 1285.18 1173.22 1305.12 1136.12 1316.24C1055.07 1340.54 966.568 1324.27 890.323 1291.48C868.656 1282.16 847.636 1271.34 827.355 1259.29C808.044 1247.82 790.266 1233.84 770.735 1222.8C737.629 1204.1 700.21 1194.75 662.732 1190.06C576.214 1179.24 488.619 1190.6 401.869 1191.6C323.32 1192.49 234.81 1187.06 172.872 1132.52C100.205 1068.52 88.2734 963.986 94.8352 872.864C102.114 771.786 130.423 674.121 151.505 575.453C155.951 554.641 158.636 533.192 164.84 512.815C171.619 490.551 182.211 469.565 195.24 450.331C223.878 408.054 264.027 374.039 308.367 349.23C354.496 323.419 405.924 307.426 458.573 302.896C461.258 302.665 461.282 298.435 458.573 298.669C356.807 307.427 254.79 359.003 194.96 443.347C181.954 461.681 171.175 481.675 163.668 502.898C156.216 523.964 153.343 546.185 148.781 567.98C138.764 615.848 126.7 663.261 116.267 711.037C95.0773 808.069 75.4926 913.361 99.3993 1011.75C109.853 1054.77 129.989 1096.42 161.654 1127.81C188.812 1154.73 223.414 1172.15 260.063 1182.06C342.67 1204.39 431.238 1195.11 515.564 1191.61C597.779 1188.18 689.559 1184.02 764.449 1224.16C783.854 1234.56 801.251 1248.39 820.053 1259.83C840.829 1272.47 862.404 1283.81 884.665 1293.59C924.484 1311.09 966.537 1323.74 1009.74 1329.18C1086.73 1338.87 1167.83 1323.32 1227.07 1270.58C1258.09 1242.96 1280.81 1207.29 1295.97 1168.78C1304.65 1146.73 1309.3 1123.46 1317.76 1101.36C1325.32 1081.56 1335.45 1062.77 1347.83 1045.58C1390.54 986.271 1455.7 953.919 1518.8 921.191C1552.3 903.815 1609.85 876.121 1595.6 828.492C1590.57 811.688 1576.65 799.658 1561.96 791.169C1541.48 779.338 1518.2 772.506 1495.34 767.063C1436.27 753.001 1375.2 747.969 1314.93 741.858C1285.02 738.825 1255.08 735.842 1225.32 731.567C1201.97 728.215 1178.3 724.383 1155.86 716.896C1143.15 712.657 1125.78 706.309 1119.92 692.937C1113.08 677.328 1127.9 661.939 1136.79 650.993C1189.95 585.553 1240.51 517.687 1285.84 446.55C1308.93 410.324 1330.74 373.133 1349.31 334.361C1364.45 302.763 1378.17 269.596 1384.62 234.994C1389.12 210.844 1390.41 183.816 1378.54 161.455C1366.54 138.819 1342.67 127.641 1318.36 123.561C1263.65 114.382 1205.69 123.482 1152.2 135.706C1099.01 147.861 1047.43 165.77 994.593 179.19C969.314 185.608 943.502 189.598 918.047 195.247C888.121 201.889 858.414 209.483 828.807 217.415C768.004 233.705 707.568 251.396 646.389 266.256C584.586 281.268 522.001 293.317 458.573 298.665C455.887 298.894 455.862 303.122 458.573 302.894L458.574 302.897Z" fill="url(#paint16_linear_2011_7793)" fill-opacity="0.7"/>
<path d="M463.344 314.417C589.501 308.454 707.584 262.987 824.81 219.818C936.897 178.541 1052.56 144.905 1169.68 121.202C1203.72 114.313 1238.01 108.504 1272.51 104.451C1290.53 102.334 1309.19 99.6561 1327.24 103.097C1348.41 107.132 1364.07 120.349 1369.19 141.612C1375.41 167.449 1368.75 195.847 1361.37 220.698C1350.85 256.083 1335.47 289.97 1318.82 322.827C1279.48 400.435 1231.69 473.88 1181.04 544.492C1158.49 575.936 1135.19 606.861 1110.81 636.909C1101.58 648.278 1087.97 662.377 1091.96 678.583C1095.17 691.606 1108.68 699.043 1120.05 703.843C1139.91 712.224 1161.65 716.161 1182.82 719.536C1243.31 729.178 1304.72 732.526 1365.65 738.373C1425.72 744.138 1487.77 749.848 1545.36 768.972C1579.56 780.329 1628.97 804.621 1618.32 849.231C1613.02 871.457 1592.41 886.317 1574.17 897.749C1547.99 914.148 1519.83 927.19 1492.81 942.098C1461.43 959.415 1430.97 978.839 1404.56 1003.25C1375.35 1030.25 1352.17 1063.08 1337.51 1100.15C1328.63 1122.61 1324.27 1146.41 1316.31 1169.17C1308.75 1190.8 1298.95 1211.67 1286.58 1230.97C1264.46 1265.5 1233.96 1294.08 1197.42 1312.78C1121.35 1351.73 1030.43 1344.85 951.589 1318.39C905.2 1302.82 861.293 1280.17 820.735 1252.85C801.869 1240.14 784.434 1225.32 764.477 1214.3C747.256 1204.79 728.855 1197.5 709.99 1192C626.025 1167.53 535.595 1174.46 449.326 1176.59C405.446 1177.67 361.371 1178.33 317.619 1174.16C276.988 1170.29 235.849 1162.06 199.256 1143.3C111.731 1098.42 78.6761 999.061 76.0938 906.027C73.0851 797.674 102.568 690.495 133.258 587.593C139.92 565.256 146.229 542.73 153.487 520.58C160.895 497.968 172.188 476.739 185.941 457.375C216.142 414.853 258.054 381.22 304.073 357.25C353.308 331.607 407.949 317.091 463.342 314.418C466.045 314.289 466.061 310.06 463.342 310.192C357.573 315.296 249.915 364.154 185.8 450.423C171.891 469.138 160.331 489.652 152.191 511.537C144.065 533.386 138.233 556.296 131.538 578.621C116.015 630.382 101.227 682.425 90.1077 735.339C68.91 836.22 56.8255 950.38 102.456 1046.58C120.693 1085.03 148.061 1118.1 184.709 1140.06C218.779 1160.48 257.858 1170.71 296.916 1176.01C386.603 1188.17 477.639 1177.67 567.73 1178.87C611.789 1179.45 656.33 1182.35 699.144 1193.41C719.235 1198.6 738.889 1205.65 757.319 1215.25C777.128 1225.57 794.167 1239.67 812.466 1252.31C888.659 1304.98 979.854 1343.53 1073.58 1344.34C1153.57 1345.04 1230.45 1313.78 1279.31 1248.83C1292.73 1230.99 1303.67 1211.39 1312.41 1190.87C1322.01 1168.34 1327.36 1144.94 1334.47 1121.63C1347.02 1080.51 1369.66 1043.51 1400.16 1013.3C1426.72 987 1458.09 966.342 1490.58 948.17C1518.32 932.65 1547.32 919.26 1574.41 902.572C1592.96 891.14 1613.27 876.809 1620.9 855.361C1627.1 837.93 1623.03 818.398 1611.84 803.985C1599.42 787.994 1580.53 778.076 1562.14 770.629C1536.6 760.291 1509.43 754.152 1482.41 749.22C1418.2 737.502 1352.86 732.97 1287.94 727.168C1257.37 724.436 1226.76 721.642 1196.37 717.33C1173.49 714.085 1150.18 710.345 1128.33 702.551C1116.51 698.333 1099.95 691.6 1096.19 678.103C1091.29 660.472 1111.47 642.866 1120.9 631.073C1173.21 565.629 1221.63 496.766 1265.62 425.445C1288.45 388.428 1310.09 350.588 1329.17 311.475C1344.87 279.271 1359.33 245.937 1368.41 211.179C1374.59 187.497 1379.55 160.423 1372.14 136.416C1365.9 116.166 1349.78 103.371 1329.33 99.2153C1312.8 95.8575 1296.03 97.6073 1279.44 99.4375C1245.89 103.137 1212.54 108.513 1179.42 114.971C1117.92 126.961 1057.24 142.762 996.922 159.663C939.972 175.619 884.011 193.582 828.482 213.981C768.84 235.893 709.463 258.744 648.481 276.726C588.139 294.519 526.287 307.219 463.342 310.194C460.64 310.32 460.625 314.548 463.343 314.419L463.344 314.417Z" fill="url(#paint17_linear_2011_7793)" fill-opacity="0.7"/>
<path d="M468.117 325.942C594.929 320.905 710.33 267.936 823.629 215.477C938.558 162.262 1056.42 116.245 1181.12 91.8042C1214.61 85.2397 1248.78 79.5178 1282.89 77.5471C1296.44 76.7646 1310.43 77.3707 1323.38 81.7873C1344.93 89.1381 1356.55 107.621 1358.73 129.734C1361.58 158.569 1353.07 188.223 1343.69 215.157C1330.72 252.383 1313.26 288.005 1294.53 322.618C1252.11 400.985 1202.05 475.319 1149.08 546.865C1126.6 577.226 1102.76 606.391 1079.42 636.067C1071.67 645.924 1064.71 659.21 1071.03 671.576C1077.42 684.071 1092.85 690.214 1105.3 694.448C1126.99 701.815 1149.98 705.332 1172.6 708.368C1236.61 716.96 1301.3 719.921 1365.61 725.421C1429.01 730.842 1493.92 736.571 1555.17 754.796C1592.3 765.845 1645.31 786.774 1645.93 833.181C1646.24 856.719 1629.69 874.299 1611.86 887.383C1587.69 905.123 1560.21 918.162 1533.94 932.398C1467.01 968.664 1403.2 1013.03 1368.76 1083.42C1358.56 1104.27 1351.94 1126.07 1346.42 1148.55C1340.48 1172.79 1332.26 1196.52 1321.1 1218.85C1302.05 1256.94 1274.26 1290.48 1238.47 1313.8C1166.42 1360.75 1075.18 1360.22 994.934 1337.44C946.799 1323.78 901.067 1302.24 858.697 1275.71C835.635 1261.28 813.957 1245.12 792.639 1228.24C776.869 1215.75 759.564 1205.4 741.236 1197.15C661.663 1161.33 569.99 1162.23 484.498 1162.93C438.491 1163.31 392.432 1164.41 346.454 1162.18C304.029 1160.13 261.123 1155.35 220.636 1141.89C182.693 1129.28 147.96 1108.17 122.151 1077.25C88.8809 1037.39 70.967 985.456 63.2173 934.673C45.9083 821.248 74.3596 703.285 112.345 596.872C129.26 549.484 146.463 500.072 178.025 460.237C210.455 419.307 253.887 387.836 300.904 365.748C353.213 341.174 410.486 328.239 468.115 325.941C470.821 325.833 470.835 321.606 468.115 321.714C359.53 326.045 245.997 369.163 176.295 455.684C145.241 494.233 128.121 541.3 111.313 587.343C91.5389 641.513 75.2688 697.158 65.0357 753.962C46.2133 858.449 45.4893 981.305 111.567 1070.56C161.622 1138.18 244.874 1159.04 324.66 1165.07C417.507 1172.08 510.779 1162.64 603.619 1170.06C647.232 1173.55 691.24 1180.82 731.868 1197.66C776.478 1216.16 810.851 1250.11 851.104 1275.9C929.425 1326.08 1023.23 1362.1 1117.52 1356.3C1156.93 1353.88 1195.96 1343.6 1230.29 1323.78C1265.75 1303.3 1294.72 1273.23 1315.49 1238.01C1327.35 1217.9 1336.59 1196.29 1343.66 1174.05C1351.21 1150.3 1355.49 1125.79 1364.82 1102.59C1380.79 1062.88 1406.71 1028.33 1438.81 1000.26C1467.12 975.493 1499.45 956.01 1532.35 938.062C1559.37 923.33 1587.67 910.014 1612.71 891.961C1630.01 879.483 1646.84 863.185 1649.69 840.952C1652.17 821.649 1644.46 803.051 1631.04 789.413C1615.48 773.611 1594.43 763.881 1573.87 756.468C1546.28 746.524 1517.35 740.458 1488.49 735.632C1420.87 724.322 1352.25 720.016 1283.97 714.777C1252.15 712.335 1220.31 709.862 1188.61 706.147C1163.72 703.229 1138.54 699.836 1114.4 692.864C1101.07 689.014 1082.79 683.565 1075.31 670.607C1067.24 656.643 1079.82 642.196 1088.21 631.978C1141.86 566.642 1191.63 497.828 1237.4 426.741C1261.83 388.803 1285.1 350.043 1306 310.031C1323.75 276.048 1340.21 240.966 1351.72 204.316C1364.56 163.471 1377.78 96.6962 1325.38 78.018C1312.72 73.5022 1298.88 72.6243 1285.54 73.1861C1253.59 74.5319 1221.34 79.9879 1189.94 85.8254C1124.85 97.9294 1060.95 116.133 998.491 138.031C940.911 158.22 885.11 182.422 829.744 208.012C771.314 235.016 713.039 262.722 652.254 284.1C592.83 304.998 531.195 319.21 468.115 321.714C465.411 321.822 465.397 326.05 468.117 325.942Z" fill="url(#paint18_linear_2011_7793)" fill-opacity="0.7"/>
<path d="M472.888 337.461C598.214 340.776 707.85 279.283 812.681 217.781C866.254 186.35 919.921 155.061 976.682 129.674C1036.53 102.908 1099.04 81.6763 1163.18 68.0373C1197.34 60.7743 1232.36 54.9721 1267.28 53.2921C1281.48 52.6087 1296.11 53.3597 1309.65 58.0242C1332.18 65.7873 1344.44 84.9544 1346.6 108.175C1349.39 138.132 1340.21 168.878 1330.18 196.724C1316.31 235.215 1297.75 271.986 1277.9 307.687C1233.19 388.127 1180.68 464.327 1125.34 537.748C1102.63 567.876 1077.91 596.461 1055.18 626.53C1047.77 636.339 1041.95 649.344 1048.91 660.985C1056.29 673.326 1072.45 679.042 1085.38 683.055C1108.21 690.142 1132.23 693.449 1155.89 696.297C1222.32 704.292 1289.34 706.818 1356.02 711.748C1423.69 716.749 1492.42 722.249 1558.35 739.11C1598.48 749.372 1656.88 766.977 1669.95 812.387C1685.98 868.086 1618.87 898.663 1579.97 919.909C1513.32 956.305 1446.5 995.361 1405.06 1061.47C1393.3 1080.22 1383.97 1100.46 1377.09 1121.49C1369.03 1146.13 1364.99 1171.79 1356.36 1196.29C1341.35 1238.94 1317.35 1278.69 1283.06 1308.51C1216.56 1366.37 1124.14 1374.78 1040.96 1356.29C991.636 1345.32 944.464 1325.63 900.623 1300.64C877.336 1287.37 854.931 1272.55 833.482 1256.47C813.221 1241.28 794.807 1223.56 773.713 1209.52C699.765 1160.3 606.039 1153.28 519.794 1151.13C428.305 1148.85 334.308 1155.81 244.203 1136.36C204.823 1127.85 166.027 1113.28 134.349 1087.77C96.3154 1057.15 72.9349 1012.98 58.535 966.942C21.9808 850.065 44.5008 719.965 87.9127 608.168C107.555 557.585 131.445 505.303 166.909 463.735C202.002 422.601 247.469 390.928 297.025 369.758C352.449 346.08 412.781 335.842 472.889 337.46C475.604 337.533 475.602 333.306 472.889 333.233C358.964 330.167 241.136 371.446 165.276 459.174C130.319 499.6 106.721 549.89 86.9548 599.167C64.2587 655.752 48.0208 715.19 40.6248 775.773C33.381 835.117 34.8292 896.258 50.4374 954.209C63.1253 1001.32 84.8253 1048.28 121.05 1081.85C183.485 1139.71 274.357 1149.74 355.589 1153.02C450.514 1156.85 546.684 1149.49 640.801 1165.38C684.257 1172.72 727.38 1185.55 765.053 1208.97C786.238 1222.14 804.325 1239.36 824.027 1254.55C845.964 1271.46 868.921 1287.05 892.832 1301.02C973.194 1347.98 1069.26 1380.12 1163.16 1366.47C1203.13 1360.66 1241.73 1345.74 1274.03 1321.25C1308.65 1295 1334.58 1259.1 1351.81 1219.38C1362.11 1195.63 1368.58 1171.08 1374.57 1145.97C1380.2 1122.4 1388.65 1099.53 1400.18 1078.21C1420.3 1041.01 1449.4 1009.77 1482.92 984.3C1512.78 961.598 1545.63 943.449 1578.48 925.533C1603.87 911.682 1630.85 898.177 1652.28 878.386C1668.9 863.038 1679.3 843.192 1675.9 820.121C1672.97 800.208 1660.98 783.975 1645.34 771.902C1625.85 756.854 1602.19 747.608 1578.85 740.457C1548.29 731.094 1516.68 725.291 1485.1 720.709C1414.06 710.403 1342.26 706.489 1270.7 701.733C1237.7 699.54 1204.69 697.306 1171.79 693.856C1146.12 691.165 1120.21 688.014 1095.19 681.453C1081.12 677.765 1062.07 672.786 1053.27 659.973C1044.74 647.542 1054.52 633.775 1062.57 624.074C1117.93 557.309 1169.66 487.276 1217.39 414.846C1242.95 376.069 1267.35 336.454 1289.36 295.54C1308.36 260.23 1326.02 223.753 1338.47 185.553C1352.3 143.126 1366.42 74.3675 1312.15 54.4389C1298.79 49.5348 1284.16 48.4932 1270.06 48.9513C1237.73 50.0019 1205.05 55.3664 1173.37 61.6365C1108.83 74.4118 1045.93 95.0156 985.589 121.164C927.193 146.468 872.064 178.035 817.237 210.207C762.948 242.062 708.496 274.455 650.078 298.256C593.652 321.246 534.017 334.851 472.886 333.233C470.172 333.163 470.175 337.389 472.889 337.461L472.888 337.461Z" fill="url(#paint19_linear_2011_7793)" fill-opacity="0.7"/>
<path d="M477.659 348.984C537.118 352.737 595.018 339.326 648.921 314.552C705.296 288.643 756.384 252.652 806.91 216.989C859.652 179.761 912.365 142.22 969.345 111.665C1027.38 80.5432 1089.25 56.463 1153.63 42.4027C1186.39 35.2486 1220.26 29.8504 1253.84 28.989C1268.76 28.606 1284.18 29.7783 1298.22 35.2321C1321.41 44.2389 1333.11 65.0004 1334.66 89.1647C1336.68 120.373 1326.68 152.073 1315.78 180.883C1300.63 220.937 1280.66 259.139 1259.36 296.217C1212.06 378.6 1156.96 456.59 1099.1 531.819C1086.11 548.707 1072.92 565.445 1059.53 582.017C1049.84 594.011 1038.9 605.463 1030.16 618.17C1023.23 628.229 1019.57 640.806 1027.54 651.36C1036.7 663.483 1053.98 668.624 1067.93 672.404C1091.98 678.924 1116.99 681.985 1141.73 684.586C1211.28 691.898 1281.32 694.029 1351.08 698.557C1422.9 703.219 1495.63 708.56 1565.9 724.947C1593.33 731.344 1620.93 739.484 1645.88 752.835C1664.78 762.952 1683.06 776.786 1692.5 796.606C1702.47 817.541 1700.75 841.406 1686.87 860.039C1670.13 882.518 1643.38 896.981 1619.51 910.517C1552.9 948.295 1484.23 984.388 1438.25 1048.04C1425.28 1065.99 1414.58 1085.49 1406.27 1106.03C1396.46 1130.26 1392.03 1155.46 1385.4 1180.6C1373.13 1227.14 1351.88 1271.98 1318.41 1307.02C1256.01 1372.34 1163.36 1387.87 1077.4 1372.19C1026.86 1362.97 978.288 1344.22 933.141 1319.89C908.425 1306.57 884.644 1291.53 861.875 1275.1C838.032 1257.89 816.378 1238.48 793.917 1219.6C724.232 1161.01 630.181 1146.31 542.212 1140.91C447.456 1135.08 351.331 1141.47 257.309 1126.19C216.552 1119.56 175.706 1108.31 140.238 1086.54C102.014 1063.09 75.2741 1028.64 57.1796 987.936C5.3088 871.24 15.9204 733.829 62.2504 617.211C84.0066 562.449 114.208 508.697 154.902 465.754C193.742 424.768 242.381 393.658 295.198 374.051C353.426 352.436 415.847 345.009 477.658 348.983C480.369 349.157 480.359 344.929 477.658 344.756C359.009 337.127 237.072 374.001 153.401 461.211C113.678 502.613 83.9916 554.074 61.9656 606.806C37.8078 664.642 22.9371 726.606 19.3834 789.247C15.826 851.958 23.943 915.796 46.9855 974.417C63.5232 1016.49 87.2484 1054.04 124.168 1080.88C194.858 1132.27 289.857 1137.41 373.994 1140.19C470.79 1143.4 570.089 1138.69 664.87 1162.1C709.011 1173.01 751.912 1190.9 787.48 1219.74C809.241 1237.38 829.612 1256.45 852.151 1273.19C875.139 1290.26 899.183 1305.92 924.212 1319.82C1006.78 1365.69 1106.23 1396.29 1200.87 1376.23C1241.22 1367.68 1279.1 1349.17 1309.73 1321.38C1343.79 1290.48 1367.32 1249.76 1382.03 1206.45C1390.61 1181.21 1394.46 1154.85 1402.37 1129.46C1409.63 1106.17 1419.86 1083.87 1432.97 1063.31C1455.98 1027.22 1487.46 997.666 1522.32 973.225C1552.83 951.834 1585.72 934.394 1618.13 916.151C1642.46 902.452 1669.12 888.104 1687.28 866.283C1702.25 848.299 1706.96 825.797 1699.71 803.381C1693.25 783.424 1678.08 768.126 1660.91 756.827C1638.42 742.026 1612.35 732.905 1586.56 725.816C1554.27 716.943 1521.13 711.344 1487.97 706.935C1413.03 696.97 1337.38 693.39 1261.96 689.091C1200.88 685.61 1137.67 684.371 1077.82 670.523C1062.62 667.006 1043.04 662.605 1032.16 650.35C1022.67 639.667 1028.64 626.669 1036.35 616.855C1060.81 585.687 1086.39 555.453 1110.42 523.913C1139.54 485.699 1167.73 446.756 1194.67 406.969C1221.79 366.929 1247.74 326.022 1271.26 283.749C1291.45 247.476 1310.28 210.02 1323.94 170.737C1339.14 127.063 1356.48 54.3834 1300.73 31.7076C1287.08 26.1532 1272.02 24.6114 1257.39 24.703C1225.64 24.8998 1193.31 30.0036 1162.25 36.2805C1097.67 49.3337 1035.42 72.5285 976.977 102.865C919.023 132.95 865.511 170.436 812.268 208.05C760.902 244.339 709.258 281.308 652.262 308.345C597.482 334.332 538.458 348.595 477.658 344.757C474.948 344.583 474.958 348.81 477.658 348.98L477.659 348.984Z" fill="url(#paint20_linear_2011_7793)" fill-opacity="0.7"/>
<path d="M1411.96 1166.37C1401.35 1220.55 1380.63 1273.89 1343.26 1315.3C1312 1349.95 1270.71 1373.46 1225.39 1384C1118.35 1408.88 1004.86 1366.96 915.014 1310.29C886.898 1292.55 860.126 1272.7 834.78 1251.19C813.32 1232.97 793.827 1212.56 770.523 1196.61C730.163 1169 683.212 1152.77 635.627 1142.95C531.91 1121.55 425.089 1127.35 320.014 1119.88C229.428 1113.44 125.69 1097.17 67.799 1018.9C38.1753 978.85 22.2238 927.325 12.9554 878.871C3.42616 829.046 2.28008 777.58 9.3365 727.351C23.2432 628.361 69.1789 533.724 142.585 465.389C223.855 389.734 332.664 354.591 442.669 357.829C469.263 358.611 495.626 362.885 522.27 361.787C543.609 360.906 564.819 357.438 585.369 351.628C626.537 339.988 664.505 319.27 699.742 295.306C780.437 240.43 849.834 170.706 929.909 114.905C1020.68 51.6491 1128.24 4.99825 1240.56 4.76694C1269.41 4.70761 1302.46 11.6071 1315.99 40.2361C1329.11 67.9992 1321.59 102.67 1313.34 130.662C1300.54 174.111 1279.95 215.213 1258.03 254.677C1232.46 300.729 1203.9 345.099 1174.05 388.465C1143.78 432.438 1112.03 475.399 1079.24 517.517C1065.05 535.743 1050.66 553.811 1036.05 571.702C1026.04 583.962 1014.18 595.697 1005.75 609.135C983.165 645.127 1035.17 658.749 1060.54 663.858C1127.92 677.427 1198.27 678.065 1266.69 681.367C1350.54 685.414 1434.79 688.953 1517.95 701.104C1553.92 706.36 1589.94 713.178 1624.55 724.524C1650.98 733.19 1678.11 744.682 1698.81 763.818C1716.82 780.476 1729.05 804.991 1725.02 830.056C1720.53 858.047 1695.55 877.113 1673.41 891.676C1641.4 912.74 1606.87 929.708 1574.33 949.929C1537.19 973.011 1501.94 999.827 1473.87 1033.66C1442.09 1071.98 1421.55 1117.6 1411.96 1166.37C1411.44 1169.03 1415.5 1170.17 1416.03 1167.49C1426.4 1114.73 1449.72 1066.01 1485.95 1026.18C1516.38 992.732 1553.69 966.825 1592.39 943.93C1624.03 925.22 1657.57 908.969 1687.29 887.196C1708.26 871.831 1728.42 851.651 1729.86 824.13C1732.84 767.093 1673.78 736.559 1627.95 721.206C1553.78 696.36 1473.35 689.874 1395.83 684.357C1314.03 678.538 1232 676.746 1150.24 670.539C1119.41 668.199 1088.32 665.498 1058.04 659.032C1041.91 655.59 1019.56 651.306 1008.45 637.669C996.719 623.255 1012.22 607.075 1021.26 596.241C1051.37 560.129 1080.56 523.237 1108.91 485.723C1172.78 401.213 1234.73 313.197 1282.09 218.14C1300.35 181.489 1317.57 142.596 1324.47 101.948C1328.84 76.1341 1329.19 45.9467 1311.08 24.975C1289.13 -0.435257 1251.04 -0.716882 1220.39 1.42198C1162.23 5.48115 1105.11 19.1299 1051.38 41.7832C954.957 82.4335 874.758 149.766 795.068 216.053C725.968 273.531 651.786 335.61 561.082 353.058C508.28 363.214 455.42 351.263 402.216 354.045C347.213 356.919 292.778 369.498 242.768 392.802C151.295 435.426 79.6848 512.746 39.4773 604.993C-0.484317 696.677 -10.039 801.047 12.8152 898.456C23.8474 945.476 41.1249 994.613 72.7356 1031.88C101.368 1065.64 140.526 1087.61 182.24 1100.99C228.842 1115.93 278.11 1121.37 326.739 1124.57C380.628 1128.12 434.659 1128.56 488.595 1131.08C590.706 1135.85 703.798 1146.35 786.209 1213.57C810.608 1233.47 832.745 1255.85 857.695 1275.19C882.774 1294.63 909.101 1312.46 936.636 1328.23C986.296 1356.65 1040.3 1378.77 1096.72 1389.12C1144.23 1397.83 1193.98 1398.1 1240.6 1384.37C1284.63 1371.4 1323.97 1345.72 1353.21 1310.22C1386.81 1269.42 1405.95 1218.96 1416.03 1167.5C1416.55 1164.84 1412.48 1163.7 1411.96 1166.37L1411.96 1166.37Z" fill="url(#paint21_linear_2011_7793)" fill-opacity="0.7"/>
</g>
<defs>
<linearGradient id="paint0_linear_2011_7793" x1="190.419" y1="783.785" x2="1583.62" y2="783.785" gradientUnits="userSpaceOnUse">
<stop stop-color="#1D3FEF" stop-opacity="0.4"/>
<stop offset="1" stop-color="#1D3FEF"/>
</linearGradient>
<linearGradient id="paint1_linear_2011_7793" x1="191.405" y1="779.275" x2="1570.05" y2="779.275" gradientUnits="userSpaceOnUse">
<stop stop-color="#1C4CEF" stop-opacity="0.429"/>
<stop offset="1" stop-color="#1C4CEF" stop-opacity="0.971"/>
</linearGradient>
<linearGradient id="paint2_linear_2011_7793" x1="192.462" y1="774.633" x2="1556.83" y2="774.633" gradientUnits="userSpaceOnUse">
<stop stop-color="#1C52EF" stop-opacity="0.457"/>
<stop offset="1" stop-color="#1C52EF" stop-opacity="0.943"/>
</linearGradient>
<linearGradient id="paint3_linear_2011_7793" x1="193.158" y1="770.527" x2="1543.9" y2="770.527" gradientUnits="userSpaceOnUse">
<stop stop-color="#1C59EF" stop-opacity="0.486"/>
<stop offset="1" stop-color="#1C59EF" stop-opacity="0.914"/>
</linearGradient>
<linearGradient id="paint4_linear_2011_7793" x1="193.598" y1="766.43" x2="1531.19" y2="766.43" gradientUnits="userSpaceOnUse">
<stop stop-color="#1C60EF" stop-opacity="0.514"/>
<stop offset="1" stop-color="#1C60EF" stop-opacity="0.886"/>
</linearGradient>
<linearGradient id="paint5_linear_2011_7793" x1="193.757" y1="762.625" x2="1521.8" y2="762.625" gradientUnits="userSpaceOnUse">
<stop stop-color="#1B66EF" stop-opacity="0.543"/>
<stop offset="1" stop-color="#1B66EF" stop-opacity="0.857"/>
</linearGradient>
<linearGradient id="paint6_linear_2011_7793" x1="193.6" y1="758.949" x2="1509.49" y2="758.949" gradientUnits="userSpaceOnUse">
<stop stop-color="#1B6DEF" stop-opacity="0.571"/>
<stop offset="1" stop-color="#1B6DEF" stop-opacity="0.829"/>
</linearGradient>
<linearGradient id="paint7_linear_2011_7793" x1="193.075" y1="755.588" x2="1497.19" y2="755.588" gradientUnits="userSpaceOnUse">
<stop stop-color="#1B73EF" stop-opacity="0.6"/>
<stop offset="1" stop-color="#1B73EF" stop-opacity="0.8"/>
</linearGradient>
<linearGradient id="paint8_linear_2011_7793" x1="192.126" y1="752.305" x2="1484.9" y2="752.305" gradientUnits="userSpaceOnUse">
<stop stop-color="#1A79EF" stop-opacity="0.629"/>
<stop offset="1" stop-color="#1A79EF" stop-opacity="0.771"/>
</linearGradient>
<linearGradient id="paint9_linear_2011_7793" x1="190.679" y1="749.182" x2="1472.61" y2="749.182" gradientUnits="userSpaceOnUse">
<stop stop-color="#1A7FEF" stop-opacity="0.657"/>
<stop offset="1" stop-color="#1A7FEF" stop-opacity="0.743"/>
</linearGradient>
<linearGradient id="paint10_linear_2011_7793" x1="188.646" y1="746.166" x2="1460.32" y2="746.166" gradientUnits="userSpaceOnUse">
<stop stop-color="#1A8BEF" stop-opacity="0.686"/>
<stop offset="1" stop-color="#1A8BEF" stop-opacity="0.714"/>
</linearGradient>
<linearGradient id="paint11_linear_2011_7793" x1="173.526" y1="743.64" x2="1469.05" y2="743.64" gradientUnits="userSpaceOnUse">
<stop stop-color="#1991EF" stop-opacity="0.714"/>
<stop offset="1" stop-color="#1991EF" stop-opacity="0.686"/>
</linearGradient>
<linearGradient id="paint12_linear_2011_7793" x1="157.438" y1="748.797" x2="1493.63" y2="748.797" gradientUnits="userSpaceOnUse">
<stop stop-color="#1997EF" stop-opacity="0.743"/>
<stop offset="1" stop-color="#1997EF" stop-opacity="0.657"/>
</linearGradient>
<linearGradient id="paint13_linear_2011_7793" x1="141.116" y1="742.801" x2="1518.72" y2="742.801" gradientUnits="userSpaceOnUse">
<stop stop-color="#199CEF" stop-opacity="0.771"/>
<stop offset="1" stop-color="#199CEF" stop-opacity="0.629"/>
</linearGradient>
<linearGradient id="paint14_linear_2011_7793" x1="124.553" y1="737.205" x2="1544.18" y2="737.205" gradientUnits="userSpaceOnUse">
<stop stop-color="#19A1EF" stop-opacity="0.8"/>
<stop offset="1" stop-color="#19A1EF" stop-opacity="0.6"/>
</linearGradient>
<linearGradient id="paint15_linear_2011_7793" x1="107.739" y1="731.595" x2="1569.93" y2="731.595" gradientUnits="userSpaceOnUse">
<stop stop-color="#18A7EF" stop-opacity="0.829"/>
<stop offset="1" stop-color="#18A7EF" stop-opacity="0.571"/>
</linearGradient>
<linearGradient id="paint16_linear_2011_7793" x1="90.6781" y1="725.855" x2="1595.92" y2="725.855" gradientUnits="userSpaceOnUse">
<stop stop-color="#18ACEF" stop-opacity="0.857"/>
<stop offset="1" stop-color="#18ACEF" stop-opacity="0.543"/>
</linearGradient>
<linearGradient id="paint17_linear_2011_7793" x1="73.3722" y1="720.833" x2="1622.11" y2="720.833" gradientUnits="userSpaceOnUse">
<stop stop-color="#18B2EF" stop-opacity="0.886"/>
<stop offset="1" stop-color="#18B2EF" stop-opacity="0.514"/>
</linearGradient>
<linearGradient id="paint18_linear_2011_7793" x1="55.849" y1="714.975" x2="1648.46" y2="714.975" gradientUnits="userSpaceOnUse">
<stop stop-color="#18B7EF" stop-opacity="0.914"/>
<stop offset="1" stop-color="#18B7EF" stop-opacity="0.486"/>
</linearGradient>
<linearGradient id="paint19_linear_2011_7793" x1="38.134" y1="709.242" x2="1674.95" y2="709.242" gradientUnits="userSpaceOnUse">
<stop stop-color="#17BDEF"/>
<stop offset="1" stop-color="#17BDEF" stop-opacity="0.457"/>
</linearGradient>
<linearGradient id="paint20_linear_2011_7793" x1="18.5821" y1="703.599" x2="1699.87" y2="703.599" gradientUnits="userSpaceOnUse">
<stop stop-color="#17C2EF"/>
<stop offset="1" stop-color="#17C2EF" stop-opacity="0.429"/>
</linearGradient>
<linearGradient id="paint21_linear_2011_7793" x1="0.63853" y1="697.922" x2="1726.61" y2="697.922" gradientUnits="userSpaceOnUse">
<stop stop-color="#17BDEF"/>
<stop offset="1" stop-color="#17C8EF" stop-opacity="0.4"/>
</linearGradient>
<clipPath id="clip0_2011_7793">
<rect width="1730" height="1496" fill="white"/>
</clipPath>
</defs>
</svg>
