<svg width="21" height="21" viewBox="0 0 21 21" fill="none" xmlns="http://www.w3.org/2000/svg">
<path fill-rule="evenodd" clipRule="evenodd" d="M12.1999 4.01788V2.85065H3.4V4.01788C3.4 4.323 3.04907 4.49463 2.80822 4.30731L0.472121 2.49034C0.283381 2.34354 0.283381 2.05828 0.472122 1.91148L2.80822 0.094518C3.04907 -0.0928082 3.4 0.0788262 3.4 0.383947V1.55065H12.1999V0.383947C12.1999 0.0788262 12.5508 -0.0928082 12.7916 0.094518L15.1277 1.91148C15.3165 2.05828 15.3165 2.34354 15.1277 2.49034L12.7916 4.30731C12.5508 4.49463 12.1999 4.323 12.1999 4.01788ZM12.9331 7.16667H2.66645C2.1694 7.16667 1.76645 7.56961 1.76645 8.06667V18.3333C1.76645 18.8304 2.1694 19.2333 2.66646 19.2333H12.9331C13.4302 19.2333 13.8331 18.8304 13.8331 18.3333V8.06667C13.8331 7.56961 13.4302 7.16667 12.9331 7.16667ZM2.66645 5.86667C1.45143 5.86667 0.466453 6.85164 0.466453 8.06667V18.3333C0.466453 19.5484 1.45143 20.5333 2.66646 20.5333H12.9331C14.1481 20.5333 15.1331 19.5484 15.1331 18.3333V8.06667C15.1331 6.85164 14.1481 5.86667 12.9331 5.86667H2.66645ZM20.6169 8.80046H19.4499V17.6001H20.6169C20.9221 17.6001 21.0937 17.951 20.9064 18.1918L19.0894 20.5279C18.9426 20.7167 18.6573 20.7167 18.5105 20.5279L16.6936 18.1918C16.5062 17.951 16.6779 17.6001 16.983 17.6001H18.15V8.80046H16.983C16.6779 8.80046 16.5062 8.44953 16.6936 8.20868L18.5105 5.87258C18.6573 5.68384 18.9426 5.68384 19.0894 5.87258L20.9064 8.20868C21.0937 8.44953 20.9221 8.80046 20.6169 8.80046Z" fill="#ECECEC"/>
</svg>
