<svg width="19" height="19" viewBox="0 0 19 19" fill="none" xmlns="http://www.w3.org/2000/svg">
<path fill-rule="evenodd" clipRule="evenodd" d="M14.4943 8.30977C14.4943 11.7254 11.7254 14.4943 8.30977 14.4943C4.89412 14.4943 2.1252 11.7254 2.1252 8.30977C2.1252 4.89412 4.89412 2.1252 8.30977 2.1252C11.7254 2.1252 14.4943 4.89412 14.4943 8.30977ZM13.1227 14.0419C11.8215 15.1356 10.1426 15.7943 8.30977 15.7943C4.17615 15.7943 0.825195 12.4434 0.825195 8.30977C0.825195 4.17615 4.17615 0.825195 8.30977 0.825195C12.4434 0.825195 15.7943 4.17615 15.7943 8.30977C15.7943 10.1426 15.1356 11.8215 14.0419 13.1227L18.7487 17.8295C19.0026 18.0833 19.0026 18.4949 18.7487 18.7487C18.4949 19.0026 18.0833 19.0026 17.8295 18.7487L13.1227 14.0419Z" fill="white"/>
</svg>
