<svg width="19" height="20" viewBox="0 0 19 20" fill="none" xmlns="http://www.w3.org/2000/svg">
<path fill-rule="evenodd" clip-rule="evenodd" d="M14.8743 0.740185C15.1282 0.486345 15.5397 0.486345 15.7936 0.740185L18.7269 3.67352C18.9808 3.92736 18.9808 4.33892 18.7269 4.59276L12.9444 10.3753C12.8393 10.4804 12.7179 10.5679 12.5849 10.6344L6.82466 13.5145C6.57441 13.6396 6.27218 13.5906 6.07435 13.3928C5.87651 13.1949 5.82747 12.8927 5.95259 12.6424L8.8327 6.88222C8.8992 6.74924 8.98669 6.62784 9.09183 6.5227L14.8743 0.740185ZM15.334 2.11904L10.0111 7.44194C10.0047 7.44828 9.99946 7.45559 9.99546 7.4636L8.48512 10.4843L8.98282 10.982L12.0035 9.47165C12.0115 9.46764 12.0188 9.46237 12.0252 9.45604L17.3481 4.13314L15.334 2.11904ZM11.5837 2.0166L10.2837 3.3166H4.18734C3.56055 3.3166 3.12956 3.31711 2.79531 3.34442C2.46865 3.37111 2.29205 3.42012 2.16365 3.48554C1.872 3.63415 1.63488 3.87127 1.48627 4.16292C1.42085 4.29132 1.37184 4.46792 1.34515 4.79458C1.31784 5.12882 1.31733 5.55982 1.31733 6.1866V15.2799C1.31733 15.9067 1.31784 16.3377 1.34515 16.672C1.37184 16.9986 1.42085 17.1752 1.48627 17.3036C1.63488 17.5953 1.872 17.8324 2.16365 17.981C2.29205 18.0464 2.46865 18.0954 2.79531 18.1221C3.12956 18.1494 3.56055 18.1499 4.18733 18.1499H13.2807C13.9075 18.1499 14.3384 18.1494 14.6727 18.1221C14.9994 18.0954 15.176 18.0464 15.3044 17.981C15.596 17.8324 15.8331 17.5953 15.9817 17.3036C16.0472 17.1752 16.0962 16.9986 16.1229 16.672C16.1502 16.3377 16.1507 15.9067 16.1507 15.2799V9.18297L17.4507 7.88298V15.2799V15.3072C17.4507 15.9001 17.4507 16.3844 17.4185 16.7778C17.3853 17.1849 17.3144 17.5516 17.14 17.8938C16.8668 18.4301 16.4308 18.8661 15.8945 19.1393C15.5523 19.3137 15.1856 19.3845 14.7786 19.4178C14.3851 19.4499 13.9008 19.4499 13.3079 19.4499H13.2807H4.18733H4.16005C3.56717 19.4499 3.08289 19.4499 2.68945 19.4178C2.2824 19.3845 1.91567 19.3137 1.57346 19.1393C1.0372 18.8661 0.601205 18.4301 0.327966 17.8938C0.153603 17.5516 0.0827238 17.1849 0.0494664 16.7778C0.0173206 16.3844 0.0173267 15.9001 0.0173342 15.3072L0.0173345 15.2799V6.1866L0.0173342 6.15932C0.0173267 5.56643 0.0173206 5.08216 0.0494664 4.68872C0.0827238 4.28167 0.153603 3.91494 0.327966 3.57273C0.601205 3.03647 1.0372 2.60047 1.57346 2.32723C1.91567 2.15287 2.2824 2.08199 2.68945 2.04873C3.08289 2.01659 3.56717 2.0166 4.16005 2.0166L4.18734 2.0166H11.5837Z" fill="#ECECEC"/>
</svg>
