<svg width="16" height="20" viewBox="0 0 16 20" fill="none" xmlns="http://www.w3.org/2000/svg">
<path fill-rule="evenodd" clip-rule="evenodd" d="M3.16042 0.549806L3.13036 0.549805C2.6759 0.549791 2.2897 0.549779 1.97458 0.57974C1.64286 0.61128 1.32344 0.68055 1.0278 0.861718C0.742993 1.03625 0.503534 1.27571 0.329003 1.56052C0.147835 1.85616 0.0785652 2.17558 0.0470254 2.5073C0.0170638 2.82241 0.017076 3.20861 0.0170905 3.66308L0.0170911 3.69314V16.3065L0.0170905 16.3365C0.017076 16.791 0.0170638 17.1772 0.0470254 17.4923C0.0785652 17.824 0.147835 18.1435 0.329003 18.4391C0.503534 18.7239 0.742993 18.9634 1.0278 19.1379C1.32344 19.3191 1.64286 19.3883 1.97458 19.4199C2.28969 19.4498 2.67588 19.4498 3.13032 19.4498H3.16043H12.8404H12.8705C13.325 19.4498 13.7112 19.4498 14.0263 19.4199C14.358 19.3883 14.6774 19.3191 14.973 19.1379C15.2579 18.9634 15.4973 18.7239 15.6718 18.4391C15.853 18.1435 15.9223 17.824 15.9538 17.4923C15.9838 17.1772 15.9838 16.791 15.9838 16.3366V16.3366V16.3365V16.3365V16.3065V3.69314V3.66308V3.66306V3.66304V3.66303C15.9838 3.20858 15.9838 2.8224 15.9538 2.5073C15.9223 2.17558 15.853 1.85616 15.6718 1.56052C15.4973 1.27571 15.2579 1.03625 14.973 0.861718C14.6774 0.68055 14.358 0.61128 14.0263 0.57974C13.7112 0.549779 13.325 0.549791 12.8705 0.549805L12.8404 0.549806H3.16042ZM1.70705 1.97015C1.7641 1.93519 1.86107 1.8964 2.09763 1.8739C2.34386 1.85049 2.66774 1.84981 3.16042 1.84981H12.8404C13.3331 1.84981 13.657 1.85049 13.9032 1.8739C14.1398 1.8964 14.2367 1.93519 14.2938 1.97015C14.4037 2.03749 14.4961 2.12988 14.5634 2.23977C14.5984 2.29682 14.6372 2.39379 14.6597 2.63035C14.6831 2.87658 14.6838 3.20045 14.6838 3.69314V16.3065C14.6838 16.7992 14.6831 17.123 14.6597 17.3693C14.6372 17.6058 14.5984 17.7028 14.5634 17.7598C14.4961 17.8697 14.4037 17.9621 14.2938 18.0295C14.2367 18.0644 14.1398 18.1032 13.9032 18.1257C13.657 18.1491 13.3331 18.1498 12.8404 18.1498H3.16043C2.66774 18.1498 2.34386 18.1491 2.09763 18.1257C1.86107 18.1032 1.7641 18.0644 1.70705 18.0295C1.59716 17.9621 1.50477 17.8697 1.43743 17.7598C1.40247 17.7028 1.36368 17.6058 1.34119 17.3693C1.31778 17.123 1.31709 16.7992 1.31709 16.3065V3.69314C1.31709 3.20045 1.31778 2.87658 1.34119 2.63035C1.36368 2.39379 1.40247 2.29681 1.43743 2.23977C1.50477 2.12988 1.59716 2.03749 1.70705 1.97015ZM4.33376 13.7498C3.97477 13.7498 3.68376 14.0408 3.68376 14.3998C3.68376 14.7588 3.97477 15.0498 4.33376 15.0498H8.73376C9.09274 15.0498 9.38376 14.7588 9.38376 14.3998C9.38376 14.0408 9.09274 13.7498 8.73376 13.7498H4.33376ZM3.68376 9.99981C3.68376 9.64082 3.97477 9.34981 4.33376 9.34981H11.6671C12.0261 9.34981 12.3171 9.64082 12.3171 9.99981C12.3171 10.3588 12.0261 10.6498 11.6671 10.6498H4.33376C3.97477 10.6498 3.68376 10.3588 3.68376 9.99981ZM4.33384 4.95019C3.97485 4.95019 3.68384 5.24121 3.68384 5.60019C3.68384 5.95918 3.97485 6.25019 4.33384 6.25019H11.6672C12.0262 6.25019 12.3172 5.95918 12.3172 5.60019C12.3172 5.24121 12.0262 4.95019 11.6672 4.95019H4.33384Z" fill="#ECECEC"/>
</svg>
