<svg width="527" height="597" viewBox="0 0 527 597" fill="none" xmlns="http://www.w3.org/2000/svg">
    <path d="M312.07 371.841H0V283.135H309.743C334.756 283.135 355.308 279.16 371.401 271.21C387.688 263.261 399.71 252.209 407.465 238.055C415.415 223.901 419.293 207.323 419.099 188.321C419.293 169.708 415.415 153.033 407.465 138.297C399.71 123.367 387.882 111.637 371.983 103.106C356.278 94.3804 336.307 90.0178 312.07 90.0178H195.153V596.077H87.5425V0.439453H312.07C358.217 0.439453 397.286 8.77683 429.278 25.4516C461.27 41.9325 485.507 64.327 501.988 92.6353C518.663 120.75 527 152.354 527 187.449C527 223.901 518.566 255.99 501.697 283.716C484.828 311.249 460.398 332.868 428.406 348.574C396.413 364.085 357.635 371.841 312.07 371.841ZM325.74 416.048V504.754H0V416.048H325.74Z"
          fill="#ECECEC"/>
</svg>
