<svg width="581" height="697" viewBox="0 0 581 697" fill="none" xmlns="http://www.w3.org/2000/svg">
    <path d="M353.853 413.904H0.35022V339.125H353.853C386.484 339.125 413.45 333.46 434.751 322.13C456.051 310.573 471.914 294.937 482.338 275.222C492.761 255.281 497.973 232.621 497.973 207.241C497.973 181.862 492.761 159.314 482.338 139.6C471.914 119.659 456.051 104.023 434.751 92.6928C413.45 81.1359 386.484 75.3575 353.853 75.3575H194.777V696.706H110.48V0.578125H353.853C405.519 0.578125 448.12 9.9822 481.658 28.7904C515.195 47.5985 540.122 72.6383 556.437 103.91C572.753 135.181 580.91 169.625 580.91 207.241C580.91 244.858 572.753 279.301 556.437 310.573C540.122 341.844 515.195 366.884 481.658 385.692C448.12 404.5 405.519 413.904 353.853 413.904ZM348.414 479.166V553.946H0.35022V479.166H348.414Z"
          fill="#ECECEC"/>
</svg>
